<svg width="108" height="40" viewBox="0 0 108 40" fill="none" xmlns="http://www.w3.org/2000/svg">
<path d="M33.4716 25.3334L35.4749 26.535C35.5985 26.609 35.7008 26.7138 35.7718 26.8391C35.8429 26.9644 35.8802 27.106 35.8802 27.25C35.8802 27.3941 35.8429 27.5356 35.7718 27.661C35.7008 27.7863 35.5985 27.891 35.4749 27.965L20.8583 36.735C20.599 36.8908 20.3023 36.973 19.9999 36.973C19.6975 36.973 19.4008 36.8908 19.1416 36.735L4.52492 27.965C4.40133 27.891 4.29903 27.7863 4.228 27.661C4.15697 27.5356 4.11963 27.3941 4.11963 27.25C4.11963 27.106 4.15697 26.9644 4.228 26.8391C4.29903 26.7138 4.40133 26.609 4.52492 26.535L6.52825 25.3334L19.9999 33.4167L33.4716 25.3334V25.3334ZM33.4716 17.5L35.4749 18.7017C35.5985 18.7757 35.7008 18.8804 35.7718 19.0057C35.8429 19.1311 35.8802 19.2726 35.8802 19.4167C35.8802 19.5607 35.8429 19.7023 35.7718 19.8276C35.7008 19.9529 35.5985 20.0577 35.4749 20.1317L19.9999 29.4167L4.52492 20.1317C4.40133 20.0577 4.29903 19.9529 4.228 19.8276C4.15697 19.7023 4.11963 19.5607 4.11963 19.4167C4.11963 19.2726 4.15697 19.1311 4.228 19.0057C4.29903 18.8804 4.40133 18.7757 4.52492 18.7017L6.52825 17.5L19.9999 25.5834L33.4716 17.5ZM20.8566 2.18168L35.4749 10.9517C35.5985 11.0257 35.7008 11.1304 35.7718 11.2557C35.8429 11.3811 35.8802 11.5226 35.8802 11.6667C35.8802 11.8107 35.8429 11.9523 35.7718 12.0776C35.7008 12.2029 35.5985 12.3077 35.4749 12.3817L19.9999 21.6667L4.52492 12.3817C4.40133 12.3077 4.29903 12.2029 4.228 12.0776C4.15697 11.9523 4.11963 11.8107 4.11963 11.6667C4.11963 11.5226 4.15697 11.3811 4.228 11.2557C4.29903 11.1304 4.40133 11.0257 4.52492 10.9517L19.1416 2.18168C19.4008 2.02594 19.6975 1.94366 19.9999 1.94366C20.3023 1.94366 20.599 2.02594 20.8583 2.18168H20.8566ZM19.9999 5.55335L9.81159 11.6667L19.9999 17.78L30.1883 11.6667L19.9999 5.55335Z" fill="black"/>
<path d="M54.3906 29L53.8125 26.625H53.6875C53.3438 27.0938 53 27.5 52.6562 27.8438C52.3125 28.1771 51.9375 28.4531 51.5312 28.6719C51.125 28.8906 50.6719 29.0521 50.1719 29.1562C49.6719 29.2604 49.0938 29.3125 48.4375 29.3125C47.7188 29.3125 47.0573 29.2083 46.4531 29C45.849 28.8021 45.3229 28.4948 44.875 28.0781C44.4375 27.651 44.0938 27.1198 43.8438 26.4844C43.5938 25.8385 43.4688 25.0781 43.4688 24.2031C43.4688 22.4948 44.0677 21.1823 45.2656 20.2656C46.474 19.349 48.3073 18.849 50.7656 18.7656L53.6406 18.6562V17.5781C53.6406 16.8802 53.5625 16.2969 53.4062 15.8281C53.2604 15.3594 53.0417 14.9844 52.75 14.7031C52.4688 14.4115 52.1146 14.2031 51.6875 14.0781C51.2708 13.9531 50.7917 13.8906 50.25 13.8906C49.3854 13.8906 48.5781 14.0156 47.8281 14.2656C47.0885 14.5156 46.375 14.8177 45.6875 15.1719L44.6875 13.0312C45.4583 12.6146 46.3177 12.2604 47.2656 11.9688C48.2135 11.6771 49.2083 11.5312 50.25 11.5312C51.3125 11.5312 52.2292 11.6406 53 11.8594C53.7812 12.0677 54.4219 12.4062 54.9219 12.875C55.4323 13.3333 55.8125 13.9219 56.0625 14.6406C56.3125 15.3594 56.4375 16.2292 56.4375 17.25V29H54.3906ZM49.1719 27.0156C49.8073 27.0156 50.3958 26.9167 50.9375 26.7188C51.4792 26.5208 51.9479 26.224 52.3438 25.8281C52.7396 25.4219 53.0469 24.9167 53.2656 24.3125C53.4948 23.6979 53.6094 22.9792 53.6094 22.1562V20.6094L51.375 20.7188C50.4375 20.7604 49.651 20.8646 49.0156 21.0312C48.3802 21.1979 47.8698 21.4323 47.4844 21.7344C47.1094 22.026 46.8385 22.3854 46.6719 22.8125C46.5052 23.2292 46.4219 23.7031 46.4219 24.2344C46.4219 25.1927 46.6719 25.8958 47.1719 26.3438C47.6823 26.7917 48.349 27.0156 49.1719 27.0156ZM72.8281 29L72.4062 26.7031H72.25C71.9896 27.151 71.6771 27.5417 71.3125 27.875C70.9583 28.1979 70.5677 28.4688 70.1406 28.6875C69.7135 28.8958 69.2604 29.0521 68.7812 29.1562C68.3021 29.2604 67.8125 29.3125 67.3125 29.3125C66.3646 29.3125 65.5312 29.1927 64.8125 28.9531C64.0938 28.7135 63.4948 28.3385 63.0156 27.8281C62.5365 27.3177 62.1719 26.6667 61.9219 25.875C61.6823 25.0833 61.5625 24.1406 61.5625 23.0469V11.8438H64.4062V22.8906C64.4062 24.2448 64.6823 25.2604 65.2344 25.9375C65.7865 26.6146 66.6406 26.9531 67.7969 26.9531C68.6406 26.9531 69.349 26.8177 69.9219 26.5469C70.4948 26.276 70.9531 25.8802 71.2969 25.3594C71.651 24.8281 71.901 24.1771 72.0469 23.4062C72.2031 22.6354 72.2812 21.75 72.2812 20.75V11.8438H75.125V29H72.8281ZM85.75 26.9844C85.9375 26.9844 86.1458 26.974 86.375 26.9531C86.6146 26.9323 86.8438 26.9062 87.0625 26.875C87.2812 26.8438 87.4792 26.8073 87.6562 26.7656C87.8438 26.724 87.9844 26.6875 88.0781 26.6562V28.8125C87.9427 28.875 87.7708 28.9375 87.5625 29C87.3542 29.0625 87.125 29.1146 86.875 29.1562C86.625 29.2083 86.3646 29.2448 86.0938 29.2656C85.8229 29.2969 85.5573 29.3125 85.2969 29.3125C84.651 29.3125 84.0521 29.2292 83.5 29.0625C82.9479 28.8958 82.4688 28.6094 82.0625 28.2031C81.6667 27.7969 81.3542 27.25 81.125 26.5625C80.8958 25.8646 80.7812 24.9896 80.7812 23.9375V13.9844H78.3594V12.7188L80.7812 11.5L82 7.90625H83.6406V11.8438H87.9531V13.9844H83.6406V23.9375C83.6406 24.9479 83.8021 25.7083 84.125 26.2188C84.4583 26.7292 85 26.9844 85.75 26.9844ZM105.391 20.3906C105.391 21.8177 105.214 23.0885 104.859 24.2031C104.516 25.3073 104.016 26.2396 103.359 27C102.714 27.75 101.927 28.3229 101 28.7188C100.073 29.1146 99.0312 29.3125 97.875 29.3125C96.8021 29.3125 95.8125 29.1146 94.9062 28.7188C94 28.3229 93.2135 27.75 92.5469 27C91.8906 26.2396 91.375 25.3073 91 24.2031C90.6354 23.0885 90.4531 21.8177 90.4531 20.3906C90.4531 18.974 90.625 17.7188 90.9688 16.625C91.3229 15.5208 91.8229 14.5938 92.4688 13.8438C93.1146 13.0833 93.901 12.5104 94.8281 12.125C95.7656 11.7292 96.8125 11.5312 97.9688 11.5312C99.0417 11.5312 100.031 11.7292 100.938 12.125C101.844 12.5104 102.625 13.0833 103.281 13.8438C103.948 14.5938 104.464 15.5208 104.828 16.625C105.203 17.7188 105.391 18.974 105.391 20.3906ZM93.3906 20.3906C93.3906 22.5677 93.7448 24.2083 94.4531 25.3125C95.1719 26.4062 96.3333 26.9531 97.9375 26.9531C99.5417 26.9531 100.693 26.4062 101.391 25.3125C102.099 24.2083 102.453 22.5677 102.453 20.3906C102.453 18.2135 102.094 16.5885 101.375 15.5156C100.667 14.4323 99.5104 13.8906 97.9062 13.8906C96.3021 13.8906 95.1458 14.4323 94.4375 15.5156C93.7396 16.5885 93.3906 18.2135 93.3906 20.3906Z" fill="black"/>
</svg>
