<svg width="89" height="30" viewBox="0 0 89 30" fill="none" xmlns="http://www.w3.org/2000/svg">
<g clip-path="url(#clip0_552_2)">
<path d="M8.38906 7.51084C8.79195 6.68815 9.13716 6.01918 11.6691 6.01918C14.2015 6.01918 25.4809 6.01918 26.2865 6.01918C27.0923 6.01918 27.8977 5.65936 27.8977 4.63057C27.8977 3.60178 27.8977 1.39389 27.8977 0.979988C27.8977 0.56694 28.3581 0.000595093 29.5666 0.000595093C30.7753 0.000595093 58.9738 0.000595093 59.837 0.000595093C60.7003 0.000595093 61.3906 0.412365 61.3906 1.38963C61.3906 2.36689 61.3906 3.49873 61.3906 4.27032C61.3906 5.04192 61.7936 5.86503 63.0599 5.86503C64.3257 5.86503 86.4817 5.86503 87.345 5.86503C88.2082 5.86503 89.3587 6.07028 88.8413 7.04797C88.323 8.02523 80.439 22.3202 79.905 23.275C79.6992 23.6419 79.5396 24.1305 77.9441 24.1305C76.3482 24.1305 63.7211 24.1305 63.0142 24.1305C62.3077 24.1305 61.1448 24.1305 61.1448 25.353C61.1448 26.5756 61.1448 28.2669 61.1448 28.7554C61.1448 29.2445 60.7351 29.978 59.4354 29.978C58.1358 29.978 30.4197 29.978 29.4849 29.978C28.5503 29.978 27.8664 29.5497 27.8664 28.7147C27.8664 27.8797 27.8664 26.3713 27.8664 25.7195C27.8664 25.0678 27.4788 24.1101 26.385 24.1101C25.2911 24.1101 2.04101 24.1101 1.2432 24.1101C0.445599 24.1101 -0.306968 23.5599 0.171854 22.5009C0.650862 21.4413 8.38906 7.51084 8.38906 7.51084Z" fill="#CBD8F1"/>
<mask id="mask0_552_2" style="mask-type:luminance" maskUnits="userSpaceOnUse" x="2" y="8" width="8" height="13">
<path d="M9.6616 8.69582L8.96281 8.69412L2.09424 20.9109L2.79264 20.9126L9.6616 8.69582Z" fill="white"/>
</mask>
<g mask="url(#mask0_552_2)">
<path d="M9.6616 8.69582L8.96281 8.69412L2.09424 20.9109L2.79264 20.9126L9.6616 8.69582Z" fill="url(#paint0_linear_552_2)"/>
</g>
<path d="M26.4437 22.6353C24.456 22.6353 7.74995 22.6353 2.93015 22.6353C2.10983 22.6353 1.82213 22.3004 2.14165 21.7311C3.92221 18.5657 9.77709 8.15608 9.92878 7.88015C10.1072 7.55482 10.538 7.15795 11.3344 7.15795C12.1303 7.15795 25.7319 7.15795 27.1133 7.15795C28.7502 7.15795 29.0288 6.51836 29.0288 5.36311C29.0288 4.20742 29.0288 2.38405 29.0288 1.92203C29.0288 1.45959 29.3723 1.15215 29.9756 1.15215C30.5789 1.15215 58.0999 1.15215 58.8759 1.15215C59.651 1.15215 59.9955 1.38251 59.9955 1.84496C59.9955 2.30655 59.9955 3.38474 59.9955 4.38585C59.9955 5.38738 59.7825 7.00381 62.2808 7.00381C64.3646 7.00381 80.7709 7.00381 86.1609 7.00381C87.2338 7.00381 87.5115 7.6502 86.9441 8.67388C84.8313 12.4841 79.6313 21.5192 79.4694 21.8256C79.2645 22.2148 78.6285 22.5578 77.6123 22.5578C73.4915 22.5578 62.973 22.5578 61.9373 22.5578C60.6443 22.5578 59.3528 23.3284 59.3528 24.4836C59.3528 25.205 59.3528 26.5287 59.3528 27.4195C59.3528 27.9543 58.9931 28.3335 58.3543 28.3335C53.3359 28.3335 31.0821 28.3335 30.3128 28.3335C29.4456 28.3335 29.1145 27.8943 29.1145 27.308C29.1145 26.4206 29.1145 25.1942 29.1145 24.638C29.1145 23.7135 28.4255 22.6353 26.4437 22.6353Z" fill="#E7CE87"/>
<path d="M57.8013 21.9464L61.0937 25.0156C61.0937 25.0156 61.3295 24.3428 62.2228 24.175L58.5344 21.0997C58.5344 21.0997 57.9423 21.4 57.8013 21.9464Z" fill="white"/>
<path d="M26.5205 24.1328C26.5205 24.1328 27.8379 24.1752 27.8379 25.731L30.8952 21.6943L30.0485 21.1474L26.5205 24.1328Z" fill="white"/>
<path d="M59.0173 8.84668L62.4898 5.8212C62.4898 5.8212 62.0186 5.76883 61.5479 5.08496L58.1045 8.21561L59.0173 8.84668Z" fill="white"/>
<path d="M57.5156 2.66462L60.7237 0.218273C60.7237 0.218273 61.0767 0.402653 61.2239 0.691361L57.8691 3.4541L57.5156 2.66462Z" fill="white"/>
<path d="M27.9204 1.10415C27.9204 0.598694 28.4469 -1.54972e-05 29.3087 -1.54972e-05L31.7432 2.69076C31.7432 2.69076 31.0144 2.69076 30.8992 2.9305C30.7841 3.17067 30.6692 3.68506 30.6692 3.68506L27.9204 1.10415Z" fill="white"/>
<path d="M26.8696 5.94945C26.8696 5.94945 27.9104 5.80126 27.9104 4.80739L30.3228 7.34487L28.7852 8.33789L26.8696 5.94945Z" fill="white"/>
<mask id="mask1_552_2" style="mask-type:luminance" maskUnits="userSpaceOnUse" x="44" y="0" width="17" height="2">
<path d="M59.8369 0.000103712C59.4881 0.000103712 52.1211 0.000103712 44.7111 0.000103712L44.6006 1.15749C51.4736 1.15749 58.2781 1.15749 58.5048 1.15749C58.9608 1.15749 59.2171 1.25969 59.3886 1.56543L60.9278 0.342467C60.9278 0.342467 60.5419 0.000103712 59.8369 0.000103712Z" fill="white"/>
</mask>
<g mask="url(#mask1_552_2)">
<path d="M59.8369 0.000103712C59.4881 0.000103712 52.1211 0.000103712 44.7111 0.000103712L44.6006 1.15749C51.4736 1.15749 58.2781 1.15749 58.5048 1.15749C58.9608 1.15749 59.2171 1.25969 59.3886 1.56543L60.9278 0.342467C60.9278 0.342467 60.5419 0.000103712 59.8369 0.000103712Z" fill="url(#paint1_linear_552_2)"/>
</g>
<mask id="mask2_552_2" style="mask-type:luminance" maskUnits="userSpaceOnUse" x="28" y="0" width="17" height="2">
<path d="M29.3085 -0.000189781C28.9378 -0.000189781 28.5098 0.16375 28.2822 0.418392L29.28 1.38672C29.28 1.38672 29.4796 1.1572 30.2777 1.1572C30.6784 1.1572 37.674 1.1572 44.6006 1.1572L44.7111 -0.000189781C37.1256 -0.000189781 29.4959 -0.000189781 29.3085 -0.000189781Z" fill="white"/>
</mask>
<g mask="url(#mask2_552_2)">
<path d="M29.3085 -0.000189781C28.9378 -0.000189781 28.5098 0.16375 28.2822 0.418392L29.28 1.38672C29.28 1.38672 29.4796 1.1572 30.2777 1.1572C30.6784 1.1572 37.674 1.1572 44.6006 1.1572L44.7111 -0.000189781C37.1256 -0.000189781 29.4959 -0.000189781 29.3085 -0.000189781Z" fill="url(#paint2_linear_552_2)"/>
</g>
<mask id="mask3_552_2" style="mask-type:luminance" maskUnits="userSpaceOnUse" x="27" y="0" width="3" height="7">
<path d="M28.0432 0.602635L29.0769 1.74682C29.0769 1.74682 29.0544 2.06789 29.0544 2.28889C29.0544 2.5099 29.0544 5.56305 29.0544 5.7832C29.0544 6.0042 28.8972 6.36572 28.8972 6.36572L27.7964 5.32118C27.7964 5.32118 27.9202 5.18406 27.9202 4.63049C27.9202 4.0765 27.9202 1.26479 27.9202 1.10426C27.9202 0.802773 28.0432 0.602635 28.0432 0.602635Z" fill="white"/>
</mask>
<g mask="url(#mask3_552_2)">
<path d="M28.0432 0.602635L29.0769 1.74682C29.0769 1.74682 29.0544 2.06789 29.0544 2.28889C29.0544 2.5099 29.0544 5.56305 29.0544 5.7832C29.0544 6.0042 28.8972 6.36572 28.8972 6.36572L27.7964 5.32118C27.7964 5.32118 27.9202 5.18406 27.9202 4.63049C27.9202 4.0765 27.9202 1.26479 27.9202 1.10426C27.9202 0.802773 28.0432 0.602635 28.0432 0.602635Z" fill="url(#paint3_linear_552_2)"/>
</g>
<mask id="mask4_552_2" style="mask-type:luminance" maskUnits="userSpaceOnUse" x="59" y="0" width="3" height="7">
<path d="M61.1059 0.602724L60.0169 1.63918C60.0169 1.63918 59.9878 2.04967 59.9878 2.27025C59.9878 2.49168 60.0169 5.46988 60.0169 5.69046C60.0169 5.91103 60.3775 6.31982 60.3775 6.31982L61.6943 5.27868C61.6943 5.27868 61.3813 5.18415 61.3813 4.63058C61.3813 4.07659 61.3813 1.26488 61.3813 1.10434C61.3813 0.802862 61.1059 0.602724 61.1059 0.602724Z" fill="white"/>
</mask>
<g mask="url(#mask4_552_2)">
<path d="M61.1059 0.602724L60.0169 1.63918C60.0169 1.63918 59.9878 2.04967 59.9878 2.27025C59.9878 2.49168 60.0169 5.46988 60.0169 5.69046C60.0169 5.91103 60.3775 6.31982 60.3775 6.31982L61.6943 5.27868C61.6943 5.27868 61.3813 5.18415 61.3813 4.63058C61.3813 4.07659 61.3813 1.26488 61.3813 1.10434C61.3813 0.802862 61.1059 0.602724 61.1059 0.602724Z" fill="url(#paint4_linear_552_2)"/>
</g>
<mask id="mask5_552_2" style="mask-type:luminance" maskUnits="userSpaceOnUse" x="9" y="5" width="20" height="3">
<path d="M9.2749 6.4706L10.1773 7.55518C10.1773 7.55518 10.5383 7.15831 11.3346 7.15831C12.1305 7.15831 26.782 7.15831 27.3401 7.15831C27.8978 7.15831 28.3165 6.9322 28.3165 6.9322L27.2703 5.8093C27.2703 5.8093 26.7574 6.02349 26.3703 6.02349C25.9568 6.02349 11.7723 6.03797 11.0166 6.03797C9.9199 6.03797 9.2749 6.4706 9.2749 6.4706Z" fill="white"/>
</mask>
<g mask="url(#mask5_552_2)">
<path d="M9.2749 6.4706L10.1773 7.55518C10.1773 7.55518 10.5383 7.15831 11.3346 7.15831C12.1305 7.15831 26.782 7.15831 27.3401 7.15831C27.8978 7.15831 28.3165 6.9322 28.3165 6.9322L27.2703 5.8093C27.2703 5.8093 26.7574 6.02349 26.3703 6.02349C25.9568 6.02349 11.7723 6.03797 11.0166 6.03797C9.9199 6.03797 9.2749 6.4706 9.2749 6.4706Z" fill="url(#paint5_linear_552_2)"/>
</g>
<mask id="mask6_552_2" style="mask-type:luminance" maskUnits="userSpaceOnUse" x="0" y="20" width="3" height="4">
<path d="M2.66697 20.6895C2.66697 20.6895 2.08247 20.7747 1.66991 21.8251L0.0343006 22.8502C0.0343006 22.8502 -0.0952234 23.2744 0.149118 23.6088C0.393832 23.9431 0.768069 23.9946 0.768069 23.9946L2.89679 22.6354C2.89679 22.6354 1.69182 22.5849 2.19319 21.7874C2.6945 20.9903 2.66697 20.6895 2.66697 20.6895Z" fill="white"/>
</mask>
<g mask="url(#mask6_552_2)">
<path d="M2.66697 20.6895C2.66697 20.6895 2.08247 20.7747 1.66991 21.8251L0.0343006 22.8502C0.0343006 22.8502 -0.0952234 23.2744 0.149118 23.6088C0.393832 23.9431 0.768069 23.9946 0.768069 23.9946L2.89679 22.6354C2.89679 22.6354 1.69182 22.5849 2.19319 21.7874C2.6945 20.9903 2.66697 20.6895 2.66697 20.6895Z" fill="url(#paint6_linear_552_2)"/>
</g>
<mask id="mask7_552_2" style="mask-type:luminance" maskUnits="userSpaceOnUse" x="0" y="7" width="10" height="16">
<path d="M1.7036 21.8253L9.61425 7.73949C9.61425 7.73949 7.46563 9.38572 6.16129 11.7861C4.85695 14.1865 0.475722 21.8944 0.322568 22.169C0.169224 22.4435 0.0151367 22.9229 0.0151367 22.9229L1.7036 21.8253Z" fill="white"/>
</mask>
<g mask="url(#mask7_552_2)">
<path d="M1.7036 21.8253L9.61425 7.73949C9.61425 7.73949 7.46563 9.38572 6.16129 11.7861C4.85695 14.1865 0.475722 21.8944 0.322568 22.169C0.169224 22.4435 0.0151367 22.9229 0.0151367 22.9229L1.7036 21.8253Z" fill="url(#paint7_linear_552_2)"/>
</g>
<mask id="mask8_552_2" style="mask-type:luminance" maskUnits="userSpaceOnUse" x="0" y="22" width="29" height="3">
<path d="M0.760742 24.0639L2.93025 22.67C2.93025 22.67 25.852 22.67 26.4438 22.67C27.0354 22.67 28.0986 23.095 28.0986 23.095L26.9859 24.2266C26.9859 24.2266 26.7233 24.1196 26.0993 24.1196C25.4752 24.1196 0.760742 24.0639 0.760742 24.0639Z" fill="white"/>
</mask>
<g mask="url(#mask8_552_2)">
<path d="M0.760742 24.0639L2.93025 22.67C2.93025 22.67 25.852 22.67 26.4438 22.67C27.0354 22.67 28.0986 23.095 28.0986 23.095L26.9859 24.2266C26.9859 24.2266 26.7233 24.1196 26.0993 24.1196C25.4752 24.1196 0.760742 24.0639 0.760742 24.0639Z" fill="url(#paint8_linear_552_2)"/>
</g>
<mask id="mask9_552_2" style="mask-type:luminance" maskUnits="userSpaceOnUse" x="27" y="23" width="3" height="7">
<path d="M27.6191 24.8435L28.7701 23.609C28.7701 23.609 29.1148 24.0789 29.1148 24.6383C29.1148 25.1975 29.1148 28.1367 29.1148 28.1367L28.0289 29.2803C28.0289 29.2803 27.8465 28.9168 27.8465 28.4998C27.8465 28.0826 27.8465 25.9053 27.8465 25.5784C27.8465 25.2521 27.6191 24.8435 27.6191 24.8435Z" fill="white"/>
</mask>
<g mask="url(#mask9_552_2)">
<path d="M27.6191 24.8435L28.7701 23.609C28.7701 23.609 29.1148 24.0789 29.1148 24.6383C29.1148 25.1975 29.1148 28.1367 29.1148 28.1367L28.0289 29.2803C28.0289 29.2803 27.8465 28.9168 27.8465 28.4998C27.8465 28.0826 27.8465 25.9053 27.8465 25.5784C27.8465 25.2521 27.6191 24.8435 27.6191 24.8435Z" fill="url(#paint9_linear_552_2)"/>
</g>
<mask id="mask10_552_2" style="mask-type:luminance" maskUnits="userSpaceOnUse" x="59" y="23" width="3" height="7">
<path d="M61.2009 24.8821L59.7112 23.5506C59.7112 23.5506 59.3491 23.7169 59.3491 24.2763C59.3491 24.8355 59.3491 27.7747 59.3491 27.7747L61.0537 29.1079C61.0537 29.1079 61.0956 28.7524 61.0956 28.3353C61.0956 27.9177 61.0956 25.7407 61.0956 25.414C61.0956 25.0872 61.2009 24.8821 61.2009 24.8821Z" fill="white"/>
</mask>
<g mask="url(#mask10_552_2)">
<path d="M61.2009 24.8821L59.7112 23.5506C59.7112 23.5506 59.3491 23.7169 59.3491 24.2763C59.3491 24.8355 59.3491 27.7747 59.3491 27.7747L61.0537 29.1079C61.0537 29.1079 61.0956 28.7524 61.0956 28.3353C61.0956 27.9177 61.0956 25.7407 61.0956 25.414C61.0956 25.0872 61.2009 24.8821 61.2009 24.8821Z" fill="url(#paint10_linear_552_2)"/>
</g>
<mask id="mask11_552_2" style="mask-type:luminance" maskUnits="userSpaceOnUse" x="44" y="28" width="17" height="2">
<path d="M60.7053 29.6093L59.026 28.1834C59.026 28.1834 58.914 28.3584 58.0751 28.3584C57.2357 28.3584 44.6768 28.3584 44.6768 28.3584V29.9844C44.6768 29.9844 58.9984 29.9844 59.5024 29.9844C60.0059 29.9844 60.5933 29.6846 60.7053 29.6093Z" fill="white"/>
</mask>
<g mask="url(#mask11_552_2)">
<path d="M60.7053 29.6093L59.026 28.1834C59.026 28.1834 58.914 28.3584 58.0751 28.3584C57.2357 28.3584 44.6768 28.3584 44.6768 28.3584V29.9844C44.6768 29.9844 58.9984 29.9844 59.5024 29.9844C60.0059 29.9844 60.5933 29.6846 60.7053 29.6093Z" fill="url(#paint11_linear_552_2)"/>
</g>
<mask id="mask12_552_2" style="mask-type:luminance" maskUnits="userSpaceOnUse" x="28" y="28" width="17" height="2">
<path d="M44.6768 29.9845V28.3586C44.6768 28.3586 30.6257 28.3586 30.3668 28.3586C30.108 28.3586 29.9351 28.3153 29.9351 28.3153L28.5396 29.7816C28.5396 29.7816 28.8848 30 29.8488 30C30.8129 30 44.6768 29.9845 44.6768 29.9845Z" fill="white"/>
</mask>
<g mask="url(#mask12_552_2)">
<path d="M44.6768 29.9845V28.3586C44.6768 28.3586 30.6257 28.3586 30.3668 28.3586C30.108 28.3586 29.9351 28.3153 29.9351 28.3153L28.5396 29.7816C28.5396 29.7816 28.8848 30 29.8488 30C30.8129 30 44.6768 29.9845 44.6768 29.9845Z" fill="url(#paint12_linear_552_2)"/>
</g>
<mask id="mask13_552_2" style="mask-type:luminance" maskUnits="userSpaceOnUse" x="4" y="2" width="41" height="25">
<path d="M32.3878 2.65819C31.6121 2.65819 30.8373 3.04313 30.8373 3.81302C30.8373 4.58291 30.8373 6.81593 30.8373 7.58624C30.8373 8.3557 30.3203 8.664 29.7173 8.664C29.206 8.664 16.4389 8.664 12.5609 8.664C11.864 8.664 11.3245 8.92375 11.015 9.44794C10.761 9.87887 6.47636 17.554 5.09218 20.0349C4.79147 20.5739 5.05406 20.9002 5.82431 20.9002C10.6858 20.9002 28.9116 20.9002 29.804 20.9002C30.8376 20.9002 31.01 21.7472 31.01 22.5944C31.01 23.4415 31.01 24.9884 31.01 25.5277C31.01 26.0667 31.6127 26.6826 32.302 26.6826C32.6483 26.6826 38.5207 26.6826 44.3656 26.6826V2.65819C38.5568 2.65819 32.7737 2.65819 32.3878 2.65819Z" fill="white"/>
</mask>
<g mask="url(#mask13_552_2)">
<path d="M32.3878 2.65819C31.6121 2.65819 30.8373 3.04313 30.8373 3.81302C30.8373 4.58291 30.8373 6.81593 30.8373 7.58624C30.8373 8.3557 30.3203 8.664 29.7173 8.664C29.206 8.664 16.4389 8.664 12.5609 8.664C11.864 8.664 11.3245 8.92375 11.015 9.44794C10.761 9.87887 6.47636 17.554 5.09218 20.0349C4.79147 20.5739 5.05406 20.9002 5.82431 20.9002C10.6858 20.9002 28.9116 20.9002 29.804 20.9002C30.8376 20.9002 31.01 21.7472 31.01 22.5944C31.01 23.4415 31.01 24.9884 31.01 25.5277C31.01 26.0667 31.6127 26.6826 32.302 26.6826C32.6483 26.6826 38.5207 26.6826 44.3656 26.6826V2.65819C38.5568 2.65819 32.7737 2.65819 32.3878 2.65819Z" fill="url(#paint13_linear_552_2)"/>
</g>
<mask id="mask14_552_2" style="mask-type:luminance" maskUnits="userSpaceOnUse" x="60" y="22" width="20" height="3">
<path d="M60.4785 22.9919L61.8596 24.2607C61.8596 24.2607 62.2055 24.0892 63.8167 24.0892C65.4279 24.0892 78.2421 24.0892 78.5489 24.0892C78.8552 24.0892 79.2778 23.9522 79.2778 23.9522L71.4891 22.5461C71.4891 22.5461 62.4732 22.5528 62.0516 22.5461C61.1112 22.5308 60.4785 22.9919 60.4785 22.9919Z" fill="white"/>
</mask>
<g mask="url(#mask14_552_2)">
<path d="M60.4785 22.9919L61.8596 24.2607C61.8596 24.2607 62.2055 24.0892 63.8167 24.0892C65.4279 24.0892 78.2421 24.0892 78.5489 24.0892C78.8552 24.0892 79.2778 23.9522 79.2778 23.9522L71.4891 22.5461C71.4891 22.5461 62.4732 22.5528 62.0516 22.5461C61.1112 22.5308 60.4785 22.9919 60.4785 22.9919Z" fill="url(#paint14_linear_552_2)"/>
</g>
<mask id="mask15_552_2" style="mask-type:luminance" maskUnits="userSpaceOnUse" x="60" y="5" width="29" height="3">
<path d="M60.9971 6.77951L62.2629 5.75073C62.2629 5.75073 62.5139 5.87506 63.1161 5.87506C63.7178 5.87506 86.6046 5.87506 87.2058 5.87506C87.8075 5.87506 88.4097 6.02879 88.4097 6.02879L86.5351 7.02734C86.5351 7.02734 86.1225 6.98135 85.4174 6.98135C84.7124 6.98135 62.7717 6.98135 62.2209 6.98135C61.6707 6.98135 60.9971 6.77951 60.9971 6.77951Z" fill="white"/>
</mask>
<g mask="url(#mask15_552_2)">
<path d="M60.9971 6.77951L62.2629 5.75073C62.2629 5.75073 62.5139 5.87506 63.1161 5.87506C63.7178 5.87506 86.6046 5.87506 87.2058 5.87506C87.8075 5.87506 88.4097 6.02879 88.4097 6.02879L86.5351 7.02734C86.5351 7.02734 86.1225 6.98135 85.4174 6.98135C84.7124 6.98135 62.7717 6.98135 62.2209 6.98135C61.6707 6.98135 60.9971 6.77951 60.9971 6.77951Z" fill="url(#paint15_linear_552_2)"/>
</g>
<mask id="mask16_552_2" style="mask-type:luminance" maskUnits="userSpaceOnUse" x="78" y="6" width="11" height="18">
<path d="M87.2188 7.56726L88.9047 6.33067C88.9047 6.33067 89.1391 6.53081 88.8728 7.0814C88.606 7.63241 79.9798 23.3219 79.8131 23.5156C79.6459 23.7094 79.3629 23.9023 79.3629 23.9023L78.564 22.4735C78.564 22.4735 79.2795 22.2651 79.5963 21.6997C79.9127 21.1337 86.9239 8.80853 87.124 8.45127C87.324 8.094 87.2188 7.56726 87.2188 7.56726Z" fill="white"/>
</mask>
<g mask="url(#mask16_552_2)">
<path d="M87.2188 7.56726L88.9047 6.33067C88.9047 6.33067 89.1391 6.53081 88.8728 7.0814C88.606 7.63241 79.9798 23.3219 79.8131 23.5156C79.6459 23.7094 79.3629 23.9023 79.3629 23.9023L78.564 22.4735C78.564 22.4735 79.2795 22.2651 79.5963 21.6997C79.9127 21.1337 86.9239 8.80853 87.124 8.45127C87.324 8.094 87.2188 7.56726 87.2188 7.56726Z" fill="url(#paint16_linear_552_2)"/>
</g>
<mask id="mask17_552_2" style="mask-type:luminance" maskUnits="userSpaceOnUse" x="71" y="21" width="9" height="3">
<path d="M71.7202 22.6148L79.0863 23.9521C79.0863 23.9521 79.5465 23.7813 79.7766 23.4377C80.0067 23.0947 79.7762 22.992 79.508 23.1975C79.2393 23.4033 78.7791 23.0611 79.0092 22.8206C79.2393 22.5804 79.4694 21.8261 79.4694 21.8261C79.4694 21.8261 78.741 22.5804 77.8201 22.5804C76.8992 22.5804 71.7202 22.6148 71.7202 22.6148Z" fill="white"/>
</mask>
<g mask="url(#mask17_552_2)">
<path d="M71.7202 22.6148L79.0863 23.9521C79.0863 23.9521 79.5465 23.7813 79.7766 23.4377C80.0067 23.0947 79.7762 22.992 79.508 23.1975C79.2393 23.4033 78.7791 23.0611 79.0092 22.8206C79.2393 22.5804 79.4694 21.8261 79.4694 21.8261C79.4694 21.8261 78.741 22.5804 77.8201 22.5804C76.8992 22.5804 71.7202 22.6148 71.7202 22.6148Z" fill="url(#paint17_linear_552_2)"/>
</g>
<mask id="mask18_552_2" style="mask-type:luminance" maskUnits="userSpaceOnUse" x="2" y="21" width="29" height="2">
<path d="M30.148 21.1841L28.2716 22.957C28.2716 22.957 28.6465 22.6215 25.9666 22.6215C23.2866 22.6215 2.93018 22.6215 2.93018 22.6215C2.93018 22.6215 4.47062 21.8073 9.29514 21.5195C14.1198 21.2318 19.8022 21.0884 22.6968 21.1362C25.5912 21.1841 30.148 21.1841 30.148 21.1841Z" fill="white"/>
</mask>
<g mask="url(#mask18_552_2)">
<path d="M30.148 21.1841L28.2716 22.957C28.2716 22.957 28.6465 22.6215 25.9666 22.6215C23.2866 22.6215 2.93018 22.6215 2.93018 22.6215C2.93018 22.6215 4.47062 21.8073 9.29514 21.5195C14.1198 21.2318 19.8022 21.0884 22.6968 21.1362C25.5912 21.1841 30.148 21.1841 30.148 21.1841Z" fill="url(#paint18_linear_552_2)"/>
</g>
<mask id="mask19_552_2" style="mask-type:luminance" maskUnits="userSpaceOnUse" x="58" y="21" width="21" height="2">
<path d="M58.353 21.1839L60.503 22.9937C60.503 22.9937 60.7246 22.5706 62.6225 22.5706C64.5205 22.5706 78.2037 22.5282 78.2037 22.5282C78.2037 22.5282 78.4338 21.8596 74.4054 21.6026C70.9824 21.3838 65.6801 21.0882 63.6297 21.136C61.5797 21.1839 58.353 21.1839 58.353 21.1839Z" fill="white"/>
</mask>
<g mask="url(#mask19_552_2)">
<path d="M58.353 21.1839L60.503 22.9937C60.503 22.9937 60.7246 22.5706 62.6225 22.5706C64.5205 22.5706 78.2037 22.5282 78.2037 22.5282C78.2037 22.5282 78.4338 21.8596 74.4054 21.6026C70.9824 21.3838 65.6801 21.0882 63.6297 21.136C61.5797 21.1839 58.353 21.1839 58.353 21.1839Z" fill="url(#paint19_linear_552_2)"/>
</g>
<mask id="mask20_552_2" style="mask-type:luminance" maskUnits="userSpaceOnUse" x="58" y="6" width="29" height="3">
<path d="M58.7554 8.85351L61.1774 6.82318C61.1774 6.82318 60.912 7.15873 62.8096 7.15873C64.708 7.15873 86.4334 7.05611 86.4334 7.05611C86.4334 7.05611 85.3424 7.87028 81.9257 8.15814C78.5089 8.44557 66.0824 8.94932 64.0325 8.90163C61.9825 8.85351 58.7554 8.85351 58.7554 8.85351Z" fill="white"/>
</mask>
<g mask="url(#mask20_552_2)">
<path d="M58.7554 8.85351L61.1774 6.82318C61.1774 6.82318 60.912 7.15873 62.8096 7.15873C64.708 7.15873 86.4334 7.05611 86.4334 7.05611C86.4334 7.05611 85.3424 7.87028 81.9257 8.15814C78.5089 8.44557 66.0824 8.94932 64.0325 8.90163C61.9825 8.85351 58.7554 8.85351 58.7554 8.85351Z" fill="url(#paint20_linear_552_2)"/>
</g>
<mask id="mask21_552_2" style="mask-type:luminance" maskUnits="userSpaceOnUse" x="28" y="21" width="4" height="8">
<path d="M28.8848 23.6602L30.8415 21.5511C30.8415 21.5511 31.0098 22.0423 31.0098 22.6456C31.0098 23.2486 31.0098 24.7916 31.0098 25.2546C31.0098 25.7178 31.302 26.3349 31.302 26.3349L29.3454 28.084C29.3454 28.084 29.1152 27.7751 29.1152 27.158C29.1152 26.5408 29.1152 25.3577 29.1152 24.8432C29.1152 24.3289 28.8848 23.6602 28.8848 23.6602Z" fill="white"/>
</mask>
<g mask="url(#mask21_552_2)">
<path d="M28.8848 23.6602L30.8415 21.5511C30.8415 21.5511 31.0098 22.0423 31.0098 22.6456C31.0098 23.2486 31.0098 24.7916 31.0098 25.2546C31.0098 25.7178 31.302 26.3349 31.302 26.3349L29.3454 28.084C29.3454 28.084 29.1152 27.7751 29.1152 27.158C29.1152 26.5408 29.1152 25.3577 29.1152 24.8432C29.1152 24.3289 28.8848 23.6602 28.8848 23.6602Z" fill="url(#paint21_linear_552_2)"/>
</g>
<mask id="mask22_552_2" style="mask-type:luminance" maskUnits="userSpaceOnUse" x="57" y="21" width="3" height="8">
<path d="M59.846 23.6602L57.7512 21.502C57.7512 21.502 57.5935 22.0276 57.5935 22.6311C57.5935 23.2339 57.5478 24.8492 57.5478 25.3125C57.5478 25.7752 57.4287 26.3349 57.4287 26.3349L59.3853 28.084C59.3853 28.084 59.6159 27.7751 59.6159 27.158C59.6159 26.5408 59.6159 25.3577 59.6159 24.8432C59.6159 24.3289 59.846 23.6602 59.846 23.6602Z" fill="white"/>
</mask>
<g mask="url(#mask22_552_2)">
<path d="M59.846 23.6602L57.7512 21.502C57.7512 21.502 57.5935 22.0276 57.5935 22.6311C57.5935 23.2339 57.5478 24.8492 57.5478 25.3125C57.5478 25.7752 57.4287 26.3349 57.4287 26.3349L59.3853 28.084C59.3853 28.084 59.6159 27.7751 59.6159 27.158C59.6159 26.5408 59.6159 25.3577 59.6159 24.8432C59.6159 24.3289 59.846 23.6602 59.846 23.6602Z" fill="url(#paint22_linear_552_2)"/>
</g>
<mask id="mask23_552_2" style="mask-type:luminance" maskUnits="userSpaceOnUse" x="29" y="26" width="16" height="3">
<path d="M31.8776 26.6435L29.9785 28.2894L44.2503 28.3926L44.308 28.3917V26.6823L31.8776 26.6435Z" fill="white"/>
</mask>
<g mask="url(#mask23_552_2)">
<path d="M31.8776 26.6435L29.9785 28.2894L44.2503 28.3926L44.308 28.3917V26.6823L31.8776 26.6435Z" fill="url(#paint23_linear_552_2)"/>
</g>
<mask id="mask24_552_2" style="mask-type:luminance" maskUnits="userSpaceOnUse" x="44" y="26" width="15" height="3">
<path d="M56.6233 26.6434L44.3656 26.6822H44.3081V28.3916L58.9829 28.2383L56.6233 26.6434Z" fill="white"/>
</mask>
<g mask="url(#mask24_552_2)">
<path d="M56.6233 26.6434L44.3656 26.6822H44.3081V28.3916L58.9829 28.2383L56.6233 26.6434Z" fill="url(#paint24_linear_552_2)"/>
</g>
<mask id="mask25_552_2" style="mask-type:luminance" maskUnits="userSpaceOnUse" x="29" y="1" width="16" height="3">
<path d="M29.396 1.34204L31.2873 3.00488C31.2873 3.00488 31.4739 2.64506 32.8069 2.64506C34.1399 2.64506 44.3656 2.64506 44.3656 2.64506V1.14786C44.3656 1.14786 30.5743 1.14786 30.1714 1.14786C29.7685 1.14786 29.396 1.34204 29.396 1.34204Z" fill="white"/>
</mask>
<g mask="url(#mask25_552_2)">
<path d="M29.396 1.34204L31.2873 3.00488C31.2873 3.00488 31.4739 2.64506 32.8069 2.64506C34.1399 2.64506 44.3656 2.64506 44.3656 2.64506V1.14786C44.3656 1.14786 30.5743 1.14786 30.1714 1.14786C29.7685 1.14786 29.396 1.34204 29.396 1.34204Z" fill="url(#paint25_linear_552_2)"/>
</g>
<mask id="mask26_552_2" style="mask-type:luminance" maskUnits="userSpaceOnUse" x="44" y="1" width="16" height="3">
<path d="M59.4242 1.50024L57.5324 3.16309C57.5324 3.16309 57.2575 2.64528 55.924 2.64528C54.5911 2.64528 44.3657 2.64528 44.3657 2.64528V1.14809C44.3657 1.14809 58.1569 1.14809 58.56 1.14809C58.963 1.14809 59.4242 1.50024 59.4242 1.50024Z" fill="white"/>
</mask>
<g mask="url(#mask26_552_2)">
<path d="M59.4242 1.50024L57.5324 3.16309C57.5324 3.16309 57.2575 2.64528 55.924 2.64528C54.5911 2.64528 44.3657 2.64528 44.3657 2.64528V1.14809C44.3657 1.14809 58.1569 1.14809 58.56 1.14809C58.963 1.14809 59.4242 1.50024 59.4242 1.50024Z" fill="url(#paint26_linear_552_2)"/>
</g>
<mask id="mask27_552_2" style="mask-type:luminance" maskUnits="userSpaceOnUse" x="28" y="1" width="3" height="8">
<path d="M30.9118 3.49671L29.0598 1.6397C29.0598 1.6397 29.0349 2.13195 29.0349 2.60206C29.0349 3.07131 29.0349 5.2643 29.0349 5.62242C29.0349 5.98011 28.8594 6.40466 28.8594 6.40466L30.7118 8.28467C30.7118 8.28467 30.8366 8.12796 30.8366 7.34487C30.8366 6.56178 30.9118 3.49671 30.9118 3.49671Z" fill="white"/>
</mask>
<g mask="url(#mask27_552_2)">
<path d="M30.9118 3.49671L29.0598 1.6397C29.0598 1.6397 29.0349 2.13195 29.0349 2.60206C29.0349 3.07131 29.0349 5.2643 29.0349 5.62242C29.0349 5.98011 28.8594 6.40466 28.8594 6.40466L30.7118 8.28467C30.7118 8.28467 30.8366 8.12796 30.8366 7.34487C30.8366 6.56178 30.9118 3.49671 30.9118 3.49671Z" fill="url(#paint27_linear_552_2)"/>
</g>
<mask id="mask28_552_2" style="mask-type:luminance" maskUnits="userSpaceOnUse" x="57" y="1" width="4" height="8">
<path d="M57.6108 3.53418L59.9924 1.54559C59.9924 1.54559 59.9695 1.97993 59.9695 2.44961C59.9695 2.9193 59.9886 5.10334 59.9886 5.46146C59.9886 5.81915 60.2844 6.24497 60.2844 6.24497L58.0196 8.28467C58.0196 8.28467 57.6108 8.07261 57.6108 7.28952C57.6108 6.50643 57.6108 3.53418 57.6108 3.53418Z" fill="white"/>
</mask>
<g mask="url(#mask28_552_2)">
<path d="M57.6108 3.53418L59.9924 1.54559C59.9924 1.54559 59.9695 1.97993 59.9695 2.44961C59.9695 2.9193 59.9886 5.10334 59.9886 5.46146C59.9886 5.81915 60.2844 6.24497 60.2844 6.24497L58.0196 8.28467C58.0196 8.28467 57.6108 8.07261 57.6108 7.28952C57.6108 6.50643 57.6108 3.53418 57.6108 3.53418Z" fill="url(#paint28_linear_552_2)"/>
</g>
<mask id="mask29_552_2" style="mask-type:luminance" maskUnits="userSpaceOnUse" x="10" y="6" width="21" height="3">
<path d="M10.1821 7.55995L11.6209 8.89746C11.6209 8.89746 12.0236 8.63984 13.002 8.63984C13.9803 8.63984 29.0579 8.63984 29.5183 8.63984C29.9787 8.63984 30.4389 8.48569 30.4389 8.48569L28.5977 6.78836C28.5977 6.78836 28.1369 7.1997 27.504 7.1997C26.8711 7.1997 12.0813 7.1997 11.6209 7.1997C11.1604 7.1997 10.4121 7.35428 10.1821 7.55995Z" fill="white"/>
</mask>
<g mask="url(#mask29_552_2)">
<path d="M10.1821 7.55995L11.6209 8.89746C11.6209 8.89746 12.0236 8.63984 13.002 8.63984C13.9803 8.63984 29.0579 8.63984 29.5183 8.63984C29.9787 8.63984 30.4389 8.48569 30.4389 8.48569L28.5977 6.78836C28.5977 6.78836 28.1369 7.1997 27.504 7.1997C26.8711 7.1997 12.0813 7.1997 11.6209 7.1997C11.1604 7.1997 10.4121 7.35428 10.1821 7.55995Z" fill="url(#paint29_linear_552_2)"/>
</g>
<mask id="mask30_552_2" style="mask-type:luminance" maskUnits="userSpaceOnUse" x="76" y="9" width="10" height="13">
<path d="M76.9727 20.9561C76.9727 20.9561 77.8621 20.658 78.1398 21.602C78.1398 21.602 78.3618 21.9 78.9735 21.1055C79.5848 20.3104 85.3654 9.67982 85.3092 9.53078C85.254 9.38174 84.0868 9.18288 84.0868 9.18288L76.9727 20.9561Z" fill="white"/>
</mask>
<g mask="url(#mask30_552_2)">
<path d="M76.9727 20.9561C76.9727 20.9561 77.8621 20.658 78.1398 21.602C78.1398 21.602 78.3618 21.9 78.9735 21.1055C79.5848 20.3104 85.3654 9.67982 85.3092 9.53078C85.254 9.38174 84.0868 9.18288 84.0868 9.18288L76.9727 20.9561Z" fill="url(#paint30_linear_552_2)"/>
</g>
<mask id="mask31_552_2" style="mask-type:luminance" maskUnits="userSpaceOnUse" x="78" y="7" width="10" height="16">
<path d="M84.254 9.28235L87.0881 7.54329C87.0881 7.54329 87.4126 7.86606 86.9447 8.67385C86.4769 9.48078 79.6887 21.5028 79.47 21.8255C79.2518 22.1482 78.5291 22.4463 78.5291 22.4463C78.5291 22.4463 77.6964 21.85 78.6406 20.3601C79.5853 18.8702 84.0316 11.1202 84.4208 10.375C84.8095 9.63025 84.5318 9.43139 84.254 9.28235Z" fill="white"/>
</mask>
<g mask="url(#mask31_552_2)">
<path d="M84.254 9.28235L87.0881 7.54329C87.0881 7.54329 87.4126 7.86606 86.9447 8.67385C86.4769 9.48078 79.6887 21.5028 79.47 21.8255C79.2518 22.1482 78.5291 22.4463 78.5291 22.4463C78.5291 22.4463 77.6964 21.85 78.6406 20.3601C79.5853 18.8702 84.0316 11.1202 84.4208 10.375C84.8095 9.63025 84.5318 9.43139 84.254 9.28235Z" fill="url(#paint31_linear_552_2)"/>
</g>
<mask id="mask32_552_2" style="mask-type:luminance" maskUnits="userSpaceOnUse" x="44" y="2" width="41" height="25">
<path d="M57.5433 25.7581C57.5433 25.0653 57.5433 22.868 57.5433 22.1744C57.5433 21.4816 58.0593 20.9431 58.6629 20.9431C59.1807 20.9431 72.7644 20.9431 76.5923 20.9431C77.2221 20.9431 77.7871 20.6146 78.1148 20.0727C79.5798 17.6508 83.6154 10.6296 83.9203 10.0637C84.2933 9.37214 84.0627 8.97229 83.1985 8.97229C78.0839 8.97229 60.3227 8.97229 59.438 8.97229C58.4047 8.97229 57.6286 8.27948 57.6286 7.43252C57.6286 6.58471 57.6286 4.04425 57.6286 3.50515C57.6286 2.96564 57.2846 2.65819 56.5095 2.65819C56.1198 2.65819 50.2296 2.65819 44.3657 2.65819V26.6826C50.151 26.6826 55.9088 26.6826 56.2509 26.6826C56.9397 26.6826 57.5433 26.4517 57.5433 25.7581Z" fill="white"/>
</mask>
<g mask="url(#mask32_552_2)">
<path d="M57.5433 25.7581C57.5433 25.0653 57.5433 22.868 57.5433 22.1744C57.5433 21.4816 58.0593 20.9431 58.6629 20.9431C59.1807 20.9431 72.7644 20.9431 76.5923 20.9431C77.2221 20.9431 77.7871 20.6146 78.1148 20.0727C79.5798 17.6508 83.6154 10.6296 83.9203 10.0637C84.2933 9.37214 84.0627 8.97229 83.1985 8.97229C78.0839 8.97229 60.3227 8.97229 59.438 8.97229C58.4047 8.97229 57.6286 8.27948 57.6286 7.43252C57.6286 6.58471 57.6286 4.04425 57.6286 3.50515C57.6286 2.96564 57.2846 2.65819 56.5095 2.65819C56.1198 2.65819 50.2296 2.65819 44.3657 2.65819V26.6826C50.151 26.6826 55.9088 26.6826 56.2509 26.6826C56.9397 26.6826 57.5433 26.4517 57.5433 25.7581Z" fill="url(#paint32_linear_552_2)"/>
</g>
<mask id="mask33_552_2" style="mask-type:luminance" maskUnits="userSpaceOnUse" x="2" y="11" width="8" height="11">
<path d="M2.73633 21.9531L5.03644 20.7061C5.03644 20.7061 4.77295 20.6046 5.18737 19.8633C5.60203 19.1217 9.48599 12.0443 9.48599 12.0443L8.6188 11.8756L2.73633 21.9531Z" fill="white"/>
</mask>
<g mask="url(#mask33_552_2)">
<path d="M2.73633 21.9531L5.03644 20.7061C5.03644 20.7061 4.77295 20.6046 5.18737 19.8633C5.60203 19.1217 9.48599 12.0443 9.48599 12.0443L8.6188 11.8756L2.73633 21.9531Z" fill="url(#paint33_linear_552_2)"/>
</g>
<mask id="mask34_552_2" style="mask-type:luminance" maskUnits="userSpaceOnUse" x="2" y="7" width="9" height="16">
<path d="M9.92902 7.88048C9.92902 7.88048 10.8727 8.38337 10.2396 9.61826C9.6065 10.8523 3.449 21.4999 3.449 21.4999L2.06801 22.3232C2.06801 22.3232 1.95282 21.9631 2.52822 21.0371C3.1038 20.1113 9.92902 7.88048 9.92902 7.88048Z" fill="white"/>
</mask>
<g mask="url(#mask34_552_2)">
<path d="M9.92902 7.88048C9.92902 7.88048 10.8727 8.38337 10.2396 9.61826C9.6065 10.8523 3.449 21.4999 3.449 21.4999L2.06801 22.3232C2.06801 22.3232 1.95282 21.9631 2.52822 21.0371C3.1038 20.1113 9.92902 7.88048 9.92902 7.88048Z" fill="url(#paint34_linear_552_2)"/>
</g>
<path d="M3.45961 22.6663C3.369 22.7208 2.52691 22.8135 2.36241 22.6663C2.19772 22.5191 1.92246 22.4048 2.14227 22.241C2.36241 22.0775 5.06971 20.6387 5.06971 20.6387C5.06971 20.6387 4.74071 20.8022 7.52151 20.8022C10.3021 20.8022 29.1827 20.8022 29.768 20.8022C30.3536 20.8022 30.902 21.1618 30.9754 21.391C31.0487 21.6197 30.9026 21.7182 30.7195 21.6854C30.5365 21.6525 30.0613 21.5219 29.9511 21.358C29.8411 21.1947 30.0972 21.0636 28.4873 21.0636C26.8774 21.0636 14.5838 21.2275 11.8028 21.4562C9.02199 21.6849 5.36208 21.5219 3.45961 22.6663Z" fill="white"/>
<path d="M85.6296 7.09827C85.7201 7.04376 86.5624 6.95136 86.7268 7.09827C86.8911 7.2456 87.1665 7.36058 86.9464 7.52409C86.7268 7.68718 84.0194 9.12646 84.0194 9.12646C84.0194 9.12646 84.3486 8.96252 81.5678 8.96252C78.7871 8.96252 59.9063 8.96252 59.3208 8.96252C58.7358 8.96252 58.187 8.60355 58.1141 8.37403C58.0407 8.14537 58.187 8.04657 58.3694 8.07936C58.5528 8.11258 59.0278 8.24331 59.1383 8.40682C59.2479 8.56991 58.9921 8.70106 60.6018 8.70106C62.2121 8.70106 74.5056 8.53712 77.2864 8.30846C80.0671 8.07979 83.7273 8.24331 85.6296 7.09827Z" fill="white"/>
<path d="M10.6424 8.98994C10.6424 8.75872 10.7865 8.32097 10.6713 8.1928C10.5561 8.0642 10.9013 7.91005 11.1317 8.03865C11.3617 8.16683 11.8507 8.26987 11.9084 8.3725C11.9659 8.47555 11.8796 8.73274 11.563 8.83537C11.2467 8.93842 10.959 9.17007 10.4697 10.1214C9.98068 11.0731 7.18944 15.9082 7.18944 15.9082C7.18944 15.9082 7.59233 15.1369 7.41964 15.1111C7.24713 15.0853 6.84424 15.7282 6.84424 15.7282L10.6424 8.98994Z" fill="white"/>
<path d="M29.882 8.53525C29.6438 8.55654 29.5769 8.32319 29.7806 8.29295C29.984 8.26315 30.2548 8.24867 30.4923 7.41448C30.7297 6.58115 30.5605 4.05133 30.5263 3.59698C30.4923 3.1422 30.2554 2.59672 30.5942 2.35443C30.9331 2.11213 31.1708 2.6278 32.0519 2.6278C32.9331 2.6278 34.9332 2.56691 34.9332 2.56691C34.9332 2.56691 32.1199 2.74831 31.6451 2.80878C31.1702 2.86967 30.7634 3.20266 30.8311 3.80904C30.8991 4.41456 30.7299 7.53627 30.5942 7.86926C30.4584 8.20226 30.2211 8.50502 29.882 8.53525Z" fill="white"/>
<path d="M48.863 2.5863C48.4905 2.6012 56.0114 2.66465 56.4854 2.66465C56.9599 2.66465 57.5025 2.79325 57.604 3.21737C57.706 3.64191 57.6336 5.03223 57.6336 5.03223C57.6336 5.03223 57.867 3.24718 58.2062 2.91418C58.5449 2.58076 58.4434 2.09617 58.0028 2.18687C57.5626 2.278 54.072 2.37594 48.863 2.5863Z" fill="white"/>
<path d="M58.9063 21.1601C58.67 21.1297 58.3999 21.0999 58.3318 21.2812C58.2641 21.4625 58.6357 21.5831 58.2641 21.7644C57.892 21.9455 57.6162 22.0567 57.6162 21.9058C57.6162 21.7542 57.8077 20.978 58.518 20.978C59.2279 20.978 76.7585 20.9483 77.0291 20.9483C77.2997 20.9483 77.638 20.9784 77.7733 21.2205C77.9081 21.4625 78.0772 22.0666 78.1787 22.2479C78.2801 22.4293 78.1115 22.4297 77.8071 22.0666C77.5027 21.7037 76.7252 21.5531 76.1163 21.5831C75.5075 21.6133 58.9063 21.1601 58.9063 21.1601Z" fill="white"/>
<path d="M78.2463 21.6738C78.2463 21.6738 78.0777 21.342 77.9757 21.1298C77.8742 20.9182 77.5698 20.8278 77.5698 20.8278C77.5698 20.8278 77.9081 20.4649 78.3816 19.6795C78.8547 18.8938 81.0866 15.146 81.3234 14.6324C81.3234 14.6324 80.8155 16.0229 81.796 14.8743C81.796 14.8743 78.6179 20.2532 78.415 20.616C78.2125 20.9789 78.2463 21.6738 78.2463 21.6738Z" fill="white"/>
<path d="M31.221 25.9047C31.221 25.9047 31.261 26.3387 30.9782 26.5194C30.6957 26.6993 30.5747 27.0245 30.817 27.1692C31.0591 27.314 31.2216 27.2419 31.3829 27.025C31.5444 26.808 32.1107 26.627 32.4747 26.6993C32.4747 26.6993 31.221 26.8441 31.221 25.9047Z" fill="white"/>
<path d="M48.646 26.6795C48.646 26.6795 55.469 27.0002 55.873 27.0171C56.277 27.0338 56.56 27.0454 56.56 27.0454C56.56 27.0454 55.8363 26.9428 56.0498 26.7347L48.646 26.6795Z" fill="white"/>
<path d="M56.7327 26.627C56.7327 26.627 56.5307 26.9169 56.8542 27.0611C57.1781 27.2055 57.5016 27.3497 57.7036 27.1332C57.9051 26.9164 57.5416 26.3384 57.5821 25.9409C57.5821 25.9409 57.7436 26.5551 56.7327 26.627Z" fill="white"/>
</g>
<defs>
<linearGradient id="paint0_linear_552_2" x1="10.5326" y1="8.9066" x2="10.5034" y2="20.9812" gradientUnits="userSpaceOnUse">
<stop stop-color="#CBD7F1"/>
<stop offset="0.185393" stop-color="#93AFC7"/>
<stop offset="1" stop-color="#0E1D2D"/>
</linearGradient>
<linearGradient id="paint1_linear_552_2" x1="53.3021" y1="-7.67834" x2="60.6744" y2="0.569625" gradientUnits="userSpaceOnUse">
<stop stop-color="#E4EAF8"/>
<stop offset="0.898876" stop-color="#93A3C1"/>
<stop offset="0.955056" stop-color="#49617E"/>
<stop offset="1" stop-color="#E4EAF8"/>
</linearGradient>
<linearGradient id="paint2_linear_552_2" x1="27.5373" y1="-0.170945" x2="35.0796" y2="-8.60904" gradientUnits="userSpaceOnUse">
<stop stop-color="#E4EAF8"/>
<stop offset="0.039326" stop-color="#49617E"/>
<stop offset="0.089888" stop-color="#93A3C1"/>
<stop offset="1" stop-color="#E4EAF8"/>
</linearGradient>
<linearGradient id="paint3_linear_552_2" x1="24.6279" y1="2.28464" x2="27.1034" y2="-0.298059" gradientUnits="userSpaceOnUse">
<stop stop-color="#E4EAF8"/>
<stop offset="0.157303" stop-color="#CBD8F1"/>
<stop offset="0.837079" stop-color="#CBD7F1"/>
<stop offset="1" stop-color="#E4EAF8"/>
</linearGradient>
<linearGradient id="paint4_linear_552_2" x1="64.6961" y1="2.4014" x2="62.0749" y2="-0.333272" gradientUnits="userSpaceOnUse">
<stop stop-color="#E4EAF8"/>
<stop offset="0.157303" stop-color="#CBD8F1"/>
<stop offset="0.837079" stop-color="#CBD7F1"/>
<stop offset="1" stop-color="#E4EAF8"/>
</linearGradient>
<linearGradient id="paint5_linear_552_2" x1="8.65964" y1="5.81602" x2="16.9284" y2="-3.43487" gradientUnits="userSpaceOnUse">
<stop stop-color="#49617E"/>
<stop offset="0.129213" stop-color="#93A3C1"/>
<stop offset="1" stop-color="#E4EAF8"/>
</linearGradient>
<linearGradient id="paint6_linear_552_2" x1="-0.333486" y1="24.4996" x2="-1.28283" y2="22.9828" gradientUnits="userSpaceOnUse">
<stop stop-color="#0E1D2D"/>
<stop offset="0.106741" stop-color="white"/>
<stop offset="0.185393" stop-color="#93AFC7"/>
<stop offset="0.241573" stop-color="#0E1D2D"/>
<stop offset="0.533708" stop-color="#5E6D89"/>
<stop offset="0.758427" stop-color="#0E1D2D"/>
<stop offset="1" stop-color="#0E1D2D"/>
</linearGradient>
<linearGradient id="paint7_linear_552_2" x1="12.9237" y1="18.0066" x2="4.75273" y2="22.6588" gradientUnits="userSpaceOnUse">
<stop stop-color="#93AFC7"/>
<stop offset="1" stop-color="#0E1D2D"/>
</linearGradient>
<linearGradient id="paint8_linear_552_2" x1="0.434812" y1="27.3154" x2="-0.0948246" y2="23.9549" gradientUnits="userSpaceOnUse">
<stop stop-color="#A9BBCB"/>
<stop offset="1" stop-color="#0E1D2D"/>
</linearGradient>
<linearGradient id="paint9_linear_552_2" x1="27.8951" y1="22.7573" x2="28.424" y2="22.7573" gradientUnits="userSpaceOnUse">
<stop stop-color="#5E6D89"/>
<stop offset="1" stop-color="#93AFC7"/>
</linearGradient>
<linearGradient id="paint10_linear_552_2" x1="60.8593" y1="22.6989" x2="60.4329" y2="22.6989" gradientUnits="userSpaceOnUse">
<stop stop-color="#5E6D89"/>
<stop offset="1" stop-color="#93AFC7"/>
</linearGradient>
<linearGradient id="paint11_linear_552_2" x1="43.5439" y1="28.4091" x2="46.6635" y2="22.3641" gradientUnits="userSpaceOnUse">
<stop stop-color="#A9BBCB"/>
<stop offset="0.235955" stop-color="#A9BBCB"/>
<stop offset="1" stop-color="#0E1D2D"/>
</linearGradient>
<linearGradient id="paint12_linear_552_2" x1="42.2792" y1="22.9435" x2="45.2461" y2="28.6927" gradientUnits="userSpaceOnUse">
<stop stop-color="#0E1D2D"/>
<stop offset="0.775281" stop-color="#A9BBCB"/>
<stop offset="1" stop-color="#A9BBCB"/>
</linearGradient>
<linearGradient id="paint13_linear_552_2" x1="40.1426" y1="-5.58319" x2="54.1799" y2="21.6181" gradientUnits="userSpaceOnUse">
<stop stop-color="#FEF0C8"/>
<stop offset="0.460674" stop-color="#FDE193"/>
<stop offset="1" stop-color="#B98B5D"/>
</linearGradient>
<linearGradient id="paint14_linear_552_2" x1="60.5315" y1="21.6639" x2="64.6163" y2="16.5698" gradientUnits="userSpaceOnUse">
<stop stop-color="#5E6D89"/>
<stop offset="0.606741" stop-color="#93AFC7"/>
<stop offset="1" stop-color="#CCE3F6"/>
</linearGradient>
<linearGradient id="paint15_linear_552_2" x1="82.6873" y1="-4.53335" x2="87.885" y2="5.53873" gradientUnits="userSpaceOnUse">
<stop stop-color="#E4EAF8"/>
<stop offset="0.814607" stop-color="#8193B2"/>
<stop offset="0.904494" stop-color="#49617E"/>
<stop offset="1" stop-color="#0E1D2D"/>
</linearGradient>
<linearGradient id="paint16_linear_552_2" x1="76.7181" y1="22.1208" x2="85.1895" y2="5.70521" gradientUnits="userSpaceOnUse">
<stop stop-color="#8D9DB1"/>
<stop offset="0.140449" stop-color="#E4EAF8"/>
<stop offset="0.814607" stop-color="#8193B2"/>
<stop offset="0.904494" stop-color="#49617E"/>
<stop offset="1" stop-color="#0E1D2D"/>
</linearGradient>
<linearGradient id="paint17_linear_552_2" x1="73.3471" y1="20.7918" x2="76.3422" y2="18.8571" gradientUnits="userSpaceOnUse">
<stop stop-color="#0E1D2D"/>
<stop offset="0.730337" stop-color="#0E1D2D"/>
<stop offset="0.814607" stop-color="#A9BBCB"/>
<stop offset="1" stop-color="#0E1D2D"/>
</linearGradient>
<linearGradient id="paint18_linear_552_2" x1="18.3012" y1="9.39061" x2="28.7221" y2="21.0493" gradientUnits="userSpaceOnUse">
<stop stop-color="#D1B965"/>
<stop offset="0.331461" stop-color="#77532B"/>
<stop offset="0.466292" stop-color="#77532B"/>
<stop offset="1" stop-color="#D1B965"/>
</linearGradient>
<linearGradient id="paint19_linear_552_2" x1="66.66" y1="12.5543" x2="59.217" y2="20.8814" gradientUnits="userSpaceOnUse">
<stop stop-color="#D1B965"/>
<stop offset="0.331461" stop-color="#77532B"/>
<stop offset="0.466292" stop-color="#77532B"/>
<stop offset="1" stop-color="#D1B965"/>
</linearGradient>
<linearGradient id="paint20_linear_552_2" x1="72.5982" y1="-4.72388" x2="60.5678" y2="8.73542" gradientUnits="userSpaceOnUse">
<stop stop-color="#D1B965"/>
<stop offset="0.331461" stop-color="#77532B"/>
<stop offset="0.466292" stop-color="#77532B"/>
<stop offset="1" stop-color="#D1B965"/>
</linearGradient>
<linearGradient id="paint21_linear_552_2" x1="30.1857" y1="20.6994" x2="31.0902" y2="20.6994" gradientUnits="userSpaceOnUse">
<stop stop-color="#D1BA79"/>
<stop offset="1" stop-color="#77532B"/>
</linearGradient>
<linearGradient id="paint22_linear_552_2" x1="58.5449" y1="20.6503" x2="57.6404" y2="20.6503" gradientUnits="userSpaceOnUse">
<stop stop-color="#D1BA79"/>
<stop offset="1" stop-color="#77532B"/>
</linearGradient>
<linearGradient id="paint23_linear_552_2" x1="42.4326" y1="22.0757" x2="44.8879" y2="26.8335" gradientUnits="userSpaceOnUse">
<stop stop-color="#77532B"/>
<stop offset="0.646067" stop-color="#D1BA79"/>
<stop offset="1" stop-color="#FDE294"/>
</linearGradient>
<linearGradient id="paint24_linear_552_2" x1="59.6165" y1="28.9609" x2="56.9342" y2="34.1586" gradientUnits="userSpaceOnUse">
<stop stop-color="#77532B"/>
<stop offset="0.455056" stop-color="#D1BA79"/>
<stop offset="1" stop-color="#FDE294"/>
</linearGradient>
<linearGradient id="paint25_linear_552_2" x1="28.7222" y1="0.739925" x2="35.467" y2="-6.80596" gradientUnits="userSpaceOnUse">
<stop stop-color="#D1B965"/>
<stop offset="0.039326" stop-color="#77532B"/>
<stop offset="0.106741" stop-color="#CFA662"/>
<stop offset="1" stop-color="#D1B966"/>
</linearGradient>
<linearGradient id="paint26_linear_552_2" x1="60.0978" y1="0.897704" x2="53.2351" y2="-6.78012" gradientUnits="userSpaceOnUse">
<stop stop-color="#D1B965"/>
<stop offset="0.039326" stop-color="#77532B"/>
<stop offset="0.106741" stop-color="#CFA662"/>
<stop offset="1" stop-color="#D1B966"/>
</linearGradient>
<linearGradient id="paint27_linear_552_2" x1="25.5855" y1="3.37109" x2="28.114" y2="0.733196" gradientUnits="userSpaceOnUse">
<stop stop-color="#FDE17B"/>
<stop offset="0.157303" stop-color="#CFA662"/>
<stop offset="0.837079" stop-color="#CFA662"/>
<stop offset="1" stop-color="#FDE17B"/>
</linearGradient>
<linearGradient id="paint28_linear_552_2" x1="63.4206" y1="3.23909" x2="60.7861" y2="0.490611" gradientUnits="userSpaceOnUse">
<stop stop-color="#FDE17B"/>
<stop offset="0.157303" stop-color="#CFA662"/>
<stop offset="0.837079" stop-color="#CFA662"/>
<stop offset="1" stop-color="#FDE17B"/>
</linearGradient>
<linearGradient id="paint29_linear_552_2" x1="9.69296" y1="6.79262" x2="17.5283" y2="-1.9734" gradientUnits="userSpaceOnUse">
<stop stop-color="#77532B"/>
<stop offset="1" stop-color="#B99457"/>
</linearGradient>
<linearGradient id="paint30_linear_552_2" x1="85.3451" y1="8.25895" x2="88.6595" y2="11.9671" gradientUnits="userSpaceOnUse">
<stop stop-color="#77532B"/>
<stop offset="1" stop-color="#D1B965"/>
</linearGradient>
<linearGradient id="paint31_linear_552_2" x1="76.2395" y1="21.2327" x2="82.5681" y2="7.59467" gradientUnits="userSpaceOnUse">
<stop stop-color="#A4824D"/>
<stop offset="0.764045" stop-color="#77532B"/>
<stop offset="1" stop-color="#5D4021"/>
</linearGradient>
<linearGradient id="paint32_linear_552_2" x1="53.9389" y1="38.2051" x2="33.4298" y2="10.8602" gradientUnits="userSpaceOnUse">
<stop stop-color="#FEF0C8"/>
<stop offset="0.460674" stop-color="#FDE193"/>
<stop offset="1" stop-color="#B98B5D"/>
</linearGradient>
<linearGradient id="paint33_linear_552_2" x1="-0.436127" y1="18.7649" x2="6.79115" y2="10.6792" gradientUnits="userSpaceOnUse">
<stop stop-color="#77532B"/>
<stop offset="1" stop-color="#E7CD86"/>
</linearGradient>
<linearGradient id="paint34_linear_552_2" x1="-2.48906" y1="17.776" x2="7.24384" y2="6.88704" gradientUnits="userSpaceOnUse">
<stop stop-color="#77532B"/>
<stop offset="1" stop-color="#E2C97D"/>
</linearGradient>
<clipPath id="clip0_552_2">
<rect width="89" height="30" fill="white"/>
</clipPath>
</defs>
</svg>
