<svg width="79" height="45" viewBox="0 0 79 45" fill="none" xmlns="http://www.w3.org/2000/svg">
<g clip-path="url(#clip0_552_885)">
<path d="M0 0.000488281L1.57404 45.0004H9.22605L9.05821 26.3395H15.4746V20.5225H9.05821L9.08213 5.88018H17.4592L17.414 0.000488281H0Z" fill="#A70230"/>
<path d="M20.4385 0.000488281L21.4065 45.0004H29.308L29.4684 0.000488281H20.4385Z" fill="#A70230"/>
<path d="M57.48 0.000488281V5.67643H63.7214L63.5418 45.0004H71.1863L72.8099 5.66991H78.9999L78.9525 0.000488281H57.48Z" fill="#A70230"/>
<path d="M41.384 20.8272L41.4706 5.54212H45.8821C47.8822 8.94642 49.1674 13.4483 50.1749 20.8272H41.384ZM34.3349 44.999H35.1099H40.8127H41.6496L41.7311 26.3911H50.4958C51.1848 29.6756 51.3536 39.8138 51.3948 44.999H52.1194H57.8441H58.4906C59.1601 22.0255 57.0803 9.04002 51.3341 0H33.6655L34.3349 44.999Z" fill="#A70230"/>
</g>
<defs>
<clipPath id="clip0_552_885">
<rect width="79" height="45" fill="white"/>
</clipPath>
</defs>
</svg>
