<svg width="250" height="94" viewBox="0 0 250 94" fill="none" xmlns="http://www.w3.org/2000/svg">
<g clip-path="url(#clip0_335_715)">
<path d="M23.479 23.5174C24.6066 20.9414 25.5727 18.8467 32.6591 18.8467C39.7466 18.8467 71.3148 18.8467 73.5695 18.8467C75.8247 18.8467 78.079 17.7201 78.079 14.4987C78.079 11.2774 78.079 4.36406 78.079 3.06806C78.079 1.77473 79.3675 0.0013972 82.7498 0.0013972C86.1326 0.0013972 165.053 0.0013972 167.469 0.0013972C169.885 0.0013972 171.817 1.29073 171.817 4.35073C171.817 7.41073 171.817 10.9547 171.817 13.3707C171.817 15.7867 172.945 18.3641 176.489 18.3641C180.032 18.3641 242.041 18.3641 244.457 18.3641C246.873 18.3641 250.093 19.0067 248.645 22.0681C247.195 25.1281 225.129 69.8883 223.635 72.8779C223.059 74.0269 222.612 75.5566 218.147 75.5566C213.68 75.5566 178.34 75.5566 176.361 75.5566C174.384 75.5566 171.129 75.5566 171.129 79.3847C171.129 83.2129 171.129 88.5087 171.129 90.0383C171.129 91.5697 169.983 93.8665 166.345 93.8665C162.708 93.8665 85.1372 93.8665 82.5211 93.8665C79.9055 93.8665 77.9914 92.5254 77.9914 89.9107C77.9914 87.2962 77.9914 82.5733 77.9914 80.5321C77.9914 78.4915 76.9066 75.493 73.8451 75.493C70.7836 75.493 5.71231 75.493 3.47944 75.493C1.24715 75.493 -0.859102 73.7702 0.481004 70.4541C1.82163 67.1363 23.479 23.5174 23.479 23.5174Z" fill="#CBD8F1"/>
<mask id="mask0_335_715" style="mask-type:luminance" maskUnits="userSpaceOnUse" x="5" y="27" width="23" height="39">
<path d="M27.0396 27.2281L25.0838 27.2228L5.86035 65.476L7.81502 65.4812L27.0396 27.2281Z" fill="white"/>
</mask>
<g mask="url(#mask0_335_715)">
<path d="M27.0396 27.2281L25.0838 27.2228L5.86035 65.476L7.81502 65.4812L27.0396 27.2281Z" fill="url(#paint0_linear_335_715)"/>
</g>
<path d="M74.0101 70.8759C68.447 70.8759 21.6908 70.8759 8.20132 70.8759C5.90545 70.8759 5.10025 69.8273 5.99452 68.0445C10.9779 58.1331 27.3642 25.5387 27.7888 24.6747C28.2882 23.656 29.494 22.4134 31.7226 22.4134C33.9502 22.4134 72.018 22.4134 75.8841 22.4134C80.4653 22.4134 81.245 20.4107 81.245 16.7933C81.245 13.1747 81.245 7.46536 81.245 6.01869C81.245 4.57069 82.2065 3.60803 83.895 3.60803C85.5836 3.60803 162.608 3.60803 164.78 3.60803C166.949 3.60803 167.913 4.32935 167.913 5.77735C167.913 7.22268 167.913 10.5987 167.913 13.7334C167.913 16.8694 167.317 21.9307 174.309 21.9307C180.141 21.9307 226.059 21.9307 241.144 21.9307C244.147 21.9307 244.924 23.9547 243.336 27.16C237.423 39.0907 222.869 67.3811 222.416 68.3404C221.843 69.5592 220.063 70.6331 217.219 70.6331C205.685 70.6331 176.247 70.6331 173.348 70.6331C169.729 70.6331 166.115 73.0462 166.115 76.6634C166.115 78.9222 166.115 83.0669 166.115 85.856C166.115 87.5305 165.108 88.718 163.32 88.718C149.275 88.718 86.9918 88.718 84.8388 88.718C82.4117 88.718 81.485 87.343 81.485 85.5071C81.485 82.7284 81.485 78.8883 81.485 77.1467C81.485 74.2519 79.5565 70.8759 74.0101 70.8759Z" fill="#E7CE87"/>
<path d="M161.771 68.718L170.986 78.3284C170.986 78.3284 171.646 76.2216 174.146 75.6961L163.823 66.0669C163.823 66.0669 162.166 67.007 161.771 68.718Z" fill="white"/>
<path d="M74.2246 75.5645C74.2246 75.5645 77.9117 75.6973 77.9117 80.5686L86.4683 67.929L84.0986 66.2165L74.2246 75.5645Z" fill="white"/>
<path d="M165.175 27.7014L174.893 18.2281C174.893 18.2281 173.575 18.0641 172.257 15.9228L162.62 25.7254L165.175 27.7014Z" fill="white"/>
<path d="M160.972 8.34416L169.95 0.684164C169.95 0.684164 170.938 1.2615 171.35 2.1655L161.961 10.8162L160.972 8.34416Z" fill="white"/>
<path d="M78.1426 3.45749C78.1426 1.87482 79.616 0.000147172 82.028 0.000147172L88.8415 8.42549C88.8415 8.42549 86.8019 8.42549 86.4795 9.17616C86.1572 9.92816 85.8358 11.5388 85.8358 11.5388L78.1426 3.45749Z" fill="white"/>
<path d="M75.2012 18.6295C75.2012 18.6295 78.1141 18.1655 78.1141 15.0535L84.8657 22.9988L80.5625 26.1082L75.2012 18.6295Z" fill="white"/>
<mask id="mask1_335_715" style="mask-type:luminance" maskUnits="userSpaceOnUse" x="124" y="0" width="47" height="5">
<path d="M167.469 3.22965e-05C166.493 3.22965e-05 145.874 3.22965e-05 125.136 3.22965e-05L124.826 3.62404C144.062 3.62404 163.106 3.62404 163.741 3.62404C165.017 3.62404 165.734 3.94403 166.214 4.90137L170.522 1.07204C170.522 1.07204 169.442 3.22965e-05 167.469 3.22965e-05Z" fill="white"/>
</mask>
<g mask="url(#mask1_335_715)">
<path d="M167.469 3.22965e-05C166.493 3.22965e-05 145.874 3.22965e-05 125.136 3.22965e-05L124.826 3.62404C144.062 3.62404 163.106 3.62404 163.741 3.62404C165.017 3.62404 165.734 3.94403 166.214 4.90137L170.522 1.07204C170.522 1.07204 169.442 3.22965e-05 167.469 3.22965e-05Z" fill="url(#paint1_linear_335_715)"/>
</g>
<mask id="mask2_335_715" style="mask-type:luminance" maskUnits="userSpaceOnUse" x="79" y="0" width="47" height="5">
<path d="M82.0277 9.79151e-05C80.9902 9.79151e-05 79.7922 0.513425 79.1553 1.31076L81.9479 4.34277C81.9479 4.34277 82.5063 3.6241 84.7402 3.6241C85.8615 3.6241 105.441 3.6241 124.826 3.6241L125.136 9.79151e-05C103.906 9.79151e-05 82.5521 9.79151e-05 82.0277 9.79151e-05Z" fill="white"/>
</mask>
<g mask="url(#mask2_335_715)">
<path d="M82.0277 9.79151e-05C80.9902 9.79151e-05 79.7922 0.513425 79.1553 1.31076L81.9479 4.34277C81.9479 4.34277 82.5063 3.6241 84.7402 3.6241C85.8615 3.6241 105.441 3.6241 124.826 3.6241L125.136 9.79151e-05C103.906 9.79151e-05 82.5521 9.79151e-05 82.0277 9.79151e-05Z" fill="url(#paint2_linear_335_715)"/>
</g>
<mask id="mask3_335_715" style="mask-type:luminance" maskUnits="userSpaceOnUse" x="77" y="1" width="5" height="19">
<path d="M78.4866 1.8868L81.3798 5.46947C81.3798 5.46947 81.3168 6.4748 81.3168 7.1668C81.3168 7.8588 81.3168 17.4188 81.3168 18.1081C81.3168 18.8001 80.8767 19.9321 80.8767 19.9321L77.7959 16.6615C77.7959 16.6615 78.1423 16.2321 78.1423 14.4988C78.1423 12.7641 78.1423 3.96014 78.1423 3.45747C78.1423 2.51347 78.4866 1.8868 78.4866 1.8868Z" fill="white"/>
</mask>
<g mask="url(#mask3_335_715)">
<path d="M78.4866 1.8868L81.3798 5.46947C81.3798 5.46947 81.3168 6.4748 81.3168 7.1668C81.3168 7.8588 81.3168 17.4188 81.3168 18.1081C81.3168 18.8001 80.8767 19.9321 80.8767 19.9321L77.7959 16.6615C77.7959 16.6615 78.1423 16.2321 78.1423 14.4988C78.1423 12.7641 78.1423 3.96014 78.1423 3.45747C78.1423 2.51347 78.4866 1.8868 78.4866 1.8868Z" fill="url(#paint3_linear_335_715)"/>
</g>
<mask id="mask4_335_715" style="mask-type:luminance" maskUnits="userSpaceOnUse" x="167" y="1" width="6" height="19">
<path d="M171.021 1.88675L167.973 5.13208C167.973 5.13208 167.892 6.41742 167.892 7.10809C167.892 7.80142 167.973 17.1267 167.973 17.8174C167.973 18.5081 168.982 19.7881 168.982 19.7881L172.668 16.5281C172.668 16.5281 171.792 16.2321 171.792 14.4987C171.792 12.7641 171.792 3.96009 171.792 3.45742C171.792 2.51342 171.021 1.88675 171.021 1.88675Z" fill="white"/>
</mask>
<g mask="url(#mask4_335_715)">
<path d="M171.021 1.88675L167.973 5.13208C167.973 5.13208 167.892 6.41742 167.892 7.10809C167.892 7.80142 167.973 17.1267 167.973 17.8174C167.973 18.5081 168.982 19.7881 168.982 19.7881L172.668 16.5281C172.668 16.5281 171.792 16.2321 171.792 14.4987C171.792 12.7641 171.792 3.96009 171.792 3.45742C171.792 2.51342 171.021 1.88675 171.021 1.88675Z" fill="url(#paint4_linear_335_715)"/>
</g>
<mask id="mask5_335_715" style="mask-type:luminance" maskUnits="userSpaceOnUse" x="25" y="18" width="55" height="6">
<path d="M25.958 20.26L28.4836 23.656C28.4836 23.656 29.494 22.4133 31.7227 22.4133C33.9503 22.4133 74.956 22.4133 76.518 22.4133C78.0789 22.4133 79.2508 21.7053 79.2508 21.7053L76.3227 18.1893C76.3227 18.1893 74.8872 18.86 73.8039 18.86C72.6465 18.86 32.9476 18.9053 30.8325 18.9053C27.7632 18.9053 25.958 20.26 25.958 20.26Z" fill="white"/>
</mask>
<g mask="url(#mask5_335_715)">
<path d="M25.958 20.26L28.4836 23.656C28.4836 23.656 29.494 22.4133 31.7227 22.4133C33.9503 22.4133 74.956 22.4133 76.518 22.4133C78.0789 22.4133 79.2508 21.7053 79.2508 21.7053L76.3227 18.1893C76.3227 18.1893 74.8872 18.86 73.8039 18.86C72.6465 18.86 32.9476 18.9053 30.8325 18.9053C27.7632 18.9053 25.958 20.26 25.958 20.26Z" fill="url(#paint5_linear_335_715)"/>
</g>
<mask id="mask6_335_715" style="mask-type:luminance" maskUnits="userSpaceOnUse" x="0" y="64" width="9" height="12">
<path d="M7.4642 64.7831C7.4642 64.7831 5.82833 65.0498 4.67367 68.3389L0.0959991 71.5487C0.0959991 71.5487 -0.266507 72.8769 0.417346 73.9238C1.10224 74.9708 2.14964 75.1321 2.14964 75.1321L8.1074 70.876C8.1074 70.876 4.735 70.7181 6.1382 68.2208C7.54127 65.7249 7.4642 64.7831 7.4642 64.7831Z" fill="white"/>
</mask>
<g mask="url(#mask6_335_715)">
<path d="M7.4642 64.7831C7.4642 64.7831 5.82833 65.0498 4.67367 68.3389L0.0959991 71.5487C0.0959991 71.5487 -0.266507 72.8769 0.417346 73.9238C1.10224 74.9708 2.14964 75.1321 2.14964 75.1321L8.1074 70.876C8.1074 70.876 4.735 70.7181 6.1382 68.2208C7.54127 65.7249 7.4642 64.7831 7.4642 64.7831Z" fill="url(#paint6_linear_335_715)"/>
</g>
<mask id="mask7_335_715" style="mask-type:luminance" maskUnits="userSpaceOnUse" x="0" y="24" width="27" height="48">
<path d="M4.76758 68.3389L26.9076 24.2334C26.9076 24.2334 20.8941 29.3881 17.2436 36.9041C13.593 44.4201 1.33106 68.555 0.902419 69.415C0.473246 70.2743 0.0419922 71.7754 0.0419922 71.7754L4.76758 68.3389Z" fill="white"/>
</mask>
<g mask="url(#mask7_335_715)">
<path d="M4.76758 68.3389L26.9076 24.2334C26.9076 24.2334 20.8941 29.3881 17.2436 36.9041C13.593 44.4201 1.33106 68.555 0.902419 69.415C0.473246 70.2743 0.0419922 71.7754 0.0419922 71.7754L4.76758 68.3389Z" fill="url(#paint7_linear_335_715)"/>
</g>
<mask id="mask8_335_715" style="mask-type:luminance" maskUnits="userSpaceOnUse" x="2" y="70" width="77" height="6">
<path d="M2.12891 75.3483L8.20084 70.9837C8.20084 70.9837 72.3534 70.9837 74.0096 70.9837C75.6654 70.9837 78.6408 72.3145 78.6408 72.3145L75.5268 75.8577C75.5268 75.8577 74.7919 75.5227 73.0455 75.5227C71.2987 75.5227 2.12891 75.3483 2.12891 75.3483Z" fill="white"/>
</mask>
<g mask="url(#mask8_335_715)">
<path d="M2.12891 75.3483L8.20084 70.9837C8.20084 70.9837 72.3534 70.9837 74.0096 70.9837C75.6654 70.9837 78.6408 72.3145 78.6408 72.3145L75.5268 75.8577C75.5268 75.8577 74.7919 75.5227 73.0455 75.5227C71.2987 75.5227 2.12891 75.3483 2.12891 75.3483Z" fill="url(#paint8_linear_335_715)"/>
</g>
<mask id="mask9_335_715" style="mask-type:luminance" maskUnits="userSpaceOnUse" x="77" y="73" width="5" height="19">
<path d="M77.2988 77.7894L80.5202 73.9238C80.5202 73.9238 81.4847 75.3951 81.4847 77.1467C81.4847 78.8978 81.4847 88.1008 81.4847 88.1008L78.4456 91.6816C78.4456 91.6816 77.9352 90.5435 77.9352 89.2378C77.9352 87.9316 77.9352 81.1139 77.9352 80.0904C77.9352 79.0686 77.2988 77.7894 77.2988 77.7894Z" fill="white"/>
</mask>
<g mask="url(#mask9_335_715)">
<path d="M77.2988 77.7894L80.5202 73.9238C80.5202 73.9238 81.4847 75.3951 81.4847 77.1467C81.4847 78.8978 81.4847 88.1008 81.4847 88.1008L78.4456 91.6816C78.4456 91.6816 77.9352 90.5435 77.9352 89.2378C77.9352 87.9316 77.9352 81.1139 77.9352 80.0904C77.9352 79.0686 77.2988 77.7894 77.2988 77.7894Z" fill="url(#paint9_linear_335_715)"/>
</g>
<mask id="mask10_335_715" style="mask-type:luminance" maskUnits="userSpaceOnUse" x="166" y="73" width="6" height="19">
<path d="M171.286 77.9107L167.117 73.7415C167.117 73.7415 166.104 74.2623 166.104 76.0139C166.104 77.765 166.104 86.968 166.104 86.968L170.874 91.1426C170.874 91.1426 170.992 90.0295 170.992 88.7232C170.992 87.4159 170.992 80.5992 170.992 79.5763C170.992 78.553 171.286 77.9107 171.286 77.9107Z" fill="white"/>
</mask>
<g mask="url(#mask10_335_715)">
<path d="M171.286 77.9107L167.117 73.7415C167.117 73.7415 166.104 74.2623 166.104 76.0139C166.104 77.765 166.104 86.968 166.104 86.968L170.874 91.1426C170.874 91.1426 170.992 90.0295 170.992 88.7232C170.992 87.4159 170.992 80.5992 170.992 79.5763C170.992 78.553 171.286 77.9107 171.286 77.9107Z" fill="url(#paint10_linear_335_715)"/>
</g>
<mask id="mask11_335_715" style="mask-type:luminance" maskUnits="userSpaceOnUse" x="125" y="88" width="45" height="6">
<path d="M169.9 92.7129L165.2 88.2484C165.2 88.2484 164.887 88.7962 162.539 88.7962C160.189 88.7962 125.04 88.7962 125.04 88.7962V93.8875C125.04 93.8875 165.123 93.8875 166.533 93.8875C167.943 93.8875 169.587 92.9488 169.9 92.7129Z" fill="white"/>
</mask>
<g mask="url(#mask11_335_715)">
<path d="M169.9 92.7129L165.2 88.2484C165.2 88.2484 164.887 88.7962 162.539 88.7962C160.189 88.7962 125.04 88.7962 125.04 88.7962V93.8875C125.04 93.8875 165.123 93.8875 166.533 93.8875C167.943 93.8875 169.587 92.9488 169.9 92.7129Z" fill="url(#paint11_linear_335_715)"/>
</g>
<mask id="mask12_335_715" style="mask-type:luminance" maskUnits="userSpaceOnUse" x="79" y="88" width="47" height="6">
<path d="M125.04 93.8874V88.7962C125.04 88.7962 85.7145 88.7962 84.9901 88.7962C84.2656 88.7962 83.7817 88.6607 83.7817 88.6607L79.876 93.2519C79.876 93.2519 80.8421 93.9358 83.5401 93.9358C86.2385 93.9358 125.04 93.8874 125.04 93.8874Z" fill="white"/>
</mask>
<g mask="url(#mask12_335_715)">
<path d="M125.04 93.8874V88.7962C125.04 88.7962 85.7145 88.7962 84.9901 88.7962C84.2656 88.7962 83.7817 88.6607 83.7817 88.6607L79.876 93.2519C79.876 93.2519 80.8421 93.9358 83.5401 93.9358C86.2385 93.9358 125.04 93.8874 125.04 93.8874Z" fill="url(#paint12_linear_335_715)"/>
</g>
<mask id="mask13_335_715" style="mask-type:luminance" maskUnits="userSpaceOnUse" x="13" y="8" width="112" height="76">
<path d="M90.6459 8.32278C88.475 8.32278 86.3063 9.52812 86.3063 11.9388C86.3063 14.3494 86.3063 21.3414 86.3063 23.7534C86.3063 26.1628 84.8594 27.1281 83.1719 27.1281C81.7407 27.1281 46.0089 27.1281 35.1553 27.1281C33.2047 27.1281 31.6949 27.9414 30.8287 29.5828C30.1178 30.9321 18.1261 54.9645 14.2521 62.7326C13.4105 64.4202 14.1454 65.4421 16.3012 65.4421C29.9074 65.4421 80.9167 65.4421 83.4146 65.4421C86.3074 65.4421 86.7897 68.0941 86.7897 70.7468C86.7897 73.3993 86.7897 78.243 86.7897 79.9317C86.7897 81.6192 88.4766 83.5479 90.4058 83.5479C91.375 83.5479 107.81 83.5479 124.169 83.5479V8.32278C107.912 8.32278 91.7261 8.32278 90.6459 8.32278Z" fill="white"/>
</mask>
<g mask="url(#mask13_335_715)">
<path d="M90.6459 8.32278C88.475 8.32278 86.3063 9.52812 86.3063 11.9388C86.3063 14.3494 86.3063 21.3414 86.3063 23.7534C86.3063 26.1628 84.8594 27.1281 83.1719 27.1281C81.7407 27.1281 46.0089 27.1281 35.1553 27.1281C33.2047 27.1281 31.6949 27.9414 30.8287 29.5828C30.1178 30.9321 18.1261 54.9645 14.2521 62.7326C13.4105 64.4202 14.1454 65.4421 16.3012 65.4421C29.9074 65.4421 80.9167 65.4421 83.4146 65.4421C86.3074 65.4421 86.7897 68.0941 86.7897 70.7468C86.7897 73.3993 86.7897 78.243 86.7897 79.9317C86.7897 81.6192 88.4766 83.5479 90.4058 83.5479C91.375 83.5479 107.81 83.5479 124.169 83.5479V8.32278C107.912 8.32278 91.7261 8.32278 90.6459 8.32278Z" fill="url(#paint13_linear_335_715)"/>
</g>
<mask id="mask14_335_715" style="mask-type:luminance" maskUnits="userSpaceOnUse" x="169" y="70" width="53" height="6">
<path d="M169.266 71.9914L173.131 75.9644C173.131 75.9644 174.099 75.4273 178.608 75.4273C183.118 75.4273 218.982 75.4273 219.84 75.4273C220.698 75.4273 221.88 74.9982 221.88 74.9982L200.082 70.5955C200.082 70.5955 174.848 70.6163 173.668 70.5955C171.036 70.5477 169.266 71.9914 169.266 71.9914Z" fill="white"/>
</mask>
<g mask="url(#mask14_335_715)">
<path d="M169.266 71.9914L173.131 75.9644C173.131 75.9644 174.099 75.4273 178.608 75.4273C183.118 75.4273 218.982 75.4273 219.84 75.4273C220.698 75.4273 221.88 74.9982 221.88 74.9982L200.082 70.5955C200.082 70.5955 174.848 70.6163 173.668 70.5955C171.036 70.5477 169.266 71.9914 169.266 71.9914Z" fill="url(#paint14_linear_335_715)"/>
</g>
<mask id="mask15_335_715" style="mask-type:luminance" maskUnits="userSpaceOnUse" x="170" y="18" width="78" height="5">
<path d="M170.716 21.2281L174.258 18.0068C174.258 18.0068 174.961 18.3961 176.646 18.3961C178.33 18.3961 242.385 18.3961 244.068 18.3961C245.752 18.3961 247.437 18.8775 247.437 18.8775L242.19 22.0042C242.19 22.0042 241.036 21.8601 239.062 21.8601C237.089 21.8601 175.682 21.8601 174.141 21.8601C172.601 21.8601 170.716 21.2281 170.716 21.2281Z" fill="white"/>
</mask>
<g mask="url(#mask15_335_715)">
<path d="M170.716 21.2281L174.258 18.0068C174.258 18.0068 174.961 18.3961 176.646 18.3961C178.33 18.3961 242.385 18.3961 244.068 18.3961C245.752 18.3961 247.437 18.8775 247.437 18.8775L242.19 22.0042C242.19 22.0042 241.036 21.8601 239.062 21.8601C237.089 21.8601 175.682 21.8601 174.141 21.8601C172.601 21.8601 170.716 21.2281 170.716 21.2281Z" fill="url(#paint15_linear_335_715)"/>
</g>
<mask id="mask16_335_715" style="mask-type:luminance" maskUnits="userSpaceOnUse" x="219" y="19" width="31" height="56">
<path d="M244.104 23.6947L248.822 19.8228C248.822 19.8228 249.478 20.4494 248.733 22.1734C247.986 23.8988 223.844 73.0254 223.377 73.6321C222.909 74.2389 222.117 74.843 222.117 74.843L219.881 70.3691C219.881 70.3691 221.884 69.7165 222.77 67.9462C223.656 66.1738 243.278 27.5814 243.838 26.4627C244.398 25.3441 244.104 23.6947 244.104 23.6947Z" fill="white"/>
</mask>
<g mask="url(#mask16_335_715)">
<path d="M244.104 23.6947L248.822 19.8228C248.822 19.8228 249.478 20.4494 248.733 22.1734C247.986 23.8988 223.844 73.0254 223.377 73.6321C222.909 74.2389 222.117 74.843 222.117 74.843L219.881 70.3691C219.881 70.3691 221.884 69.7165 222.77 67.9462C223.656 66.1738 243.278 27.5814 243.838 26.4627C244.398 25.3441 244.104 23.6947 244.104 23.6947Z" fill="url(#paint16_linear_335_715)"/>
</g>
<mask id="mask17_335_715" style="mask-type:luminance" maskUnits="userSpaceOnUse" x="200" y="68" width="24" height="7">
<path d="M200.728 70.8118L221.344 74.9993C221.344 74.9993 222.632 74.4645 223.276 73.3883C223.92 72.3145 223.274 71.993 222.524 72.6363C221.772 73.2806 220.484 72.2093 221.128 71.4561C221.772 70.7041 222.416 68.3421 222.416 68.3421C222.416 68.3421 220.377 70.7041 217.8 70.7041C215.222 70.7041 200.728 70.8118 200.728 70.8118Z" fill="white"/>
</mask>
<g mask="url(#mask17_335_715)">
<path d="M200.728 70.8118L221.344 74.9993C221.344 74.9993 222.632 74.4645 223.276 73.3883C223.92 72.3145 223.274 71.993 222.524 72.6363C221.772 73.2806 220.484 72.2093 221.128 71.4561C221.772 70.7041 222.416 68.3421 222.416 68.3421C222.416 68.3421 220.377 70.7041 217.8 70.7041C215.222 70.7041 200.728 70.8118 200.728 70.8118Z" fill="url(#paint17_linear_335_715)"/>
</g>
<mask id="mask18_335_715" style="mask-type:luminance" maskUnits="userSpaceOnUse" x="8" y="66" width="77" height="6">
<path d="M84.3772 66.3316L79.1256 71.8831C79.1256 71.8831 80.175 70.8325 72.6745 70.8325C65.174 70.8325 8.20117 70.8325 8.20117 70.8325C8.20117 70.8325 12.5125 68.2831 26.0152 67.382C39.5182 66.4811 55.422 66.032 63.523 66.1816C71.624 66.3316 84.3772 66.3316 84.3772 66.3316Z" fill="white"/>
</mask>
<g mask="url(#mask18_335_715)">
<path d="M84.3772 66.3316L79.1256 71.8831C79.1256 71.8831 80.175 70.8325 72.6745 70.8325C65.174 70.8325 8.20117 70.8325 8.20117 70.8325C8.20117 70.8325 12.5125 68.2831 26.0152 67.382C39.5182 66.4811 55.422 66.032 63.523 66.1816C71.624 66.3316 84.3772 66.3316 84.3772 66.3316Z" fill="url(#paint18_linear_335_715)"/>
</g>
<mask id="mask19_335_715" style="mask-type:luminance" maskUnits="userSpaceOnUse" x="163" y="66" width="56" height="6">
<path d="M163.316 66.3316L169.334 71.9983C169.334 71.9983 169.954 70.6738 175.266 70.6738C180.578 70.6738 218.874 70.541 218.874 70.541C218.874 70.541 219.518 68.4472 208.243 67.6426C198.663 66.9576 183.823 66.032 178.084 66.1816C172.347 66.3316 163.316 66.3316 163.316 66.3316Z" fill="white"/>
</mask>
<g mask="url(#mask19_335_715)">
<path d="M163.316 66.3316L169.334 71.9983C169.334 71.9983 169.954 70.6738 175.266 70.6738C180.578 70.6738 218.874 70.541 218.874 70.541C218.874 70.541 219.518 68.4472 208.243 67.6426C198.663 66.9576 183.823 66.032 178.084 66.1816C172.347 66.3316 163.316 66.3316 163.316 66.3316Z" fill="url(#paint19_linear_335_715)"/>
</g>
<mask id="mask20_335_715" style="mask-type:luminance" maskUnits="userSpaceOnUse" x="164" y="21" width="78" height="7">
<path d="M164.442 27.7213L171.221 21.3639C171.221 21.3639 170.478 22.4146 175.789 22.4146C181.102 22.4146 241.906 22.0933 241.906 22.0933C241.906 22.0933 238.853 24.6426 229.29 25.5439C219.728 26.4439 184.949 28.0213 179.212 27.8719C173.474 27.7213 164.442 27.7213 164.442 27.7213Z" fill="white"/>
</mask>
<g mask="url(#mask20_335_715)">
<path d="M164.442 27.7213L171.221 21.3639C171.221 21.3639 170.478 22.4146 175.789 22.4146C181.102 22.4146 241.906 22.0933 241.906 22.0933C241.906 22.0933 238.853 24.6426 229.29 25.5439C219.728 26.4439 184.949 28.0213 179.212 27.8719C173.474 27.7213 164.442 27.7213 164.442 27.7213Z" fill="url(#paint20_linear_335_715)"/>
</g>
<mask id="mask21_335_715" style="mask-type:luminance" maskUnits="userSpaceOnUse" x="80" y="67" width="8" height="21">
<path d="M80.8418 74.0852L86.3183 67.481C86.3183 67.481 86.7893 69.019 86.7893 70.9081C86.7893 72.7961 86.7893 77.6278 86.7893 79.0773C86.7893 80.5278 87.607 82.4601 87.607 82.4601L82.1309 87.9368C82.1309 87.9368 81.4866 86.9696 81.4866 85.0373C81.4866 83.1049 81.4866 79.4002 81.4866 77.7893C81.4866 76.1789 80.8418 74.0852 80.8418 74.0852Z" fill="white"/>
</mask>
<g mask="url(#mask21_335_715)">
<path d="M80.8418 74.0852L86.3183 67.481C86.3183 67.481 86.7893 69.019 86.7893 70.9081C86.7893 72.7961 86.7893 77.6278 86.7893 79.0773C86.7893 80.5278 87.607 82.4601 87.607 82.4601L82.1309 87.9368C82.1309 87.9368 81.4866 86.9696 81.4866 85.0373C81.4866 83.1049 81.4866 79.4002 81.4866 77.7893C81.4866 76.1789 80.8418 74.0852 80.8418 74.0852Z" fill="url(#paint21_linear_335_715)"/>
</g>
<mask id="mask22_335_715" style="mask-type:luminance" maskUnits="userSpaceOnUse" x="160" y="67" width="8" height="21">
<path d="M167.495 74.0852L161.632 67.3273C161.632 67.3273 161.191 68.9732 161.191 70.8628C161.191 72.7502 161.063 77.8081 161.063 79.2586C161.063 80.7076 160.729 82.4601 160.729 82.4601L166.206 87.9368C166.206 87.9368 166.851 86.9696 166.851 85.0373C166.851 83.1049 166.851 79.4002 166.851 77.7893C166.851 76.1789 167.495 74.0852 167.495 74.0852Z" fill="white"/>
</mask>
<g mask="url(#mask22_335_715)">
<path d="M167.495 74.0852L161.632 67.3273C161.632 67.3273 161.191 68.9732 161.191 70.8628C161.191 72.7502 161.063 77.8081 161.063 79.2586C161.063 80.7076 160.729 82.4601 160.729 82.4601L166.206 87.9368C166.206 87.9368 166.851 86.9696 166.851 85.0373C166.851 83.1049 166.851 79.4002 166.851 77.7893C166.851 76.1789 167.495 74.0852 167.495 74.0852Z" fill="url(#paint22_linear_335_715)"/>
</g>
<mask id="mask23_335_715" style="mask-type:luminance" maskUnits="userSpaceOnUse" x="83" y="83" width="42" height="6">
<path d="M89.2175 83.4264L83.9023 88.5801L123.846 88.9031L124.007 88.9004V83.5479L89.2175 83.4264Z" fill="white"/>
</mask>
<g mask="url(#mask23_335_715)">
<path d="M89.2175 83.4264L83.9023 88.5801L123.846 88.9031L124.007 88.9004V83.5479L89.2175 83.4264Z" fill="url(#paint23_linear_335_715)"/>
</g>
<mask id="mask24_335_715" style="mask-type:luminance" maskUnits="userSpaceOnUse" x="124" y="83" width="42" height="6">
<path d="M158.475 83.4264L124.169 83.5479H124.008V88.9004L165.079 88.4203L158.475 83.4264Z" fill="white"/>
</mask>
<g mask="url(#mask24_335_715)">
<path d="M158.475 83.4264L124.169 83.5479H124.008V88.9004L165.079 88.4203L158.475 83.4264Z" fill="url(#paint24_linear_335_715)"/>
</g>
<mask id="mask25_335_715" style="mask-type:luminance" maskUnits="userSpaceOnUse" x="82" y="3" width="43" height="7">
<path d="M82.2725 4.20275L87.5657 9.40942C87.5657 9.40942 88.0881 8.28275 91.8187 8.28275C95.5495 8.28275 124.169 8.28275 124.169 8.28275V3.59474C124.169 3.59474 85.5703 3.59474 84.4427 3.59474C83.3151 3.59474 82.2725 4.20275 82.2725 4.20275Z" fill="white"/>
</mask>
<g mask="url(#mask25_335_715)">
<path d="M82.2725 4.20275L87.5657 9.40942C87.5657 9.40942 88.0881 8.28275 91.8187 8.28275C95.5495 8.28275 124.169 8.28275 124.169 8.28275V3.59474C124.169 3.59474 85.5703 3.59474 84.4427 3.59474C83.3151 3.59474 82.2725 4.20275 82.2725 4.20275Z" fill="url(#paint25_linear_335_715)"/>
</g>
<mask id="mask26_335_715" style="mask-type:luminance" maskUnits="userSpaceOnUse" x="124" y="3" width="43" height="7">
<path d="M166.313 4.69738L161.018 9.90405C161.018 9.90405 160.249 8.28271 156.517 8.28271C152.786 8.28271 124.168 8.28271 124.168 8.28271V3.59471C124.168 3.59471 162.766 3.59471 163.894 3.59471C165.022 3.59471 166.313 4.69738 166.313 4.69738Z" fill="white"/>
</mask>
<g mask="url(#mask26_335_715)">
<path d="M166.313 4.69738L161.018 9.90405C161.018 9.90405 160.249 8.28271 156.517 8.28271C152.786 8.28271 124.168 8.28271 124.168 8.28271V3.59471C124.168 3.59471 162.766 3.59471 163.894 3.59471C165.022 3.59471 166.313 4.69738 166.313 4.69738Z" fill="url(#paint26_linear_335_715)"/>
</g>
<mask id="mask27_335_715" style="mask-type:luminance" maskUnits="userSpaceOnUse" x="80" y="5" width="7" height="21">
<path d="M86.5148 10.9494L81.3314 5.13473C81.3314 5.13473 81.2617 6.67606 81.2617 8.14806C81.2617 9.6174 81.2617 16.4841 81.2617 17.6054C81.2617 18.7254 80.7705 20.0547 80.7705 20.0547L85.9549 25.9414C85.9549 25.9414 86.3044 25.4507 86.3044 22.9987C86.3044 20.5467 86.5148 10.9494 86.5148 10.9494Z" fill="white"/>
</mask>
<g mask="url(#mask27_335_715)">
<path d="M86.5148 10.9494L81.3314 5.13473C81.3314 5.13473 81.2617 6.67606 81.2617 8.14806C81.2617 9.6174 81.2617 16.4841 81.2617 17.6054C81.2617 18.7254 80.7705 20.0547 80.7705 20.0547L85.9549 25.9414C85.9549 25.9414 86.3044 25.4507 86.3044 22.9987C86.3044 20.5467 86.5148 10.9494 86.5148 10.9494Z" fill="url(#paint27_linear_335_715)"/>
</g>
<mask id="mask28_335_715" style="mask-type:luminance" maskUnits="userSpaceOnUse" x="161" y="4" width="8" height="22">
<path d="M161.238 11.0667L167.904 4.84007C167.904 4.84007 167.84 6.20007 167.84 7.67074C167.84 9.1414 167.893 15.9801 167.893 17.1014C167.893 18.2214 168.721 19.5547 168.721 19.5547L162.382 25.9414C162.382 25.9414 161.238 25.2774 161.238 22.8254C161.238 20.3734 161.238 11.0667 161.238 11.0667Z" fill="white"/>
</mask>
<g mask="url(#mask28_335_715)">
<path d="M161.238 11.0667L167.904 4.84007C167.904 4.84007 167.84 6.20007 167.84 7.67074C167.84 9.1414 167.893 15.9801 167.893 17.1014C167.893 18.2214 168.721 19.5547 168.721 19.5547L162.382 25.9414C162.382 25.9414 161.238 25.2774 161.238 22.8254C161.238 20.3734 161.238 11.0667 161.238 11.0667Z" fill="url(#paint28_linear_335_715)"/>
</g>
<mask id="mask29_335_715" style="mask-type:luminance" maskUnits="userSpaceOnUse" x="28" y="21" width="58" height="7">
<path d="M28.4971 23.6721L32.5237 27.8601C32.5237 27.8601 33.6508 27.0535 36.3893 27.0535C39.1273 27.0535 81.3257 27.0535 82.6143 27.0535C83.9028 27.0535 85.1908 26.5708 85.1908 26.5708L80.0377 21.2561C80.0377 21.2561 78.7481 22.5441 76.9768 22.5441C75.2055 22.5441 33.8123 22.5441 32.5237 22.5441C31.2351 22.5441 29.1408 23.0281 28.4971 23.6721Z" fill="white"/>
</mask>
<g mask="url(#mask29_335_715)">
<path d="M28.4971 23.6721L32.5237 27.8601C32.5237 27.8601 33.6508 27.0535 36.3893 27.0535C39.1273 27.0535 81.3257 27.0535 82.6143 27.0535C83.9028 27.0535 85.1908 26.5708 85.1908 26.5708L80.0377 21.2561C80.0377 21.2561 78.7481 22.5441 76.9768 22.5441C75.2055 22.5441 33.8123 22.5441 32.5237 22.5441C31.2351 22.5441 29.1408 23.0281 28.4971 23.6721Z" fill="url(#paint29_linear_335_715)"/>
</g>
<mask id="mask30_335_715" style="mask-type:luminance" maskUnits="userSpaceOnUse" x="215" y="28" width="24" height="40">
<path d="M215.428 65.6176C215.428 65.6176 217.917 64.6843 218.694 67.64C218.694 67.64 219.316 68.5734 221.028 66.0854C222.738 63.5958 238.917 30.3095 238.76 29.8428C238.605 29.3762 235.338 28.7535 235.338 28.7535L215.428 65.6176Z" fill="white"/>
</mask>
<g mask="url(#mask30_335_715)">
<path d="M215.428 65.6176C215.428 65.6176 217.917 64.6843 218.694 67.64C218.694 67.64 219.316 68.5734 221.028 66.0854C222.738 63.5958 238.917 30.3095 238.76 29.8428C238.605 29.3762 235.338 28.7535 235.338 28.7535L215.428 65.6176Z" fill="url(#paint30_linear_335_715)"/>
</g>
<mask id="mask31_335_715" style="mask-type:luminance" maskUnits="userSpaceOnUse" x="218" y="23" width="27" height="48">
<path d="M235.807 29.0654L243.739 23.6201C243.739 23.6201 244.647 24.6307 243.338 27.16C242.028 29.6867 223.03 67.3301 222.418 68.3405C221.807 69.3509 219.784 70.2842 219.784 70.2842C219.784 70.2842 217.454 68.417 220.096 63.7519C222.74 59.0869 235.184 34.8201 236.274 32.4867C237.362 30.1547 236.584 29.532 235.807 29.0654Z" fill="white"/>
</mask>
<g mask="url(#mask31_335_715)">
<path d="M235.807 29.0654L243.739 23.6201C243.739 23.6201 244.647 24.6307 243.338 27.16C242.028 29.6867 223.03 67.3301 222.418 68.3405C221.807 69.3509 219.784 70.2842 219.784 70.2842C219.784 70.2842 217.454 68.417 220.096 63.7519C222.74 59.0869 235.184 34.8201 236.274 32.4867C237.362 30.1547 236.584 29.532 235.807 29.0654Z" fill="url(#paint31_linear_335_715)"/>
</g>
<mask id="mask32_335_715" style="mask-type:luminance" maskUnits="userSpaceOnUse" x="124" y="8" width="112" height="76">
<path d="M161.049 80.6531C161.049 78.4837 161.049 71.6036 161.049 69.4317C161.049 67.2624 162.493 65.5764 164.182 65.5764C165.632 65.5764 203.649 65.5764 214.362 65.5764C216.125 65.5764 217.706 64.5478 218.624 62.8509C222.724 55.2676 234.018 33.2828 234.872 31.5108C235.916 29.3454 235.27 28.0934 232.852 28.0934C218.537 28.0934 168.828 28.0934 166.352 28.0934C163.46 28.0934 161.288 25.9241 161.288 23.2721C161.288 20.6174 161.288 12.6628 161.288 10.9748C161.288 9.28545 160.325 8.32278 158.156 8.32278C157.065 8.32278 140.58 8.32278 124.168 8.32278V83.5479C140.36 83.5479 156.474 83.5479 157.432 83.5479C159.36 83.5479 161.049 82.8249 161.049 80.6531Z" fill="white"/>
</mask>
<g mask="url(#mask32_335_715)">
<path d="M161.049 80.6531C161.049 78.4837 161.049 71.6036 161.049 69.4317C161.049 67.2624 162.493 65.5764 164.182 65.5764C165.632 65.5764 203.649 65.5764 214.362 65.5764C216.125 65.5764 217.706 64.5478 218.624 62.8509C222.724 55.2676 234.018 33.2828 234.872 31.5108C235.916 29.3454 235.27 28.0934 232.852 28.0934C218.537 28.0934 168.828 28.0934 166.352 28.0934C163.46 28.0934 161.288 25.9241 161.288 23.2721C161.288 20.6174 161.288 12.6628 161.288 10.9748C161.288 9.28545 160.325 8.32278 158.156 8.32278C157.065 8.32278 140.58 8.32278 124.168 8.32278V83.5479C140.36 83.5479 156.474 83.5479 157.432 83.5479C159.36 83.5479 161.049 82.8249 161.049 80.6531Z" fill="url(#paint32_linear_335_715)"/>
</g>
<mask id="mask33_335_715" style="mask-type:luminance" maskUnits="userSpaceOnUse" x="7" y="37" width="20" height="32">
<path d="M7.6582 68.74L14.0957 64.8353C14.0957 64.8353 13.3582 64.5176 14.5181 62.1963C15.6786 59.8744 26.5489 37.7135 26.5489 37.7135L24.1218 37.1855L7.6582 68.74Z" fill="white"/>
</mask>
<g mask="url(#mask33_335_715)">
<path d="M7.6582 68.74L14.0957 64.8353C14.0957 64.8353 13.3582 64.5176 14.5181 62.1963C15.6786 59.8744 26.5489 37.7135 26.5489 37.7135L24.1218 37.1855L7.6582 68.74Z" fill="url(#paint33_linear_335_715)"/>
</g>
<mask id="mask34_335_715" style="mask-type:luminance" maskUnits="userSpaceOnUse" x="5" y="24" width="25" height="46">
<path d="M27.7891 24.6746C27.7891 24.6746 30.4302 26.2493 28.6583 30.116C26.8865 33.98 9.65314 67.3196 9.65314 67.3196L5.78807 69.8977C5.78807 69.8977 5.46567 68.7701 7.07607 65.8706C8.68701 62.9716 27.7891 24.6746 27.7891 24.6746Z" fill="white"/>
</mask>
<g mask="url(#mask34_335_715)">
<path d="M27.7891 24.6746C27.7891 24.6746 30.4302 26.2493 28.6583 30.116C26.8865 33.98 9.65314 67.3196 9.65314 67.3196L5.78807 69.8977C5.78807 69.8977 5.46567 68.7701 7.07607 65.8706C8.68701 62.9716 27.7891 24.6746 27.7891 24.6746Z" fill="url(#paint34_linear_335_715)"/>
</g>
<path d="M9.68225 70.9734C9.42865 71.1442 7.07185 71.4343 6.61145 70.9734C6.15052 70.5124 5.38012 70.1546 5.99532 69.6416C6.61145 69.1296 14.1885 64.6244 14.1885 64.6244C14.1885 64.6244 13.2677 65.1364 21.0505 65.1364C28.8328 65.1364 81.6749 65.1364 83.3129 65.1364C84.952 65.1364 86.4869 66.2624 86.6921 66.9802C86.8973 67.6963 86.4885 68.0046 85.976 67.902C85.464 67.7988 84.1339 67.39 83.8255 66.877C83.5177 66.3655 84.2344 65.9551 79.7286 65.9551C75.2229 65.9551 40.8161 66.4682 33.0328 67.1843C25.25 67.9004 15.0068 67.39 9.68225 70.9734Z" fill="white"/>
<path d="M239.656 22.2255C239.91 22.0548 242.267 21.7655 242.727 22.2255C243.187 22.6868 243.958 23.0468 243.342 23.5588C242.727 24.0695 235.15 28.5762 235.15 28.5762C235.15 28.5762 236.071 28.0628 228.288 28.0628C220.506 28.0628 167.663 28.0628 166.024 28.0628C164.387 28.0628 162.851 26.9388 162.647 26.2202C162.442 25.5042 162.851 25.1948 163.362 25.2975C163.875 25.4015 165.204 25.8108 165.514 26.3228C165.82 26.8335 165.104 27.2442 169.61 27.2442C174.116 27.2442 208.523 26.7308 216.306 26.0148C224.088 25.2988 234.332 25.8108 239.656 22.2255Z" fill="white"/>
<path d="M29.7854 28.1494C29.7854 27.4254 30.1886 26.0547 29.8662 25.6534C29.5438 25.2507 30.5099 24.768 31.1547 25.1707C31.7985 25.572 33.1673 25.8947 33.3287 26.216C33.4897 26.5387 33.2479 27.344 32.3621 27.6654C31.4766 27.988 30.6714 28.7134 29.3021 31.692C27.9334 34.672 20.1214 49.8118 20.1214 49.8118C20.1214 49.8118 21.249 47.3967 20.7657 47.3159C20.2829 47.2352 19.1553 49.2483 19.1553 49.2483L29.7854 28.1494Z" fill="white"/>
<path d="M83.6322 26.7254C82.9655 26.7921 82.778 26.0614 83.3483 25.9668C83.9176 25.8734 84.6754 25.8281 85.34 23.2161C86.0046 20.6068 85.5311 12.6854 85.4352 11.2628C85.34 9.83876 84.677 8.13077 85.6254 7.37211C86.5739 6.61344 87.239 8.2281 89.7051 8.2281C92.1712 8.2281 97.7691 8.03744 97.7691 8.03744C97.7691 8.03744 89.8952 8.60543 88.5666 8.79476C87.2374 8.98543 86.0988 10.0281 86.2884 11.9268C86.4786 13.8228 86.0051 23.5974 85.6254 24.6401C85.2452 25.6828 84.5811 26.6308 83.6322 26.7254Z" fill="white"/>
<path d="M136.756 8.09865C135.714 8.14532 156.763 8.34398 158.09 8.34398C159.418 8.34398 160.936 8.74666 161.22 10.0747C161.506 11.404 161.303 15.7573 161.303 15.7573C161.303 15.7573 161.956 10.168 162.906 9.12533C163.854 8.08133 163.57 6.56398 162.336 6.84798C161.104 7.13332 151.335 7.43998 136.756 8.09865Z" fill="white"/>
<path d="M164.864 66.2572C164.202 66.1619 163.446 66.0687 163.256 66.6364C163.066 67.2042 164.106 67.5818 163.066 68.1494C162.025 68.7166 161.253 69.0646 161.253 68.5922C161.253 68.1176 161.789 65.687 163.777 65.687C165.764 65.687 214.828 65.5942 215.585 65.5942C216.342 65.5942 217.289 65.6884 217.668 66.4463C218.045 67.2042 218.518 69.0958 218.802 69.6635C219.086 70.2312 218.614 70.2327 217.762 69.0958C216.91 67.9594 214.734 67.4879 213.03 67.5818C211.326 67.6764 164.864 66.2572 164.864 66.2572Z" fill="white"/>
<path d="M218.992 67.8655C218.992 67.8655 218.52 66.8264 218.235 66.1619C217.951 65.4993 217.099 65.2165 217.099 65.2165C217.099 65.2165 218.045 64.0802 219.371 61.6208C220.695 59.1608 226.941 47.4255 227.604 45.8175C227.604 45.8175 226.183 50.1712 228.927 46.5748C228.927 46.5748 220.032 63.4171 219.464 64.5531C218.897 65.6895 218.992 67.8655 218.992 67.8655Z" fill="white"/>
<path d="M87.3802 81.1129C87.3802 81.1129 87.4922 82.4717 86.7006 83.0374C85.9099 83.6009 85.5714 84.6192 86.2495 85.0722C86.9271 85.5254 87.3818 85.2998 87.8334 84.6208C88.2854 83.941 89.8703 83.3744 90.8891 83.6009C90.8891 83.6009 87.3802 84.0541 87.3802 81.1129Z" fill="white"/>
<path d="M136.147 83.5382C136.147 83.5382 155.243 84.5425 156.374 84.5955C157.505 84.6477 158.297 84.6841 158.297 84.6841C158.297 84.6841 156.271 84.3627 156.869 83.7111L136.147 83.5382Z" fill="white"/>
<path d="M158.781 83.3743C158.781 83.3743 158.215 84.282 159.121 84.7336C160.027 85.1858 160.933 85.6374 161.498 84.9592C162.062 84.2806 161.045 82.4707 161.158 81.2259C161.158 81.2259 161.61 83.1492 158.781 83.3743Z" fill="white"/>
</g>
<defs>
<linearGradient id="paint0_linear_335_715" x1="29.4773" y1="27.8881" x2="29.3749" y2="65.6959" gradientUnits="userSpaceOnUse">
<stop stop-color="#CBD7F1"/>
<stop offset="0.185393" stop-color="#93AFC7"/>
<stop offset="1" stop-color="#0E1D2D"/>
</linearGradient>
<linearGradient id="paint1_linear_335_715" x1="149.18" y1="-24.0426" x2="172.409" y2="-0.813039" gradientUnits="userSpaceOnUse">
<stop stop-color="#E4EAF8"/>
<stop offset="0.898876" stop-color="#93A3C1"/>
<stop offset="0.955056" stop-color="#49617E"/>
<stop offset="1" stop-color="#E4EAF8"/>
</linearGradient>
<linearGradient id="paint2_linear_335_715" x1="77.0705" y1="-0.534571" x2="100.836" y2="-24.2996" gradientUnits="userSpaceOnUse">
<stop stop-color="#E4EAF8"/>
<stop offset="0.039326" stop-color="#49617E"/>
<stop offset="0.089888" stop-color="#93A3C1"/>
<stop offset="1" stop-color="#E4EAF8"/>
</linearGradient>
<linearGradient id="paint3_linear_335_715" x1="68.928" y1="7.15347" x2="76.6675" y2="-0.0637374" gradientUnits="userSpaceOnUse">
<stop stop-color="#E4EAF8"/>
<stop offset="0.157303" stop-color="#CBD8F1"/>
<stop offset="0.837079" stop-color="#CBD7F1"/>
<stop offset="1" stop-color="#E4EAF8"/>
</linearGradient>
<linearGradient id="paint4_linear_335_715" x1="181.069" y1="7.51875" x2="172.874" y2="-0.12314" gradientUnits="userSpaceOnUse">
<stop stop-color="#E4EAF8"/>
<stop offset="0.157303" stop-color="#CBD8F1"/>
<stop offset="0.837079" stop-color="#CBD7F1"/>
<stop offset="1" stop-color="#E4EAF8"/>
</linearGradient>
<linearGradient id="paint5_linear_335_715" x1="24.236" y1="18.2104" x2="50.2903" y2="-7.84386" gradientUnits="userSpaceOnUse">
<stop stop-color="#49617E"/>
<stop offset="0.129213" stop-color="#93A3C1"/>
<stop offset="1" stop-color="#E4EAF8"/>
</linearGradient>
<linearGradient id="paint6_linear_335_715" x1="-0.933346" y1="76.7133" x2="-4.039" y2="72.2779" gradientUnits="userSpaceOnUse">
<stop stop-color="#0E1D2D"/>
<stop offset="0.106741" stop-color="white"/>
<stop offset="0.185393" stop-color="#93AFC7"/>
<stop offset="0.241573" stop-color="#0E1D2D"/>
<stop offset="0.533708" stop-color="#5E6D89"/>
<stop offset="0.758427" stop-color="#0E1D2D"/>
<stop offset="1" stop-color="#0E1D2D"/>
</linearGradient>
<linearGradient id="paint7_linear_335_715" x1="36.1698" y1="56.3815" x2="12.1174" y2="68.6223" gradientUnits="userSpaceOnUse">
<stop stop-color="#93AFC7"/>
<stop offset="1" stop-color="#0E1D2D"/>
</linearGradient>
<linearGradient id="paint8_linear_335_715" x1="1.21671" y1="85.5293" x2="-0.62742" y2="75.0707" gradientUnits="userSpaceOnUse">
<stop stop-color="#A9BBCB"/>
<stop offset="1" stop-color="#0E1D2D"/>
</linearGradient>
<linearGradient id="paint9_linear_335_715" x1="78.0712" y1="71.2571" x2="79.5515" y2="71.2571" gradientUnits="userSpaceOnUse">
<stop stop-color="#5E6D89"/>
<stop offset="1" stop-color="#93AFC7"/>
</linearGradient>
<linearGradient id="paint10_linear_335_715" x1="170.33" y1="71.0748" x2="169.137" y2="71.0748" gradientUnits="userSpaceOnUse">
<stop stop-color="#5E6D89"/>
<stop offset="1" stop-color="#93AFC7"/>
</linearGradient>
<linearGradient id="paint11_linear_335_715" x1="121.87" y1="88.955" x2="132.248" y2="70.9784" gradientUnits="userSpaceOnUse">
<stop stop-color="#A9BBCB"/>
<stop offset="0.235955" stop-color="#A9BBCB"/>
<stop offset="1" stop-color="#0E1D2D"/>
</linearGradient>
<linearGradient id="paint12_linear_335_715" x1="118.33" y1="71.8405" x2="128.201" y2="88.9375" gradientUnits="userSpaceOnUse">
<stop stop-color="#0E1D2D"/>
<stop offset="0.775281" stop-color="#A9BBCB"/>
<stop offset="1" stop-color="#A9BBCB"/>
</linearGradient>
<linearGradient id="paint13_linear_335_715" x1="112.35" y1="-17.4826" x2="159.052" y2="63.4085" gradientUnits="userSpaceOnUse">
<stop stop-color="#FEF0C8"/>
<stop offset="0.460674" stop-color="#FDE193"/>
<stop offset="1" stop-color="#B98B5D"/>
</linearGradient>
<linearGradient id="paint14_linear_335_715" x1="169.414" y1="67.8332" x2="182.441" y2="53.3126" gradientUnits="userSpaceOnUse">
<stop stop-color="#5E6D89"/>
<stop offset="0.606741" stop-color="#93AFC7"/>
<stop offset="1" stop-color="#CCE3F6"/>
</linearGradient>
<linearGradient id="paint15_linear_335_715" x1="231.422" y1="-14.1946" x2="248.715" y2="15.7577" gradientUnits="userSpaceOnUse">
<stop stop-color="#E4EAF8"/>
<stop offset="0.814607" stop-color="#8193B2"/>
<stop offset="0.904494" stop-color="#49617E"/>
<stop offset="1" stop-color="#0E1D2D"/>
</linearGradient>
<linearGradient id="paint16_linear_335_715" x1="214.715" y1="69.2646" x2="242.899" y2="20.4481" gradientUnits="userSpaceOnUse">
<stop stop-color="#8D9DB1"/>
<stop offset="0.140449" stop-color="#E4EAF8"/>
<stop offset="0.814607" stop-color="#8193B2"/>
<stop offset="0.904494" stop-color="#49617E"/>
<stop offset="1" stop-color="#0E1D2D"/>
</linearGradient>
<linearGradient id="paint17_linear_335_715" x1="205.281" y1="65.1035" x2="214.191" y2="59.9593" gradientUnits="userSpaceOnUse">
<stop stop-color="#0E1D2D"/>
<stop offset="0.730337" stop-color="#0E1D2D"/>
<stop offset="0.814607" stop-color="#A9BBCB"/>
<stop offset="1" stop-color="#0E1D2D"/>
</linearGradient>
<linearGradient id="paint18_linear_335_715" x1="51.2209" y1="29.404" x2="84.0564" y2="62.2395" gradientUnits="userSpaceOnUse">
<stop stop-color="#D1B965"/>
<stop offset="0.331461" stop-color="#77532B"/>
<stop offset="0.466292" stop-color="#77532B"/>
<stop offset="1" stop-color="#D1B965"/>
</linearGradient>
<linearGradient id="paint19_linear_335_715" x1="186.566" y1="39.3107" x2="163.113" y2="62.7631" gradientUnits="userSpaceOnUse">
<stop stop-color="#D1B965"/>
<stop offset="0.331461" stop-color="#77532B"/>
<stop offset="0.466292" stop-color="#77532B"/>
<stop offset="1" stop-color="#D1B965"/>
</linearGradient>
<linearGradient id="paint20_linear_335_715" x1="203.185" y1="-14.7921" x2="165.278" y2="23.1147" gradientUnits="userSpaceOnUse">
<stop stop-color="#D1B965"/>
<stop offset="0.331461" stop-color="#77532B"/>
<stop offset="0.466292" stop-color="#77532B"/>
<stop offset="1" stop-color="#D1B965"/>
</linearGradient>
<linearGradient id="paint21_linear_335_715" x1="84.4828" y1="64.8144" x2="87.0142" y2="64.8144" gradientUnits="userSpaceOnUse">
<stop stop-color="#D1BA79"/>
<stop offset="1" stop-color="#77532B"/>
</linearGradient>
<linearGradient id="paint22_linear_335_715" x1="163.853" y1="64.6606" x2="161.322" y2="64.6606" gradientUnits="userSpaceOnUse">
<stop stop-color="#D1BA79"/>
<stop offset="1" stop-color="#77532B"/>
</linearGradient>
<linearGradient id="paint23_linear_335_715" x1="118.758" y1="69.1237" x2="126.927" y2="83.2726" gradientUnits="userSpaceOnUse">
<stop stop-color="#77532B"/>
<stop offset="0.646067" stop-color="#D1BA79"/>
<stop offset="1" stop-color="#FDE294"/>
</linearGradient>
<linearGradient id="paint24_linear_335_715" x1="166.852" y1="90.6829" x2="157.928" y2="106.14" gradientUnits="userSpaceOnUse">
<stop stop-color="#77532B"/>
<stop offset="0.455056" stop-color="#D1BA79"/>
<stop offset="1" stop-color="#FDE294"/>
</linearGradient>
<linearGradient id="paint25_linear_335_715" x1="80.3867" y1="2.31741" x2="101.639" y2="-18.9349" gradientUnits="userSpaceOnUse">
<stop stop-color="#D1B965"/>
<stop offset="0.039326" stop-color="#77532B"/>
<stop offset="0.106741" stop-color="#CFA662"/>
<stop offset="1" stop-color="#D1B966"/>
</linearGradient>
<linearGradient id="paint26_linear_335_715" x1="168.198" y1="2.81071" x2="146.574" y2="-18.8132" gradientUnits="userSpaceOnUse">
<stop stop-color="#D1B965"/>
<stop offset="0.039326" stop-color="#77532B"/>
<stop offset="0.106741" stop-color="#CFA662"/>
<stop offset="1" stop-color="#D1B966"/>
</linearGradient>
<linearGradient id="paint27_linear_335_715" x1="71.6077" y1="10.5561" x2="79.5126" y2="3.1846" gradientUnits="userSpaceOnUse">
<stop stop-color="#FDE17B"/>
<stop offset="0.157303" stop-color="#CFA662"/>
<stop offset="0.837079" stop-color="#CFA662"/>
<stop offset="1" stop-color="#FDE17B"/>
</linearGradient>
<linearGradient id="paint28_linear_335_715" x1="177.498" y1="10.1427" x2="169.262" y2="2.46226" gradientUnits="userSpaceOnUse">
<stop stop-color="#FDE17B"/>
<stop offset="0.157303" stop-color="#CFA662"/>
<stop offset="0.837079" stop-color="#CFA662"/>
<stop offset="1" stop-color="#FDE17B"/>
</linearGradient>
<linearGradient id="paint29_linear_335_715" x1="27.128" y1="21.2695" x2="51.8166" y2="-3.41921" gradientUnits="userSpaceOnUse">
<stop stop-color="#77532B"/>
<stop offset="1" stop-color="#B99457"/>
</linearGradient>
<linearGradient id="paint30_linear_335_715" x1="238.86" y1="25.8605" x2="249.304" y2="36.304" gradientUnits="userSpaceOnUse">
<stop stop-color="#77532B"/>
<stop offset="1" stop-color="#D1B965"/>
</linearGradient>
<linearGradient id="paint31_linear_335_715" x1="213.376" y1="66.4843" x2="234.6" y2="25.6038" gradientUnits="userSpaceOnUse">
<stop stop-color="#A4824D"/>
<stop offset="0.764045" stop-color="#77532B"/>
<stop offset="1" stop-color="#5D4021"/>
</linearGradient>
<linearGradient id="paint32_linear_335_715" x1="150.961" y1="119.627" x2="85.084" y2="41.118" gradientUnits="userSpaceOnUse">
<stop stop-color="#FEF0C8"/>
<stop offset="0.460674" stop-color="#FDE193"/>
<stop offset="1" stop-color="#B98B5D"/>
</linearGradient>
<linearGradient id="paint33_linear_335_715" x1="-1.22073" y1="58.7572" x2="21.5519" y2="35.9845" gradientUnits="userSpaceOnUse">
<stop stop-color="#77532B"/>
<stop offset="1" stop-color="#E7CD86"/>
</linearGradient>
<linearGradient id="paint34_linear_335_715" x1="-6.96607" y1="55.6594" x2="23.7017" y2="24.9917" gradientUnits="userSpaceOnUse">
<stop stop-color="#77532B"/>
<stop offset="1" stop-color="#E2C97D"/>
</linearGradient>
<clipPath id="clip0_335_715">
<rect width="249.089" height="93.9357" fill="white"/>
</clipPath>
</defs>
</svg>
