<svg width="416" height="256" viewBox="0 0 416 256" fill="none" xmlns="http://www.w3.org/2000/svg">
<g clip-path="url(#clip0_335_2)">
<path d="M0 0.0012207L8.28359 255.841H48.5533L47.6701 149.747H81.4371V116.676H47.6701L47.7959 33.4293H91.8815L91.6437 0.0012207H0Z" fill="#A70230"/>
<path d="M107.561 0.0012207L112.655 255.841H154.237L155.082 0.0012207H107.561Z" fill="#A70230"/>
<path d="M302.497 0.0012207V32.2708H335.343L334.398 255.841H374.629L383.173 32.2338H415.748L415.499 0.0012207H302.497Z" fill="#A70230"/>
<path d="M217.789 118.409L218.245 31.5081H241.461C251.987 50.8626 258.751 76.4572 264.053 118.409H217.789ZM180.693 255.834H184.771H214.783H219.187L219.616 150.042H265.742C269.367 168.715 270.256 226.354 270.472 255.834H274.286H304.413H307.815C311.338 125.222 300.393 51.3948 270.153 -0.000732422H177.17L180.693 255.834Z" fill="#A70230"/>
</g>
<defs>
<clipPath id="clip0_335_2">
<rect width="415.748" height="255.84" fill="white"/>
</clipPath>
</defs>
</svg>
