<svg width="708" height="708" viewBox="0 0 708 708" fill="none" xmlns="http://www.w3.org/2000/svg">
<g clip-path="url(#clip0_335_1636)">
<path d="M705.109 202.665C695.374 107.734 632.244 87.7624 576.666 78.6469C548.759 73.9269 499.081 69.7969 467.044 68.6169C439.137 66.8469 373.588 65.9619 353.912 65.9619C334.53 65.9619 268.657 66.8469 240.779 68.6169C209.037 69.7969 159.064 73.9269 131.157 78.6469C75.6089 88.0574 12.3904 107.97 2.71435 202.665C0.354351 228.536 -0.235649 262.343 0.0593511 298.481C0.944351 358.395 5.95935 398.958 8.90935 427.189C10.9744 446.571 18.8804 504.479 29.1759 534.451C43.2769 575.604 56.1979 587.64 71.1839 600C98.8254 622.332 144.078 629.382 153.489 631.152C204.612 640.297 308.069 642.008 353.617 642.008C399.165 642.008 502.592 640.533 553.745 631.152C563.45 629.382 608.703 622.597 636.05 600C651.036 587.64 663.957 575.604 678.058 534.451C688.383 504.479 696.584 446.571 698.649 427.189C701.599 398.958 706.879 358.395 707.469 298.481C708.649 262.343 707.764 228.536 705.109 202.665ZM670.417 361.965C664.812 437.78 658.086 483.033 648.381 515.955C639.826 544.747 629.589 563.833 614.013 577.669C588.437 600.885 553.155 605.871 532.593 608.821C487.93 615.606 412.971 617.671 353.912 617.671C294.853 617.671 219.893 615.311 175.23 608.821C154.669 605.871 119.387 600.885 93.8104 577.669C78.5294 563.833 67.9684 544.452 59.7379 515.925C50.0324 483.328 43.2768 437.75 37.7013 361.935C34.4563 316.417 35.0464 242.342 40.0614 202.635C47.6724 143.311 77.0839 113.604 139.978 102.453C169.36 97.1434 209.008 93.3084 246.355 91.5384C276.327 89.4734 326.005 88.5884 353.617 88.8834C381.229 88.5884 430.907 89.7684 460.879 91.5384C498.491 93.3084 537.874 97.1434 567.256 102.453C630.445 113.604 659.856 143.606 667.202 202.665C673.072 242.342 673.928 316.417 670.417 361.965ZM516.988 114.46C500.822 187.089 494.361 220.306 481.116 272.875C468.49 323.467 458.489 370.166 441.733 392.792C424.417 415.714 401.466 420.729 385.89 422.469C377.659 423.354 371.789 423.649 354.443 423.944C336.861 423.944 330.961 423.354 322.73 422.469C307.154 420.699 283.938 415.714 266.916 392.792C249.865 370.166 240.16 323.467 227.534 272.904C213.669 220.601 207.533 187.059 191.072 114.489C191.072 114.489 174.906 115.079 167.56 115.669C157.855 116.259 150.214 117.144 141.984 118.324C152.102 276.798 162.398 445.155 175.201 594.159C198.594 597.102 222.131 598.766 245.706 599.145C255.441 561.798 267.772 510.055 281.312 488.018C292.463 470.082 309.809 468.047 319.515 466.867C334.796 464.802 347.717 464.507 353.882 464.507C359.782 464.212 372.674 464.507 388.25 466.867C397.985 468.342 415.301 470.112 426.452 488.018C440.317 510.055 452.324 561.768 462.029 599.115C462.029 599.115 472.59 598.82 496.397 597.64C508.492 597.109 520.587 595.929 532.564 594.1C546.075 435.095 555.721 277.624 565.781 118.324C557.521 117.144 549.91 116.259 540.204 115.669C533.419 115.079 516.988 114.46 516.988 114.46Z" fill="#939393"/>
</g>
<defs>
<clipPath id="clip0_335_1636">
<rect width="708" height="708" fill="white"/>
</clipPath>
</defs>
</svg>
