<svg width="44" height="27" viewBox="0 0 44 27" fill="none" xmlns="http://www.w3.org/2000/svg">
<path d="M4.188 20.6284V23.0164H1.488V20.6284H0V26.8804H1.488V24.3724H4.188V26.8804H5.676V20.6284H5.604H4.188Z" fill="#002D73"/>
<path d="M11.1357 20.6284L9.57567 23.1004L8.01567 20.6284H6.26367L8.83167 24.7204V26.8804H10.3197V24.7204L12.8877 20.6284H12.7557H11.1357Z" fill="#002D73"/>
<path d="M17.6763 20.6282V25.2122C17.6763 25.3802 17.5443 25.5242 17.3643 25.5242H14.9763V20.6282H13.4883V26.8802H17.8803C18.2763 26.8802 18.5883 26.7602 18.8163 26.5322C19.0443 26.3042 19.1643 25.9922 19.1643 25.5962V20.6162H19.0923H17.6763V20.6282Z" fill="#002D73"/>
<path d="M24.9479 20.6284H20.5439V26.8804H22.0319V21.9844H24.4199C24.6119 21.9844 24.7319 22.1404 24.7319 22.2964V26.8804H26.2199V21.9124C26.2199 21.5164 26.0999 21.2044 25.8719 20.9764C25.6439 20.7484 25.3319 20.6284 24.9479 20.6284Z" fill="#002D73"/>
<path d="M31.9916 20.6284H27.5996V26.8804H32.0036C32.3876 26.8804 32.7116 26.7604 32.9396 26.5324C33.1676 26.3044 33.2876 25.9924 33.2876 25.5964V21.9004C33.2876 21.5044 33.1676 21.1924 32.9396 20.9644C32.6996 20.7484 32.3876 20.6284 31.9916 20.6284ZM31.7876 22.3084V25.2004C31.7876 25.3684 31.6676 25.5244 31.4756 25.5244H29.0876V21.9844H31.4636C31.6556 21.9844 31.7876 22.1164 31.7876 22.3084Z" fill="#002D73"/>
<path d="M35.868 20.6284C35.472 20.6284 35.16 20.7484 34.932 20.9764C34.704 21.2044 34.584 21.5164 34.584 21.9124V26.8804H36.072V24.9484H38.772V26.8804H40.26V20.6284H35.868ZM38.772 21.9844V23.5924H36.072V22.2964C36.072 22.1404 36.192 21.9844 36.384 21.9844H38.772Z" fill="#002D73"/>
<path d="M43.1999 20.6284H41.7119V26.8804H43.1999V20.6284Z" fill="#002D73"/>
<path d="M19.9568 7.81188C20.2928 7.81188 20.6648 7.76388 21.0488 7.69188C22.4408 7.39188 23.7848 6.91188 25.0328 6.41988C28.4048 5.13588 30.0608 3.86388 30.4808 3.51588C30.5648 3.45588 30.6128 3.40788 30.6488 3.37188C30.7328 3.28788 30.8288 3.17988 30.8288 3.01188C30.8288 2.69988 30.4688 2.60388 30.2528 2.54388C30.2288 2.53188 30.2048 2.53188 30.1808 2.51988C27.6848 1.77588 24.8048 1.37988 21.8408 1.37988H21.6608C21.2168 1.39188 20.8088 1.48788 20.4848 1.64388C19.4408 2.15988 18.9368 3.37188 18.6368 4.09188C18.6008 4.16388 18.5768 4.23588 18.5528 4.29588C18.0008 5.57988 17.9168 6.53988 18.3008 7.12788C18.6128 7.58388 19.1648 7.81188 19.9568 7.81188ZM18.7808 4.39188C18.8048 4.33188 18.8408 4.25988 18.8648 4.18788C19.1528 3.50388 19.6328 2.35188 20.5928 1.87188C20.8808 1.72788 21.2648 1.64388 21.6608 1.63188H21.8288C24.7688 1.63188 27.6368 2.02788 30.0968 2.75988C30.1208 2.77188 30.1448 2.77188 30.1688 2.78388C30.3128 2.81988 30.5648 2.89188 30.5648 3.01188C30.5648 3.07188 30.5408 3.13188 30.4568 3.20388C30.4328 3.22788 30.3848 3.26388 30.3128 3.32388C29.8928 3.67188 28.2608 4.93188 24.9248 6.19188C23.6888 6.67188 22.3448 7.16388 20.9768 7.45188C20.6048 7.52388 20.2448 7.57188 19.9328 7.57188C19.2248 7.57188 18.7328 7.37988 18.4808 6.99588C18.1688 6.47988 18.2648 5.60388 18.7808 4.39188Z" fill="url(#paint0_radial_552_1612)"/>
<path d="M21.7924 0C12.4084 0 4.77637 3.924 4.77637 8.748C4.77637 13.572 12.4084 17.496 21.7924 17.496C31.1764 17.496 38.8084 13.572 38.8084 8.748C38.8084 3.924 31.1764 0 21.7924 0ZM21.7924 17.244C12.5644 17.244 5.05237 13.44 5.05237 8.76C5.05237 4.08 12.5644 0.276 21.7924 0.276C31.0204 0.276 38.5444 4.08 38.5444 8.76C38.5444 13.428 31.0324 17.244 21.7924 17.244Z" fill="url(#paint1_radial_552_1612)"/>
<path d="M16.4287 2.47195C16.5367 2.29195 16.4887 2.14795 16.4167 2.06395C16.3087 1.93195 16.0207 1.91995 15.5887 2.00395C9.87666 3.16795 6.18066 5.81995 6.18066 8.75995C6.18066 10.3799 7.30866 11.9279 9.44466 13.2359C9.60066 13.3199 9.73266 13.3679 9.86466 13.3679C10.0687 13.3559 10.1647 13.2359 10.2487 13.1039C10.2847 13.0559 10.3207 12.9719 10.3567 12.8879L10.3927 12.8279C12.2527 8.53195 14.2807 5.02795 16.2727 2.68795C16.3567 2.59195 16.3927 2.53195 16.4287 2.47195ZM16.2247 2.33995C16.1887 2.39995 16.1527 2.44795 16.0927 2.51995C14.0887 4.87195 12.0367 8.39995 10.1767 12.7079L10.1527 12.7679C10.1167 12.8519 10.0807 12.9239 10.0567 12.9719C9.99666 13.0679 9.94866 13.1159 9.87666 13.1159C9.79266 13.1159 9.70866 13.0799 9.58866 13.0199C7.53666 11.7599 6.44466 10.2839 6.44466 8.74795C6.44466 5.92795 10.0567 3.37195 15.6487 2.23195C15.8047 2.19595 15.9487 2.18395 16.0567 2.18395C16.2007 2.18395 16.2367 2.21995 16.2487 2.21995C16.2607 2.24395 16.2607 2.29195 16.2247 2.33995Z" fill="url(#paint2_radial_552_1612)"/>
<path d="M23.6881 9.67188C23.3521 9.67188 22.9801 9.71987 22.5961 9.79187C21.1441 10.1039 19.7521 10.6199 18.6361 11.0519L18.6121 11.0639C15.2281 12.3479 13.5721 13.6199 13.1521 13.9799C13.1281 14.0039 13.1041 14.0279 13.0801 14.0399C13.0441 14.0639 13.0201 14.0879 12.9961 14.1119C12.9241 14.1839 12.8281 14.3039 12.8281 14.4719C12.8281 14.7839 13.2241 14.9039 13.4401 14.9639L13.4761 14.9759C15.9601 15.7079 18.8401 16.1039 21.8161 16.1039H21.8401C21.8641 16.1039 21.8881 16.1039 21.9121 16.1039C21.9361 16.1039 21.9601 16.1039 21.9841 16.1039C22.4041 16.0919 22.8361 15.9959 23.1601 15.8399C24.2161 15.3119 24.7081 14.0999 25.0081 13.3799C25.0321 13.3079 25.0561 13.2479 25.0801 13.1999C25.6321 11.9159 25.7161 10.9559 25.3321 10.3679C25.0321 9.89987 24.4801 9.67188 23.6881 9.67188ZM24.8521 13.0919C24.8281 13.1519 24.8041 13.2119 24.7681 13.2839C24.4801 13.9799 24.0001 15.1439 23.0281 15.6239C22.6081 15.8279 22.2361 15.8639 21.7801 15.8639C18.8401 15.8639 15.9841 15.4799 13.5121 14.7479L13.4641 14.7359C13.3321 14.6999 13.0321 14.6039 13.0321 14.4839C13.0321 14.4239 13.0561 14.3759 13.1281 14.3039C13.1521 14.2799 13.1761 14.2679 13.2001 14.2439C13.2241 14.2199 13.2481 14.2079 13.2721 14.1839C13.6921 13.8359 15.3121 12.5879 18.6601 11.3039L18.6841 11.2919C19.7881 10.8719 21.1681 10.3439 22.6081 10.0439C22.9801 9.97187 23.3401 9.92387 23.6521 9.92387C24.3601 9.92387 24.8521 10.1159 25.1041 10.4999C25.4761 11.0159 25.3801 11.8799 24.8521 13.0919Z" fill="url(#paint3_radial_552_1612)"/>
<path d="M34.1888 4.27214C34.0448 4.17614 33.9248 4.14014 33.8168 4.14014C33.7928 4.14014 33.7808 4.14014 33.7688 4.14014C33.6008 4.15214 33.4688 4.23614 33.3968 4.39214C33.3368 4.47614 33.2769 4.60814 33.2529 4.66814C32.2209 7.09214 30.0729 11.6401 27.3729 14.8081C27.3009 14.8921 27.2528 14.9521 27.2168 15.0241C27.1328 15.1801 27.1328 15.3241 27.2288 15.4321C27.3008 15.5041 27.4088 15.5401 27.5768 15.5401C27.6968 15.5401 27.8288 15.5281 28.0088 15.4921C33.7208 14.3281 37.4049 11.6761 37.4049 8.73614C37.4049 7.11614 36.2888 5.56814 34.1888 4.27214ZM27.9488 15.2641C27.7928 15.3001 27.6609 15.3121 27.5649 15.3121C27.4329 15.3121 27.4088 15.2881 27.3968 15.2761C27.3608 15.2401 27.3968 15.1801 27.4088 15.1441C27.4328 15.0961 27.4688 15.0481 27.5408 14.9641C30.2648 11.7601 32.4128 7.20014 33.4568 4.76414C33.5048 4.65614 33.5528 4.57214 33.5888 4.50014C33.6368 4.40414 33.6848 4.36814 33.7808 4.36814C33.7928 4.36814 33.7929 4.36814 33.8049 4.36814C33.8649 4.36814 33.9489 4.40414 34.0449 4.46414C36.0729 5.71214 37.1408 7.18814 37.1408 8.73614C37.1648 11.5681 33.5408 14.1241 27.9488 15.2641Z" fill="url(#paint4_radial_552_1612)"/>
<mask id="mask0_552_1612" style="mask-type:luminance" maskUnits="userSpaceOnUse" x="4" y="0" width="35" height="18">
<path d="M21.7919 17.364C31.1039 17.364 38.6639 13.512 38.6639 8.76004C38.6639 4.00804 31.1159 0.144043 21.7919 0.144043C12.4799 0.144043 4.91992 3.99604 4.91992 8.76004C4.93192 13.512 12.4799 17.364 21.7919 17.364ZM24.9719 13.14C24.6959 13.788 24.2039 15.18 23.0999 15.732C22.7639 15.9 22.3439 15.972 21.9719 15.984C21.8879 15.996 21.8279 15.984 21.8039 15.984C18.7559 15.984 15.8999 15.576 13.4999 14.868C13.3199 14.82 12.9359 14.724 12.9359 14.484C12.9359 14.376 12.9959 14.292 13.0679 14.208C13.1039 14.172 13.1519 14.136 13.2239 14.076C13.7759 13.608 15.4799 12.384 18.6479 11.184C19.7639 10.764 21.1559 10.224 22.6199 9.92404C23.4719 9.73204 26.6519 9.25204 24.9719 13.14ZM33.4919 4.46404C33.5519 4.35604 33.6359 4.27204 33.7679 4.26004C33.8519 4.24804 33.9479 4.27204 34.1159 4.36804C36.0959 5.59204 37.2719 7.10404 37.2719 8.74804C37.2719 11.724 33.4439 14.268 27.9719 15.384C27.6239 15.456 27.3839 15.456 27.3119 15.36C27.2639 15.3 27.2399 15.204 27.3119 15.096C27.3479 15.036 27.3839 14.976 27.4559 14.892C30.4439 11.388 32.7119 6.21604 33.3599 4.71604C33.3959 4.63204 33.4559 4.52404 33.4919 4.46404ZM18.6719 4.34404C18.9479 3.69604 19.4399 2.30404 20.5439 1.75204C20.8799 1.58404 21.2999 1.51204 21.6719 1.50004C21.7559 1.50004 21.8159 1.50004 21.8399 1.50004C24.8999 1.50004 27.7439 1.92004 30.1439 2.62804C30.3239 2.67604 30.7079 2.74804 30.7079 3.00004C30.7079 3.10804 30.6479 3.19204 30.5639 3.27604C30.5279 3.31204 30.4799 3.36004 30.4079 3.40804C29.8439 3.87604 28.1639 5.08804 24.9839 6.30004C23.8679 6.73204 22.4639 7.26004 21.0119 7.57204C20.1719 7.75204 16.9919 8.23204 18.6719 4.34404ZM15.6239 2.11204C15.9839 2.04004 16.2479 2.04004 16.3319 2.13604C16.3799 2.19604 16.4039 2.28004 16.3319 2.40004C16.2959 2.46004 16.2599 2.52004 16.1879 2.60404C13.1999 6.10804 10.9319 11.28 10.2959 12.768C10.2479 12.876 10.1999 12.972 10.1639 13.044C10.0919 13.152 10.0199 13.236 9.87592 13.248C9.80392 13.248 9.69592 13.224 9.52792 13.128C7.54792 11.916 6.32392 10.392 6.32392 8.74804C6.31192 5.78404 10.1519 3.22804 15.6239 2.11204Z" fill="white"/>
</mask>
<g mask="url(#mask0_552_1612)">
<mask id="mask1_552_1612" style="mask-type:luminance" maskUnits="userSpaceOnUse" x="5" y="0" width="34" height="18">
<path d="M21.7916 17.184C12.5876 17.184 5.09961 13.404 5.09961 8.74801C5.09961 4.09201 12.5876 0.312012 21.7916 0.312012C30.9956 0.312012 38.4836 4.09201 38.4836 8.74801C38.4836 13.404 30.9956 17.184 21.7916 17.184ZM23.6876 9.62401C23.3516 9.62401 22.9676 9.67201 22.5836 9.74401C21.1196 10.056 19.7396 10.584 18.6236 11.004L18.5996 11.016C15.2036 12.312 13.5476 13.584 13.1276 13.944L13.0556 14.004C13.0196 14.028 12.9956 14.064 12.9716 14.076C12.8876 14.148 12.7796 14.28 12.7796 14.472C12.7796 14.82 13.1996 14.94 13.4276 15.012L13.4636 15.024C15.9596 15.756 18.8396 16.152 21.8156 16.152C21.8516 16.152 21.8756 16.152 21.9116 16.152C21.9356 16.152 21.9716 16.152 21.9956 16.152C22.4036 16.14 22.8476 16.044 23.1836 15.888C24.2516 15.348 24.7556 14.124 25.0676 13.392L25.1396 13.212C25.7036 11.904 25.7876 10.944 25.3916 10.332C25.0676 9.86401 24.4916 9.62401 23.6876 9.62401ZM33.8156 4.09201C33.7916 4.09201 33.7796 4.09201 33.7556 4.09201C33.5876 4.10401 33.4436 4.20001 33.3476 4.38001C33.2996 4.45201 33.2396 4.58401 33.2036 4.64401C32.1596 7.06801 30.0236 11.604 27.3356 14.772C27.2636 14.856 27.2156 14.916 27.1676 15C27.0476 15.192 27.1076 15.372 27.1916 15.468C27.2636 15.552 27.3956 15.6 27.5756 15.6C27.6956 15.6 27.8396 15.588 28.0196 15.552C33.7556 14.376 37.4636 11.712 37.4636 8.74801C37.4636 7.09201 36.3476 5.53201 34.2236 4.22401C34.0556 4.12801 33.9356 4.09201 33.8156 4.09201ZM16.0556 1.89601C15.9236 1.89601 15.7676 1.92001 15.5876 1.95601C9.85161 3.12001 6.14361 5.79601 6.14361 8.76001C6.14361 10.404 7.28361 11.964 9.43161 13.284C9.58761 13.38 9.73161 13.428 9.87561 13.428C10.1156 13.416 10.2356 13.272 10.3076 13.152C10.3436 13.092 10.3796 13.008 10.4276 12.924L10.4516 12.864C12.3116 8.56801 14.3396 5.06401 16.3196 2.73601C16.4036 2.64001 16.4396 2.58001 16.4756 2.50801C16.5956 2.30401 16.5476 2.13601 16.4516 2.04001C16.3796 1.93201 16.2476 1.89601 16.0556 1.89601ZM21.6716 1.33201C21.2276 1.34401 20.7956 1.45201 20.4716 1.60801C19.4036 2.13601 18.8996 3.34801 18.5996 4.08001L18.5156 4.28401C17.9516 5.59201 17.8676 6.55201 18.2636 7.16401C18.5756 7.63201 19.1396 7.87201 19.9556 7.87201C20.2916 7.87201 20.6756 7.82401 21.0596 7.75201C22.4516 7.45201 23.8076 6.96001 25.0556 6.48001C28.4276 5.19601 30.0956 3.92401 30.5276 3.56401C30.6116 3.50401 30.6596 3.45601 30.6956 3.40801C30.7796 3.32401 30.8756 3.20401 30.8756 3.02401C30.8756 2.67601 30.4796 2.56801 30.2636 2.50801L30.1916 2.48401C27.6956 1.74001 24.8036 1.34401 21.8396 1.34401H21.6716V1.33201Z" fill="white"/>
</mask>
<g mask="url(#mask1_552_1612)">
<mask id="mask2_552_1612" style="mask-type:luminance" maskUnits="userSpaceOnUse" x="5" y="0" width="34" height="18">
<path d="M21.7913 17.1839C12.5993 17.1839 5.11133 13.4039 5.11133 8.75994C5.11133 4.11594 12.5873 0.335938 21.7913 0.335938C30.9833 0.335938 38.4713 4.11594 38.4713 8.75994C38.4713 13.4039 30.9833 17.1839 21.7913 17.1839ZM23.6753 9.62394C23.3393 9.62394 22.9553 9.67194 22.5713 9.74394C21.1193 10.0559 19.7273 10.5719 18.6113 11.0039L18.5873 11.0159C15.1913 12.3119 13.5473 13.5839 13.1153 13.9319L13.0433 14.0039C13.0073 14.0279 12.9833 14.0639 12.9593 14.0759C12.8753 14.1479 12.7673 14.2799 12.7673 14.4719C12.7673 14.8199 13.1873 14.9399 13.4153 15.0119L13.4513 15.0239C15.9353 15.7559 18.8273 16.1519 21.7913 16.1519C21.8273 16.1519 21.8513 16.1519 21.8873 16.1519C21.9113 16.1519 21.9473 16.1519 21.9713 16.1519C22.3793 16.1399 22.8233 16.0439 23.1593 15.8879C24.2273 15.3479 24.7313 14.1359 25.0313 13.4039L25.1033 13.2239C25.6673 11.9279 25.7513 10.9559 25.3553 10.3439C25.0673 9.86394 24.4913 9.62394 23.6753 9.62394ZM33.8033 4.09194C33.7793 4.09194 33.7673 4.09194 33.7433 4.09194C33.5753 4.10394 33.4313 4.19994 33.3353 4.37994C33.2873 4.45194 33.2273 4.58394 33.1913 4.64394C32.1593 7.06794 30.0233 11.6039 27.3233 14.7599C27.2513 14.8439 27.2033 14.9039 27.1553 14.9879C27.0353 15.1799 27.0953 15.3599 27.1793 15.4559C27.2513 15.5399 27.3833 15.5879 27.5633 15.5879C27.6833 15.5879 27.8273 15.5759 28.0073 15.5399C33.7313 14.3759 37.4393 11.6999 37.4393 8.73594C37.4393 7.07994 36.3233 5.51994 34.1993 4.22394C34.0433 4.13994 33.9113 4.09194 33.8033 4.09194ZM16.0553 1.89594C15.9233 1.89594 15.7673 1.91994 15.5873 1.95594C9.85133 3.11994 6.15533 5.78394 6.15533 8.74794C6.15533 10.3799 7.28333 11.9519 9.43133 13.2599C9.58733 13.3559 9.73133 13.4039 9.86333 13.4039C10.1033 13.3919 10.2233 13.2479 10.2953 13.1279C10.3313 13.0679 10.3673 12.9839 10.4153 12.8999L10.4393 12.8399C12.2873 8.54394 14.3153 5.05194 16.3073 2.72394C16.3913 2.62794 16.4273 2.56794 16.4633 2.49594C16.5833 2.29194 16.5353 2.12394 16.4393 2.02794C16.3913 1.94394 16.2593 1.89594 16.0553 1.89594ZM21.6713 1.34394C21.2273 1.35594 20.8073 1.45194 20.4833 1.61994C19.4153 2.14794 18.9113 3.35994 18.6113 4.09194L18.5273 4.29594C17.9633 5.60394 17.8793 6.56394 18.2753 7.17594C18.5873 7.64394 19.1513 7.88394 19.9673 7.88394C20.3033 7.88394 20.6873 7.83594 21.0713 7.76394C22.4633 7.46394 23.8073 6.98394 25.0673 6.49194C28.4393 5.20794 30.0953 3.93594 30.5273 3.57594C30.6113 3.51594 30.6593 3.46794 30.6953 3.41994C30.7793 3.34794 30.8753 3.21594 30.8753 3.03594C30.8753 2.68794 30.4793 2.57994 30.2633 2.51994L30.1913 2.49594C27.6953 1.75194 24.8153 1.35594 21.8393 1.35594L21.6713 1.34394Z" fill="white"/>
</mask>
<g mask="url(#mask2_552_1612)">
<path d="M21.7914 17.352C31.0914 17.352 38.6394 13.5 38.6394 8.74804C38.6394 3.99604 31.1034 0.144043 21.7914 0.144043C12.4914 0.144043 4.94336 3.99604 4.94336 8.74804C4.94336 13.5 12.4914 17.352 21.7914 17.352ZM24.9594 13.14C24.6834 13.788 24.2034 15.168 23.0874 15.72C22.7514 15.888 22.3314 15.96 21.9594 15.972C21.8754 15.984 21.8154 15.972 21.7914 15.972C18.6834 15.972 15.7914 15.54 13.3674 14.808C13.3434 14.796 13.2954 14.772 13.2954 14.772C13.0554 14.7 12.9354 14.592 12.9354 14.46C12.9354 14.352 12.9954 14.268 13.0674 14.184C13.1034 14.148 13.1514 14.112 13.2234 14.052C13.7754 13.584 15.4674 12.36 18.6354 11.16C19.7514 10.74 21.1434 10.2 22.5954 9.90004C23.4714 9.73204 26.6394 9.25204 24.9594 13.14ZM33.4794 4.46404C33.5394 4.35604 33.6234 4.27204 33.7554 4.26004C33.8394 4.24804 33.9354 4.27204 34.1034 4.36804C36.0834 5.58004 37.2594 7.09204 37.2594 8.73604C37.2594 11.7 33.4314 14.256 27.9714 15.372C27.6234 15.444 27.3834 15.444 27.3114 15.348C27.2634 15.288 27.2394 15.192 27.3114 15.084C27.3474 15.024 27.3834 14.964 27.4554 14.892C30.4314 11.388 32.7114 6.22804 33.3474 4.72804C33.3834 4.63204 33.4434 4.53604 33.4794 4.46404ZM18.6714 4.35604C18.9474 3.70804 19.4274 2.32804 20.5434 1.76404C20.8794 1.59604 21.2994 1.52404 21.6714 1.51204C21.7554 1.51204 21.8154 1.51204 21.8394 1.51204C24.9474 1.51204 27.8394 1.94404 30.2634 2.68804C30.2874 2.68804 30.3354 2.71204 30.3594 2.71204C30.5874 2.78404 30.6954 2.89204 30.7074 3.01204C30.7074 3.12004 30.6474 3.20404 30.5634 3.28804C30.5274 3.32404 30.4794 3.37204 30.4074 3.42004C29.8434 3.88804 28.1634 5.10004 24.9954 6.31204C23.8794 6.74404 22.4874 7.27204 21.0354 7.57204C20.1714 7.75204 17.0034 8.23204 18.6714 4.35604ZM15.6354 2.12404C15.9954 2.05204 16.2594 2.05204 16.3434 2.14804C16.3914 2.20804 16.4154 2.29204 16.3434 2.41204C16.3074 2.47204 16.2714 2.53204 16.1994 2.61604C13.2234 6.12004 10.9554 11.28 10.3074 12.768C10.2594 12.876 10.2114 12.972 10.1754 13.044C10.1034 13.152 10.0314 13.236 9.88736 13.236C9.81536 13.236 9.70736 13.212 9.53936 13.116C7.57136 11.904 6.34736 10.392 6.34736 8.74804C6.33536 5.78404 10.1634 3.22804 15.6354 2.12404Z" fill="white"/>
</g>
<mask id="mask3_552_1612" style="mask-type:luminance" maskUnits="userSpaceOnUse" x="5" y="0" width="34" height="18">
<path d="M21.7913 17.1839C12.5993 17.1839 5.11133 13.4039 5.11133 8.75994C5.11133 4.11594 12.5873 0.335938 21.7913 0.335938C30.9833 0.335938 38.4713 4.11594 38.4713 8.75994C38.4713 13.4039 30.9833 17.1839 21.7913 17.1839ZM23.6753 9.62394C23.3393 9.62394 22.9553 9.67194 22.5713 9.74394C21.1193 10.0559 19.7273 10.5719 18.6113 11.0039L18.5873 11.0159C15.1913 12.3119 13.5473 13.5839 13.1153 13.9319L13.0433 14.0039C13.0073 14.0279 12.9833 14.0639 12.9593 14.0759C12.8753 14.1479 12.7673 14.2799 12.7673 14.4719C12.7673 14.8199 13.1873 14.9399 13.4153 15.0119L13.4513 15.0239C15.9353 15.7559 18.8273 16.1519 21.7913 16.1519C21.8273 16.1519 21.8513 16.1519 21.8873 16.1519C21.9113 16.1519 21.9473 16.1519 21.9713 16.1519C22.3793 16.1399 22.8233 16.0439 23.1593 15.8879C24.2273 15.3479 24.7313 14.1359 25.0313 13.4039L25.1033 13.2239C25.6673 11.9279 25.7513 10.9559 25.3553 10.3439C25.0673 9.86394 24.4913 9.62394 23.6753 9.62394ZM33.8033 4.09194C33.7793 4.09194 33.7673 4.09194 33.7433 4.09194C33.5753 4.10394 33.4313 4.19994 33.3353 4.37994C33.2873 4.45194 33.2273 4.58394 33.1913 4.64394C32.1593 7.06794 30.0233 11.6039 27.3233 14.7599C27.2513 14.8439 27.2033 14.9039 27.1553 14.9879C27.0353 15.1799 27.0953 15.3599 27.1793 15.4559C27.2513 15.5399 27.3833 15.5879 27.5633 15.5879C27.6833 15.5879 27.8273 15.5759 28.0073 15.5399C33.7313 14.3759 37.4393 11.6999 37.4393 8.73594C37.4393 7.07994 36.3233 5.51994 34.1993 4.22394C34.0433 4.13994 33.9113 4.09194 33.8033 4.09194ZM16.0553 1.89594C15.9233 1.89594 15.7673 1.91994 15.5873 1.95594C9.85133 3.11994 6.15533 5.78394 6.15533 8.74794C6.15533 10.3799 7.28333 11.9519 9.43133 13.2599C9.58733 13.3559 9.73133 13.4039 9.86333 13.4039C10.1033 13.3919 10.2233 13.2479 10.2953 13.1279C10.3313 13.0679 10.3673 12.9839 10.4153 12.8999L10.4393 12.8399C12.2873 8.54394 14.3153 5.05194 16.3073 2.72394C16.3913 2.62794 16.4273 2.56794 16.4633 2.49594C16.5833 2.29194 16.5353 2.12394 16.4393 2.02794C16.3913 1.94394 16.2593 1.89594 16.0553 1.89594ZM21.6713 1.34394C21.2273 1.35594 20.8073 1.45194 20.4833 1.61994C19.4153 2.14794 18.9113 3.35994 18.6113 4.09194L18.5273 4.29594C17.9633 5.60394 17.8793 6.56394 18.2753 7.17594C18.5873 7.64394 19.1513 7.88394 19.9673 7.88394C20.3033 7.88394 20.6873 7.83594 21.0713 7.76394C22.4633 7.46394 23.8073 6.98394 25.0673 6.49194C28.4393 5.20794 30.0953 3.93594 30.5273 3.57594C30.6113 3.51594 30.6593 3.46794 30.6953 3.41994C30.7793 3.34794 30.8753 3.21594 30.8753 3.03594C30.8753 2.68794 30.4793 2.57994 30.2633 2.51994L30.1913 2.49594C27.6953 1.75194 24.8153 1.35594 21.8393 1.35594L21.6713 1.34394Z" fill="white"/>
</mask>
<g mask="url(#mask3_552_1612)">
<path d="M21.7914 17.352C31.0914 17.352 38.6394 13.5 38.6394 8.74804C38.6394 3.99604 31.1034 0.144043 21.7914 0.144043C12.4914 0.144043 4.94336 3.99604 4.94336 8.74804C4.94336 13.5 12.4914 17.352 21.7914 17.352ZM24.9594 13.14C24.6834 13.788 24.2034 15.168 23.0874 15.72C22.7514 15.888 22.3314 15.96 21.9594 15.972C21.8754 15.984 21.8154 15.972 21.7914 15.972C18.6834 15.972 15.7914 15.54 13.3674 14.808C13.3434 14.796 13.2954 14.772 13.2954 14.772C13.0554 14.7 12.9354 14.592 12.9354 14.46C12.9354 14.352 12.9954 14.268 13.0674 14.184C13.1034 14.148 13.1514 14.112 13.2234 14.052C13.7754 13.584 15.4674 12.36 18.6354 11.16C19.7514 10.74 21.1434 10.2 22.5954 9.90004C23.4714 9.73204 26.6394 9.25204 24.9594 13.14ZM33.4794 4.46404C33.5394 4.35604 33.6234 4.27204 33.7554 4.26004C33.8394 4.24804 33.9354 4.27204 34.1034 4.36804C36.0834 5.58004 37.2594 7.09204 37.2594 8.73604C37.2594 11.7 33.4314 14.256 27.9714 15.372C27.6234 15.444 27.3834 15.444 27.3114 15.348C27.2634 15.288 27.2394 15.192 27.3114 15.084C27.3474 15.024 27.3834 14.964 27.4554 14.892C30.4314 11.388 32.7114 6.22804 33.3474 4.72804C33.3834 4.63204 33.4434 4.53604 33.4794 4.46404ZM18.6714 4.35604C18.9474 3.70804 19.4274 2.32804 20.5434 1.76404C20.8794 1.59604 21.2994 1.52404 21.6714 1.51204C21.7554 1.51204 21.8154 1.51204 21.8394 1.51204C24.9474 1.51204 27.8394 1.94404 30.2634 2.68804C30.2874 2.68804 30.3354 2.71204 30.3594 2.71204C30.5874 2.78404 30.6954 2.89204 30.7074 3.01204C30.7074 3.12004 30.6474 3.20404 30.5634 3.28804C30.5274 3.32404 30.4794 3.37204 30.4074 3.42004C29.8434 3.88804 28.1634 5.10004 24.9954 6.31204C23.8794 6.74404 22.4874 7.27204 21.0354 7.57204C20.1714 7.75204 17.0034 8.23204 18.6714 4.35604ZM15.6354 2.12404C15.9954 2.05204 16.2594 2.05204 16.3434 2.14804C16.3914 2.20804 16.4154 2.29204 16.3434 2.41204C16.3074 2.47204 16.2714 2.53204 16.1994 2.61604C13.2234 6.12004 10.9554 11.28 10.3074 12.768C10.2594 12.876 10.2114 12.972 10.1754 13.044C10.1034 13.152 10.0314 13.236 9.88736 13.236C9.81536 13.236 9.70736 13.212 9.53936 13.116C7.57136 11.904 6.34736 10.392 6.34736 8.74804C6.33536 5.78404 10.1634 3.22804 15.6354 2.12404Z" fill="url(#paint5_linear_552_1612)"/>
</g>
</g>
<path d="M26.7595 14.9281C28.2355 13.1401 29.9275 10.0201 30.4795 8.95215L26.1355 10.4161C26.1595 11.6161 25.9075 14.2561 23.5195 16.0921C23.5195 16.0921 22.6675 16.3801 21.0955 16.3801L20.6875 17.0161C21.7435 17.1001 24.7315 17.2201 29.0035 16.2841L29.3875 15.4081C28.2115 15.8641 25.3195 16.6921 26.7595 14.9281Z" fill="url(#paint6_linear_552_1612)"/>
<path d="M21.3361 7.49996C21.2401 7.52396 21.1321 7.54796 21.0361 7.57196C20.5681 7.66796 19.4521 7.84796 18.7561 7.40396C18.1561 7.01996 17.8921 6.15596 18.6721 4.34396C18.9361 3.74396 19.3801 2.47196 20.3521 1.85996L19.2841 0.959961C19.2121 0.995961 19.1521 1.04396 19.1041 1.09196C18.6361 1.69196 18.2281 2.35196 17.8561 3.01196C17.5081 3.64796 17.1961 4.29596 16.9321 4.96796C16.7281 5.49596 16.4281 6.29996 16.3561 7.05596C16.2721 7.90796 16.4761 8.69996 17.4001 8.97596C17.4601 8.99996 17.5321 9.01196 17.6161 9.03596C18.1561 9.16796 19.1881 9.27596 21.5281 8.63996L21.3361 7.49996Z" fill="url(#paint7_linear_552_1612)"/>
<path d="M32.3755 2.81982L30.7075 2.99982V3.01182C30.7075 3.11982 30.6475 3.20382 30.5635 3.28782C30.5275 3.32382 30.4795 3.37182 30.4075 3.41982C29.8435 3.88782 28.1635 5.09982 24.9835 6.31183C24.2155 6.61183 23.3155 6.94782 22.3435 7.23582C22.0075 7.33182 21.6595 7.42783 21.3115 7.51183C21.2155 7.53583 21.1075 7.55982 21.0115 7.58382C20.5795 7.67982 19.5715 7.83582 18.8755 7.49982L17.4355 8.99982C17.4955 9.01182 17.5555 9.03582 17.6275 9.04782C18.1675 9.17982 19.1995 9.28783 21.5395 8.65183C22.5955 8.36383 23.9275 7.93183 25.5955 7.27183C28.4515 6.15583 31.7875 4.24782 32.3755 2.90382C32.3755 2.87982 32.3875 2.84382 32.3755 2.81982Z" fill="url(#paint8_linear_552_1612)"/>
<path d="M9.86423 13.2481C9.79223 13.2481 9.68423 13.2241 9.51623 13.1281C7.53623 11.9161 6.31223 10.3921 6.31223 8.74811C6.31223 5.78411 10.1522 3.22811 15.6242 2.11211C15.9842 2.04011 16.2482 2.04011 16.3322 2.13611C16.3442 2.14811 16.3562 2.16011 16.3562 2.17211L18.7322 0.972109C18.7202 0.924109 18.6602 0.912109 18.5762 0.912109C15.3962 1.22411 12.4802 2.01611 10.1522 3.19211C7.16423 4.70411 5.53223 6.67211 5.53223 8.73611C5.53223 10.8001 7.17623 12.7681 10.1522 14.2801C10.2842 14.3521 10.4162 14.4121 10.5482 14.4721C10.6322 14.5081 10.7162 14.5081 10.7762 14.4841L9.96023 13.1881C9.94823 13.2361 9.91223 13.2361 9.86423 13.2481Z" fill="url(#paint9_linear_552_1612)"/>
<path d="M26.1959 8.508C25.5359 8.304 23.9279 7.896 18.0119 10.212C15.1559 11.328 11.8199 13.236 11.2319 14.58C11.2079 14.628 11.2079 14.676 11.2319 14.712L12.9239 14.52C12.9239 14.508 12.9239 14.496 12.9239 14.472C12.9239 14.364 12.9839 14.28 13.0559 14.196C13.0919 14.16 13.1399 14.124 13.2119 14.064C13.7639 13.596 15.4679 12.372 18.6359 11.172C19.7519 10.752 21.1439 10.212 22.6079 9.912C23.4719 9.732 26.6399 9.252 24.9599 13.14C24.6839 13.776 24.2039 15.132 23.1359 15.708L24.3239 16.536C24.3959 16.5 24.4559 16.452 24.4919 16.404C24.9599 15.804 25.3679 15.144 25.7399 14.484C26.0879 13.848 26.3999 13.2 26.6639 12.528C26.8679 12 27.1679 11.196 27.2399 10.44C27.3239 9.588 27.1319 8.796 26.1959 8.508Z" fill="url(#paint10_linear_552_1612)"/>
<path d="M23.0999 15.732C22.7639 15.9 22.3439 15.972 21.9719 15.984C21.8879 15.996 21.8279 15.984 21.8039 15.984C18.6959 15.984 15.7919 15.552 13.3679 14.82C13.3439 14.808 13.2959 14.784 13.2959 14.784C13.0799 14.712 12.9719 14.628 12.9479 14.52L11.2559 14.712C11.2919 14.784 11.3759 14.844 11.4959 14.892C14.4119 16.08 18.0119 16.728 21.8159 16.728C22.4159 16.728 23.0159 16.716 23.6159 16.68C23.9519 16.656 24.1799 16.608 24.3479 16.524L23.1599 15.696C23.1239 15.708 23.1119 15.72 23.0999 15.732Z" fill="url(#paint11_linear_552_1612)"/>
<path d="M27.3117 15.0961C27.3477 15.0361 27.3837 14.9761 27.4557 14.8921C30.4437 11.3881 32.7117 6.21607 33.3597 4.71607C33.4077 4.62007 33.4557 4.51207 33.5037 4.45207C33.5517 4.36807 33.6117 4.29607 33.6957 4.26007L32.8317 2.97607C32.7837 3.00007 32.7357 3.03607 32.7237 3.08407C30.9357 6.91207 29.0277 10.4041 26.6637 13.8721C26.0877 14.7121 25.4757 15.5281 24.9117 16.3921C24.8637 16.4641 24.8637 16.5121 24.8997 16.5361L27.2997 15.3361C27.2517 15.2881 27.2517 15.2041 27.3117 15.0961Z" fill="url(#paint12_linear_552_1612)"/>
<path d="M20.5435 1.75186C20.8795 1.58386 21.2995 1.51186 21.6715 1.49986C21.7555 1.49986 21.8155 1.49986 21.8395 1.49986C24.9475 1.49986 27.8395 1.93186 30.2755 2.67586C30.2995 2.67586 30.3475 2.69986 30.3715 2.69986C30.5875 2.77186 30.6955 2.86786 30.7075 2.98786L32.3755 2.80786C32.3515 2.72386 32.2555 2.65186 32.1235 2.59186C29.2075 1.40386 25.6075 0.755859 21.8035 0.755859C21.2035 0.755859 20.6035 0.767859 20.0035 0.803859C19.6795 0.827859 19.4395 0.875859 19.2715 0.959859L20.3395 1.85986C20.4115 1.82386 20.4835 1.78786 20.5435 1.75186Z" fill="url(#paint13_linear_552_1612)"/>
<path d="M38.076 8.74812C38.076 6.68412 36.432 4.71612 33.456 3.20412C33.324 3.13212 33.192 3.07213 33.06 3.01213C32.976 2.97613 32.892 2.97612 32.832 3.00012L33.696 4.28412C33.72 4.27212 33.744 4.27213 33.78 4.27213C33.864 4.26013 33.96 4.28412 34.128 4.38012C36.108 5.60412 37.284 7.11612 37.284 8.76012C37.284 8.82012 37.284 8.88012 37.284 8.92812H38.088C38.076 8.86812 38.076 8.80812 38.076 8.74812Z" fill="url(#paint14_linear_552_1612)"/>
<path d="M37.2724 8.90381C37.1284 11.7958 33.3484 14.2918 27.9724 15.3838C27.6244 15.4558 27.3844 15.4558 27.3124 15.3598C27.3004 15.3478 27.3004 15.3478 27.3004 15.3358L24.9004 16.5358C24.9244 16.5598 24.9724 16.5718 25.0444 16.5718C28.2244 16.2598 31.1404 15.4678 33.4684 14.2918C36.3724 12.8158 38.0044 10.9078 38.0884 8.90381H37.2724Z" fill="url(#paint15_linear_552_1612)"/>
<path d="M32.3764 2.81995C32.3524 2.73595 32.2564 2.66395 32.1244 2.60395C31.7284 2.44795 31.3204 2.29195 30.9124 2.14795L30.1924 2.65195C30.2164 2.66395 30.2524 2.66395 30.2764 2.67595C30.3004 2.67595 30.3484 2.69995 30.3724 2.69995C30.5884 2.77195 30.6964 2.86795 30.7084 2.98795V2.99995C30.7084 3.10795 30.6484 3.19195 30.5644 3.27595C30.5284 3.31195 30.4804 3.35995 30.4084 3.40795C30.3604 3.44395 30.3124 3.47995 30.2524 3.52795L31.6804 3.77995C32.0044 3.46795 32.2324 3.17995 32.3524 2.90395C32.3764 2.87995 32.3884 2.84395 32.3764 2.81995Z" fill="url(#paint16_linear_552_1612)"/>
<path d="M13.3683 14.8202C13.2243 14.7602 12.9843 14.7002 12.9483 14.5202C12.9483 14.5082 12.9483 14.4962 12.9483 14.4722C12.9483 14.3642 13.0083 14.2802 13.0803 14.1962C13.1163 14.1602 13.1643 14.1242 13.2363 14.0642C13.2843 14.0162 13.3443 13.9682 13.4163 13.9202L12.0363 13.5962C11.6643 13.9442 11.3883 14.2682 11.2563 14.5802C11.2323 14.6282 11.2323 14.6762 11.2563 14.7122C11.2923 14.7842 11.3763 14.8442 11.4963 14.8922C11.8563 15.0362 12.2403 15.1802 12.6243 15.3122L13.5003 14.8442C13.4403 14.8442 13.4043 14.8322 13.3683 14.8202Z" fill="url(#paint17_linear_552_1612)"/>
<path d="M33.456 3.20412C33.324 3.13212 33.192 3.07213 33.06 3.01213C32.976 2.97613 32.892 2.97612 32.832 3.00012C32.784 3.02412 32.736 3.06012 32.724 3.10812C32.58 3.42012 32.436 3.72012 32.292 4.02012L33.312 4.88412C33.336 4.83612 33.36 4.78812 33.372 4.74012C33.42 4.64412 33.468 4.53612 33.516 4.47612C33.564 4.39213 33.624 4.32012 33.708 4.28412C33.732 4.27212 33.756 4.27213 33.792 4.27213C33.876 4.26013 33.972 4.28412 34.14 4.38012C34.2 4.41612 34.272 4.46412 34.332 4.50012L34.416 3.73213C34.092 3.54013 33.78 3.37212 33.456 3.20412Z" fill="url(#paint18_linear_552_1612)"/>
<path d="M20.0036 0.816068C19.6796 0.840068 19.4396 0.888068 19.2716 0.972068C19.1996 1.00807 19.1396 1.05607 19.0916 1.10407C18.8876 1.36807 18.6956 1.63207 18.5156 1.90807L19.5356 2.62807C19.7516 2.34007 20.0156 2.06407 20.3276 1.87207C20.3876 1.83607 20.4596 1.80007 20.5316 1.76407C20.7476 1.65607 20.9876 1.59607 21.2276 1.54807V0.768066C20.8316 0.768066 20.4236 0.792068 20.0036 0.816068Z" fill="url(#paint19_linear_552_1612)"/>
<path d="M23.1363 15.708C23.1243 15.72 23.1123 15.72 23.0883 15.732C22.7523 15.9 22.3323 15.972 21.9603 15.984C21.8763 15.996 21.8163 15.984 21.7923 15.984C21.2163 15.984 20.6403 15.96 20.0883 15.936L19.9443 16.692C20.5563 16.728 21.1803 16.74 21.8043 16.74C22.4043 16.74 23.0043 16.728 23.6043 16.692C23.9403 16.668 24.1683 16.62 24.3363 16.536C24.4083 16.5 24.4683 16.452 24.5043 16.404C24.9723 15.804 25.3803 15.144 25.7523 14.484C25.7883 14.424 25.8123 14.364 25.8483 14.304L24.7563 13.668C24.4563 14.34 23.9763 15.264 23.1363 15.708Z" fill="url(#paint20_linear_552_1612)"/>
<path d="M16.3564 2.17217C16.3804 2.23217 16.3804 2.30417 16.3324 2.40017C16.2964 2.46017 16.2604 2.52017 16.1884 2.60417C13.2004 6.10817 10.9324 11.2802 10.2964 12.7682C10.2484 12.8762 10.2004 12.9722 10.1644 13.0442C10.1164 13.1162 10.0684 13.1762 9.98438 13.2122L10.8004 14.5082C10.8484 14.4842 10.8964 14.4482 10.9084 14.4002C12.6964 10.5722 14.6044 7.08017 16.9684 3.61217C17.5444 2.77217 18.1564 1.95617 18.7204 1.09217C18.7564 1.04417 18.7564 0.996168 18.7444 0.972168L16.3564 2.17217Z" fill="url(#paint21_linear_552_1612)"/>
<path d="M10.4756 12.3481C10.4036 12.5161 10.3436 12.6481 10.2956 12.7681C10.2476 12.8761 10.1996 12.9721 10.1636 13.0441C10.1156 13.1161 10.0676 13.1761 9.98357 13.2121C9.94757 13.2241 9.91157 13.2361 9.87557 13.2361C9.80357 13.2361 9.69557 13.2121 9.52757 13.1161C9.37157 13.0201 9.21557 12.9241 9.05957 12.8161L9.13157 13.7161C9.45557 13.9201 9.80357 14.1121 10.1636 14.2921C10.2956 14.3641 10.4276 14.4241 10.5596 14.4841C10.6436 14.5201 10.7276 14.5201 10.7876 14.4961C10.8356 14.4721 10.8836 14.4361 10.8956 14.3881C11.1116 13.9321 11.3276 13.4761 11.5436 13.0321L10.4756 12.3481Z" fill="url(#paint22_linear_552_1612)"/>
<path d="M18.7322 0.983828C18.7202 0.935828 18.6602 0.923828 18.5762 0.923828C17.6642 1.01983 16.7642 1.15183 15.9122 1.30783L15.3242 2.18383C15.4202 2.15983 15.5282 2.13583 15.6242 2.12383C15.9842 2.05183 16.2482 2.05183 16.3322 2.14783C16.3442 2.15983 16.3562 2.17183 16.3562 2.18383C16.3802 2.24383 16.3802 2.31583 16.3322 2.41183C16.2962 2.47183 16.2602 2.53183 16.1882 2.61583C16.1642 2.63983 16.1522 2.65183 16.1402 2.67583H17.6282C18.0002 2.15983 18.3602 1.64383 18.7082 1.11583C18.7442 1.05583 18.7442 1.00783 18.7322 0.983828Z" fill="url(#paint23_linear_552_1612)"/>
<path d="M21.7919 0.144043C12.4799 0.144043 4.91992 3.99604 4.91992 8.74804C4.91992 13.5 12.4679 17.364 21.7919 17.364C31.1039 17.364 38.6639 13.512 38.6639 8.74804C38.6639 3.99604 31.1159 0.144043 21.7919 0.144043ZM33.4679 14.34C30.3599 15.924 26.2199 16.8 21.8039 16.8C17.3879 16.8 13.2479 15.924 10.1399 14.34C7.15192 12.816 5.50792 10.836 5.50792 8.76004C5.50792 6.68404 7.15192 4.70404 10.1399 3.18004C13.2479 1.59604 17.3879 0.720043 21.8039 0.720043C26.2199 0.720043 30.3599 1.59604 33.4679 3.18004C36.4559 4.70404 38.0999 6.68404 38.0999 8.76004C38.0999 10.836 36.4559 12.816 33.4679 14.34Z" fill="url(#paint24_linear_552_1612)"/>
<path d="M21.3358 7.4999C21.2398 7.5239 21.1318 7.5479 21.0358 7.5719C20.5678 7.6679 19.4518 7.8479 18.7558 7.4039C18.3478 7.1399 18.0958 6.6479 18.2278 5.7959L16.4758 6.4319C16.4278 6.6479 16.3918 6.8639 16.3678 7.0799C16.2838 7.9319 16.4878 8.7239 17.4118 8.9999C17.4718 9.0239 17.5438 9.0359 17.6278 9.0599C18.1678 9.1919 19.2118 9.2999 21.5398 8.6639C21.7798 8.6039 22.0438 8.5199 22.3078 8.4479L22.3678 7.2479C22.0318 7.3319 21.6838 7.4279 21.3358 7.4999Z" fill="url(#paint25_linear_552_1612)"/>
<path d="M27.2396 10.4398C27.3236 9.5878 27.1196 8.7958 26.1956 8.5198C25.6196 8.3398 24.3116 8.0038 20.0156 9.4918L20.1476 10.6318C20.9156 10.3678 21.7556 10.1038 22.6196 9.9238C23.4356 9.7558 26.2916 9.3118 25.2116 12.5278L26.7956 12.2038C26.9756 11.6878 27.1796 11.0518 27.2396 10.4398Z" fill="url(#paint26_linear_552_1612)"/>
<path d="M26.604 8.68799L24.792 10.02C25.056 10.164 25.272 10.38 25.38 10.716L27.168 9.38399C27.06 9.11999 26.88 8.86799 26.604 8.68799Z" fill="url(#paint27_linear_552_1612)"/>
<path d="M27.9717 15.3843C27.6237 15.4563 27.3837 15.4563 27.3117 15.3603C27.2997 15.3483 27.2997 15.3483 27.2997 15.3363C27.2637 15.2763 27.2517 15.1923 27.3117 15.0843C27.3477 15.0243 27.3837 14.9643 27.4557 14.8803C27.5637 14.7483 27.6837 14.6163 27.7917 14.4723L26.3637 14.2803C25.8717 14.9763 25.3677 15.6603 24.9117 16.3683C24.8637 16.4403 24.8637 16.4883 24.8997 16.5123C24.9237 16.5363 24.9717 16.5483 25.0437 16.5483C26.1597 16.4403 27.2397 16.2603 28.2837 16.0443V15.3003C28.1757 15.3483 28.0797 15.3723 27.9717 15.3843Z" fill="url(#paint28_linear_552_1612)"/>
<path d="M18.552 9.20401C17.928 9.20401 17.58 9.09601 17.4 9.03601C16.584 8.78401 16.212 8.12401 16.32 7.06801C16.392 6.36001 16.656 5.61601 16.896 4.96801C17.148 4.32001 17.448 3.68401 17.82 3.00001C18.264 2.20801 18.66 1.59601 19.068 1.06801C19.224 0.876008 19.512 0.792009 20.004 0.756009C20.604 0.720009 21.216 0.708008 21.804 0.708008C25.62 0.708008 29.196 1.34401 32.148 2.55601C32.232 2.59201 32.508 2.72401 32.412 2.94001C31.824 4.29601 28.464 6.21601 25.608 7.33201C22.44 8.56801 20.076 9.20401 18.552 9.20401ZM21.804 0.816009C21.216 0.816009 20.616 0.828008 20.016 0.864008C19.548 0.888008 19.284 0.972009 19.152 1.14001C18.744 1.65601 18.36 2.26801 17.916 3.06001C17.544 3.73201 17.244 4.36801 16.992 5.01601C16.836 5.43601 16.5 6.30001 16.416 7.09201C16.32 8.10001 16.656 8.72401 17.424 8.96401C17.604 9.02401 17.952 9.12001 18.552 9.12001C20.052 9.12001 22.416 8.49601 25.572 7.24801C28.416 6.14401 31.74 4.24801 32.316 2.91601C32.34 2.85601 32.34 2.77201 32.1 2.66401C29.172 1.44001 25.608 0.816009 21.804 0.816009Z" fill="url(#paint29_linear_552_1612)"/>
<path d="M17.6519 2.54385C17.4119 2.87985 17.1599 3.23985 16.9199 3.58785C14.7839 6.73185 12.9239 10.0079 11.0879 13.8839L11.1719 13.9199C12.9959 10.0559 14.8559 6.76785 16.9919 3.63585C17.2319 3.28785 17.4839 2.92785 17.7239 2.59185C17.9639 2.25585 18.2159 1.90785 18.4439 1.55985L18.3359 1.54785C18.1199 1.88385 17.8799 2.21985 17.6519 2.54385Z" fill="url(#paint30_linear_552_1612)"/>
<path d="M25.9559 14.9642C26.1959 14.6162 26.4479 14.2682 26.6879 13.9202C28.7999 10.8122 30.6479 7.56022 32.4719 3.73222L32.3639 3.72021C30.5519 7.53621 28.7159 10.7762 26.6039 13.8722C26.3639 14.2202 26.1119 14.5802 25.8719 14.9162C25.6559 15.2282 25.4279 15.5402 25.2119 15.8522H25.3319C25.5479 15.5522 25.7519 15.2522 25.9559 14.9642Z" fill="url(#paint31_linear_552_1612)"/>
<path d="M21.8038 16.8002C17.9878 16.8002 14.4118 16.1642 11.4598 14.9522C11.3758 14.9162 11.0998 14.7842 11.1958 14.5682C11.7838 13.2122 15.1438 11.2922 17.9998 10.1762C21.1678 8.9282 23.5318 8.3042 25.0558 8.3042C25.6798 8.3042 26.0278 8.4122 26.2078 8.4722C27.0238 8.7242 27.3958 9.3842 27.2878 10.4522C27.2158 11.1602 26.9518 11.9162 26.7118 12.5522C26.4718 13.1882 26.1598 13.8482 25.7878 14.5082C25.3438 15.3002 24.9478 15.9122 24.5398 16.4402C24.3838 16.6322 24.0958 16.7162 23.6038 16.7522C23.0038 16.7762 22.4038 16.8002 21.8038 16.8002ZM25.0558 8.4122C23.5558 8.4122 21.1918 9.0362 18.0358 10.2722C15.1918 11.3762 11.8678 13.2722 11.2918 14.6042C11.2678 14.6642 11.2678 14.7482 11.5078 14.8562C14.4358 16.0562 17.9998 16.6922 21.8158 16.6922C22.4158 16.6922 23.0158 16.6802 23.6038 16.6442C24.0718 16.6202 24.3358 16.5362 24.4678 16.3682C24.8758 15.8522 25.2598 15.2402 25.7038 14.4482C26.0758 13.7882 26.3878 13.1282 26.6278 12.5042C26.8678 11.8682 27.1318 11.1362 27.1918 10.4282C27.2878 9.4202 26.9518 8.7962 26.1838 8.5562C26.0038 8.5082 25.6558 8.4122 25.0558 8.4122Z" fill="url(#paint32_linear_552_1612)"/>
<path d="M18.7801 0.948257C18.7561 0.912257 18.7081 0.864258 18.6001 0.864258H18.5881C15.3841 1.18826 12.4681 1.98026 10.1521 3.15626C7.15209 4.68026 5.49609 6.66026 5.49609 8.74826C5.49609 10.8363 7.15209 12.8163 10.1521 14.3403C10.2841 14.4123 10.4161 14.4723 10.5481 14.5323C10.5961 14.5563 10.6561 14.5683 10.7041 14.5683C10.8121 14.5683 10.9081 14.5083 10.9561 14.4123C11.0401 14.2443 11.1121 14.0763 11.1961 13.9083L11.1121 13.8723C11.0281 14.0403 10.9561 14.2083 10.8721 14.3763C10.8361 14.4603 10.7161 14.4963 10.5961 14.4363C10.4641 14.3763 10.3321 14.3043 10.2001 14.2443C7.23609 12.7443 5.60409 10.7883 5.60409 8.73626C5.60409 6.69626 7.23609 4.74026 10.2001 3.22826C12.5041 2.05226 15.4201 1.27226 18.6121 0.948257C18.6721 0.948257 18.6961 0.960259 18.7081 0.972259C18.7201 0.984259 18.7081 1.02026 18.6841 1.05626C18.5761 1.21226 18.4801 1.36826 18.3721 1.53626L18.4801 1.54826C18.5761 1.40426 18.6721 1.26026 18.7681 1.11626C18.8041 1.04426 18.7921 0.984257 18.7801 0.948257Z" fill="url(#paint33_linear_552_1612)"/>
<path d="M33.4797 3.16795C33.3477 3.09595 33.2157 3.03595 33.0837 2.97595C32.9157 2.90395 32.7357 2.95195 32.6757 3.09595C32.5797 3.31195 32.4837 3.51595 32.3757 3.71995L32.4837 3.73195C32.5797 3.53995 32.6757 3.33595 32.7717 3.13195C32.7957 3.07195 32.8557 3.03595 32.9277 3.03595C32.9637 3.03595 32.9997 3.04795 33.0477 3.05995C33.1797 3.11995 33.3117 3.19195 33.4437 3.25195C36.4077 4.75195 38.0397 6.70795 38.0397 8.75995C38.0397 10.7999 36.4077 12.7559 33.4437 14.2679C31.1397 15.4319 28.2477 16.2239 25.0797 16.5479C25.0077 16.5599 24.8877 16.5479 24.9597 16.4399C25.0917 16.2479 25.2237 16.044 25.3557 15.852H25.2357C25.1157 16.032 24.9957 16.1999 24.8757 16.3799C24.8157 16.4639 24.8277 16.5239 24.8517 16.5599C24.8997 16.6559 25.0317 16.644 25.1157 16.632C28.2957 16.308 31.1877 15.516 33.4917 14.352C36.4917 12.828 38.1477 10.8479 38.1477 8.75995C38.1237 6.67195 36.4797 4.69195 33.4797 3.16795Z" fill="url(#paint34_linear_552_1612)"/>
</g>
<defs>
<radialGradient id="paint0_radial_552_1612" cx="0" cy="0" r="1" gradientUnits="userSpaceOnUse" gradientTransform="translate(22.7548 3.20432) scale(16.0306 16.0306)">
<stop stop-color="#8B9394"/>
<stop offset="1" stop-color="#727A79"/>
</radialGradient>
<radialGradient id="paint1_radial_552_1612" cx="0" cy="0" r="1" gradientUnits="userSpaceOnUse" gradientTransform="translate(21.8432 0.097737) scale(19.9125 19.937)">
<stop stop-color="#969D9D"/>
<stop offset="0.6135" stop-color="#7A8182"/>
<stop offset="1" stop-color="#4B5050"/>
</radialGradient>
<radialGradient id="paint2_radial_552_1612" cx="0" cy="0" r="1" gradientUnits="userSpaceOnUse" gradientTransform="translate(15.4585 2.5226) scale(16.4376)">
<stop stop-color="#969D9D"/>
<stop offset="0.4601" stop-color="#828B8A"/>
<stop offset="1" stop-color="#C2C9C8"/>
</radialGradient>
<radialGradient id="paint3_radial_552_1612" cx="0" cy="0" r="1" gradientUnits="userSpaceOnUse" gradientTransform="translate(22.5496 10.3641) scale(9.1448)">
<stop stop-color="#969D9D"/>
<stop offset="0.6135" stop-color="#828B8A"/>
<stop offset="1" stop-color="#727A79"/>
</radialGradient>
<radialGradient id="paint4_radial_552_1612" cx="0" cy="0" r="1" gradientUnits="userSpaceOnUse" gradientTransform="translate(33.8699 6.2734) scale(13.1608 13.1608)">
<stop stop-color="#969D9D"/>
<stop offset="0.6135" stop-color="#828B8A"/>
<stop offset="1" stop-color="#727A79"/>
</radialGradient>
<linearGradient id="paint5_linear_552_1612" x1="21.3803" y1="0.857491" x2="22.2139" y2="16.7633" gradientUnits="userSpaceOnUse">
<stop stop-color="white"/>
<stop offset="0.4" stop-color="white"/>
<stop offset="0.5706" stop-color="#A4AAAA"/>
<stop offset="0.6257" stop-color="#8F9697"/>
<stop offset="0.6626" stop-color="#878F90"/>
<stop offset="0.75" stop-color="#969D9D"/>
<stop offset="0.81" stop-color="white"/>
</linearGradient>
<linearGradient id="paint6_linear_552_1612" x1="24.9735" y1="16.491" x2="26.517" y2="10.4571" gradientUnits="userSpaceOnUse">
<stop stop-color="white"/>
<stop offset="0.6258" stop-color="white"/>
<stop offset="0.6768" stop-color="#F1F2F2"/>
<stop offset="0.8952" stop-color="#B7BDBE"/>
<stop offset="1" stop-color="#A0A8AA"/>
</linearGradient>
<linearGradient id="paint7_linear_552_1612" x1="20.1796" y1="8.17563" x2="17.0742" y2="2.64176" gradientUnits="userSpaceOnUse">
<stop stop-color="#E5EEED"/>
<stop offset="0.2776" stop-color="#CFD7D7"/>
<stop offset="0.5521" stop-color="#B6BCBD"/>
<stop offset="1" stop-color="#A0A8AA"/>
</linearGradient>
<linearGradient id="paint8_linear_552_1612" x1="22.888" y1="3.00856" x2="25.509" y2="6.76684" gradientUnits="userSpaceOnUse">
<stop stop-color="#E5EEED"/>
<stop offset="0.2776" stop-color="#CFD7D7"/>
<stop offset="0.5521" stop-color="#B6BCBD"/>
<stop offset="1" stop-color="#A0A8AA"/>
</linearGradient>
<linearGradient id="paint9_linear_552_1612" x1="12.1336" y1="11.8164" x2="12.1336" y2="3.24492" gradientUnits="userSpaceOnUse">
<stop stop-color="white"/>
<stop offset="0.0628818" stop-color="#F6F7F7"/>
<stop offset="0.1635" stop-color="#DFE1E1"/>
<stop offset="0.2891" stop-color="#B9BCBC"/>
<stop offset="0.4336" stop-color="#858A8A"/>
<stop offset="0.5276" stop-color="#5F6666"/>
<stop offset="0.773" stop-color="#4B5050"/>
<stop offset="1" stop-color="#404444"/>
</linearGradient>
<linearGradient id="paint10_linear_552_1612" x1="26.6354" y1="13.6371" x2="17.1635" y2="11.214" gradientUnits="userSpaceOnUse">
<stop stop-color="#8B9394"/>
<stop offset="0.1758" stop-color="#7A8182"/>
<stop offset="0.3399" stop-color="#646A6B"/>
<stop offset="0.5698" stop-color="#404444"/>
<stop offset="1" stop-color="#333737"/>
</linearGradient>
<linearGradient id="paint11_linear_552_1612" x1="11.2442" y1="15.6315" x2="24.3322" y2="15.6315" gradientUnits="userSpaceOnUse">
<stop stop-color="white"/>
<stop offset="0.9331" stop-color="white"/>
<stop offset="1" stop-color="white"/>
</linearGradient>
<linearGradient id="paint12_linear_552_1612" x1="33.0736" y1="4.55796" x2="26.2941" y2="15.0486" gradientUnits="userSpaceOnUse">
<stop stop-color="#ABB3B3"/>
<stop offset="0.3804" stop-color="#727A79"/>
<stop offset="0.4174" stop-color="#575D5C"/>
<stop offset="0.4495" stop-color="#464A4A"/>
<stop offset="0.4724" stop-color="#404444"/>
<stop offset="1" stop-color="#333737"/>
</linearGradient>
<linearGradient id="paint13_linear_552_1612" x1="30.7856" y1="2.47569" x2="20.5584" y2="1.09733" gradientUnits="userSpaceOnUse">
<stop stop-color="#4B5050"/>
<stop offset="0.1082" stop-color="#434747"/>
<stop offset="0.3852" stop-color="#323534"/>
<stop offset="0.6758" stop-color="#282A2A"/>
<stop offset="1" stop-color="#252726"/>
</linearGradient>
<linearGradient id="paint14_linear_552_1612" x1="33.9866" y1="2.86562" x2="37.227" y2="8.25156" gradientUnits="userSpaceOnUse">
<stop stop-color="#252726"/>
<stop offset="0.0675744" stop-color="#2B2E2D"/>
<stop offset="0.3252" stop-color="#404444"/>
<stop offset="0.4324" stop-color="#4A4F4F"/>
<stop offset="0.6933" stop-color="#5F6666"/>
<stop offset="0.7433" stop-color="#666D6D"/>
<stop offset="0.8172" stop-color="#798181"/>
<stop offset="0.8712" stop-color="#8B9394"/>
<stop offset="1" stop-color="#A0A8AA"/>
</linearGradient>
<linearGradient id="paint15_linear_552_1612" x1="27.5876" y1="16.4483" x2="37.7045" y2="10.1281" gradientUnits="userSpaceOnUse">
<stop stop-color="white"/>
<stop offset="0.7669" stop-color="white"/>
<stop offset="0.8338" stop-color="#E8EBEB"/>
<stop offset="0.9018" stop-color="#CCD4D3"/>
<stop offset="0.9599" stop-color="#AFB7B8"/>
<stop offset="1" stop-color="#A0A8AA"/>
</linearGradient>
<linearGradient id="paint16_linear_552_1612" x1="31.2713" y1="2.72369" x2="31.3292" y2="3.22274" gradientUnits="userSpaceOnUse">
<stop stop-color="#4B5050"/>
<stop offset="0.0834619" stop-color="#6D7373"/>
<stop offset="0.1678" stop-color="#888F8F"/>
<stop offset="0.2527" stop-color="#9CA3A3"/>
<stop offset="0.3378" stop-color="#A7AFAF"/>
<stop offset="0.4233" stop-color="#ABB3B3"/>
<stop offset="0.5767" stop-color="#ABB3B3"/>
<stop offset="0.919" stop-color="#A3ABAC"/>
<stop offset="1" stop-color="#A0A8AA"/>
</linearGradient>
<linearGradient id="paint17_linear_552_1612" x1="12.3008" y1="14.1531" x2="12.4087" y2="15.1186" gradientUnits="userSpaceOnUse">
<stop stop-color="#333737"/>
<stop offset="0.0157639" stop-color="#494E4E"/>
<stop offset="0.0411476" stop-color="#676E6D"/>
<stop offset="0.0552147" stop-color="#727A79"/>
<stop offset="0.2185" stop-color="#808888"/>
<stop offset="0.3988" stop-color="#8B9394"/>
<stop offset="0.4757" stop-color="#9BA3A4"/>
<stop offset="0.4969" stop-color="#A0A8AA"/>
<stop offset="0.7853" stop-color="#ABB3B3"/>
<stop offset="0.8536" stop-color="#C2C8C8"/>
<stop offset="0.9966" stop-color="#FDFEFE"/>
<stop offset="1" stop-color="white"/>
</linearGradient>
<linearGradient id="paint18_linear_552_1612" x1="33.0449" y1="4.06742" x2="33.7179" y2="3.64553" gradientUnits="userSpaceOnUse">
<stop stop-color="#ABB3B3"/>
<stop offset="0.4172" stop-color="#A0A8AA"/>
<stop offset="0.5215" stop-color="#A0A8AA"/>
<stop offset="0.5931" stop-color="#9BA3A5"/>
<stop offset="0.68" stop-color="#8D9496"/>
<stop offset="0.7748" stop-color="#777D7D"/>
<stop offset="0.8753" stop-color="#575B5B"/>
<stop offset="0.9792" stop-color="#2E3030"/>
<stop offset="1" stop-color="#252726"/>
</linearGradient>
<linearGradient id="paint19_linear_552_1612" x1="20.3847" y1="1.10045" x2="19.3548" y2="2.20286" gradientUnits="userSpaceOnUse">
<stop stop-color="#252726"/>
<stop offset="0.0227764" stop-color="#2D302F"/>
<stop offset="0.1422" stop-color="#565B5B"/>
<stop offset="0.2495" stop-color="#73797A"/>
<stop offset="0.3399" stop-color="#858C8D"/>
<stop offset="0.4026" stop-color="#8B9394"/>
<stop offset="0.8123" stop-color="#98A0A2"/>
<stop offset="1" stop-color="#A0A8AA"/>
</linearGradient>
<linearGradient id="paint20_linear_552_1612" x1="24.0131" y1="13.8238" x2="21.9024" y2="16.7145" gradientUnits="userSpaceOnUse">
<stop stop-color="#828B8A"/>
<stop offset="0.515" stop-color="#F4FAFC"/>
<stop offset="0.8083" stop-color="#F8FCFD"/>
<stop offset="1" stop-color="white"/>
</linearGradient>
<linearGradient id="paint21_linear_552_1612" x1="11.7096" y1="13.3795" x2="15.7252" y2="3.89956" gradientUnits="userSpaceOnUse">
<stop stop-color="#697070"/>
<stop offset="0.5276" stop-color="#828B8A"/>
<stop offset="1" stop-color="#B2BCBC"/>
</linearGradient>
<linearGradient id="paint22_linear_552_1612" x1="10.6717" y1="13.1198" x2="9.49392" y2="13.9879" gradientUnits="userSpaceOnUse">
<stop stop-color="#697070"/>
<stop offset="0.0761605" stop-color="#8B9191"/>
<stop offset="0.2002" stop-color="#BDC0C0"/>
<stop offset="0.3091" stop-color="#E1E2E2"/>
<stop offset="0.3974" stop-color="#F7F7F7"/>
<stop offset="0.454" stop-color="white"/>
<stop offset="0.6348" stop-color="white"/>
<stop offset="0.6442" stop-color="white"/>
<stop offset="0.9824" stop-color="white"/>
<stop offset="1" stop-color="white"/>
</linearGradient>
<linearGradient id="paint23_linear_552_1612" x1="16.9487" y1="1.42754" x2="17.332" y2="2.18059" gradientUnits="userSpaceOnUse">
<stop stop-color="#404444"/>
<stop offset="0.1607" stop-color="#444848"/>
<stop offset="0.3258" stop-color="#4F5454"/>
<stop offset="0.4724" stop-color="#5F6666"/>
<stop offset="0.522" stop-color="#737B7A"/>
<stop offset="0.5706" stop-color="#828B8A"/>
<stop offset="0.7786" stop-color="#A3ACAC"/>
<stop offset="0.908" stop-color="#B2BCBC"/>
</linearGradient>
<linearGradient id="paint24_linear_552_1612" x1="21.2166" y1="0.799795" x2="22.4274" y2="17.4462" gradientUnits="userSpaceOnUse">
<stop stop-color="white"/>
<stop offset="0.0755398" stop-color="#F8FAFA"/>
<stop offset="0.1828" stop-color="#E6ECED"/>
<stop offset="0.2638" stop-color="#D3DEE0"/>
<stop offset="0.2946" stop-color="#C9D4D6"/>
<stop offset="0.3474" stop-color="#AFB9BA"/>
<stop offset="0.4159" stop-color="#858D8E"/>
<stop offset="0.4969" stop-color="#4B5050"/>
<stop offset="0.6871" stop-color="#3E4344"/>
<stop offset="0.7344" stop-color="#2F3435"/>
<stop offset="0.816" stop-color="#0D1112"/>
<stop offset="1" stop-color="#0D1112"/>
</linearGradient>
<linearGradient id="paint25_linear_552_1612" x1="17.5012" y1="6.06631" x2="20.6153" y2="8.87031" gradientUnits="userSpaceOnUse">
<stop offset="0.07" stop-color="#B6BCBD"/>
<stop offset="0.1214" stop-color="#C9CECE"/>
<stop offset="0.2023" stop-color="#E1E3E4"/>
<stop offset="0.2885" stop-color="#F2F3F3"/>
<stop offset="0.3827" stop-color="#FCFCFC"/>
<stop offset="0.5" stop-color="white"/>
<stop offset="0.6129" stop-color="#FCFCFC"/>
<stop offset="0.7036" stop-color="#F2F3F3"/>
<stop offset="0.7865" stop-color="#E1E4E4"/>
<stop offset="0.8644" stop-color="#C9CECE"/>
<stop offset="0.9387" stop-color="#ABB3B3"/>
</linearGradient>
<linearGradient id="paint26_linear_552_1612" x1="25.2999" y1="12.0575" x2="22.4304" y2="8.38443" gradientUnits="userSpaceOnUse">
<stop stop-color="#828B8A"/>
<stop offset="0.1227" stop-color="#7A8182"/>
<stop offset="0.1742" stop-color="#6B7272"/>
<stop offset="0.2759" stop-color="#545959"/>
<stop offset="0.3681" stop-color="#454949"/>
<stop offset="0.4417" stop-color="#404444"/>
<stop offset="0.7117" stop-color="#404444"/>
<stop offset="1" stop-color="#333737"/>
</linearGradient>
<linearGradient id="paint27_linear_552_1612" x1="25.739" y1="9.34082" x2="26.2618" y2="10.0596" gradientUnits="userSpaceOnUse">
<stop stop-color="#3E4344"/>
<stop offset="0.0170369" stop-color="#555A5A"/>
<stop offset="0.0507071" stop-color="#7D8081"/>
<stop offset="0.0877459" stop-color="#A0A3A3"/>
<stop offset="0.1278" stop-color="#BEBFC0"/>
<stop offset="0.1719" stop-color="#D6D7D7"/>
<stop offset="0.2217" stop-color="#E8E9E9"/>
<stop offset="0.2804" stop-color="#F5F6F6"/>
<stop offset="0.3568" stop-color="#FDFDFD"/>
<stop offset="0.5153" stop-color="white"/>
<stop offset="0.6539" stop-color="#FDFDFD"/>
<stop offset="0.732" stop-color="#F4F5F5"/>
<stop offset="0.7951" stop-color="#E7E8E8"/>
<stop offset="0.8502" stop-color="#D3D5D5"/>
<stop offset="0.9001" stop-color="#B9BDBD"/>
<stop offset="0.9462" stop-color="#9A9F9F"/>
<stop offset="0.9885" stop-color="#757C7C"/>
<stop offset="1" stop-color="#6A7171"/>
</linearGradient>
<linearGradient id="paint28_linear_552_1612" x1="26.3683" y1="15.5018" x2="26.6804" y2="16.1408" gradientUnits="userSpaceOnUse">
<stop stop-color="#333737"/>
<stop offset="0.0570318" stop-color="#5A5F5E"/>
<stop offset="0.1393" stop-color="#8B9191"/>
<stop offset="0.2168" stop-color="#B2BAB9"/>
<stop offset="0.2872" stop-color="#CED6D5"/>
<stop offset="0.3482" stop-color="#DFE8E7"/>
<stop offset="0.3929" stop-color="#E5EEED"/>
<stop offset="0.5373" stop-color="#E9F1F0"/>
<stop offset="0.6811" stop-color="#F5F8F8"/>
<stop offset="0.7607" stop-color="white"/>
</linearGradient>
<linearGradient id="paint29_linear_552_1612" x1="24.1333" y1="6.8052" x2="24.9667" y2="0.402692" gradientUnits="userSpaceOnUse">
<stop stop-color="white"/>
<stop offset="0.248" stop-color="#F2F6F6"/>
<stop offset="0.572" stop-color="#E8F0EF"/>
<stop offset="1" stop-color="#E5EEED"/>
</linearGradient>
<linearGradient id="paint30_linear_552_1612" x1="18.7104" y1="1.13889" x2="11.4593" y2="12.8889" gradientUnits="userSpaceOnUse">
<stop stop-color="white"/>
<stop offset="0.1338" stop-color="#FCFCFC"/>
<stop offset="0.2307" stop-color="#F3F4F4"/>
<stop offset="0.316" stop-color="#E3E5E5"/>
<stop offset="0.3947" stop-color="#CDD0D0"/>
<stop offset="0.4681" stop-color="#B0B5B5"/>
<stop offset="0.5215" stop-color="#969D9D"/>
<stop offset="1" stop-color="#8B9394"/>
</linearGradient>
<linearGradient id="paint31_linear_552_1612" x1="32.5821" y1="3.78752" x2="25.434" y2="15.9101" gradientUnits="userSpaceOnUse">
<stop stop-color="#D7E0E0"/>
<stop offset="0.0435386" stop-color="#C5CDCE"/>
<stop offset="0.101" stop-color="#B4BCBE"/>
<stop offset="0.1727" stop-color="#A9B1B2"/>
<stop offset="0.2732" stop-color="#A2AAAC"/>
<stop offset="0.5521" stop-color="#A0A8AA"/>
<stop offset="0.9367" stop-color="#A0A8AA"/>
<stop offset="1" stop-color="#A0A8AA"/>
</linearGradient>
<linearGradient id="paint32_linear_552_1612" x1="11.1808" y1="12.5549" x2="26.6232" y2="12.5549" gradientUnits="userSpaceOnUse">
<stop stop-color="#8B9394"/>
<stop offset="0.2393" stop-color="#8B9394"/>
<stop offset="0.3579" stop-color="#858C8D"/>
<stop offset="0.5264" stop-color="#737A7B"/>
<stop offset="0.5951" stop-color="#6A7171"/>
<stop offset="1" stop-color="#A0A8AA"/>
</linearGradient>
<linearGradient id="paint33_linear_552_1612" x1="13.1273" y1="2.07447" x2="8.75975" y2="12.7822" gradientUnits="userSpaceOnUse">
<stop stop-color="white"/>
<stop offset="0.2377" stop-color="#F8FAFA"/>
<stop offset="0.5752" stop-color="#E6EBEB"/>
<stop offset="0.7791" stop-color="#D7E0E0"/>
<stop offset="1" stop-color="#8B9394"/>
</linearGradient>
<linearGradient id="paint34_linear_552_1612" x1="35.8678" y1="4.85178" x2="29.5952" y2="16.6547" gradientUnits="userSpaceOnUse">
<stop stop-color="#D7E0E0"/>
<stop offset="0.1641" stop-color="#D1DAD9"/>
<stop offset="0.2552" stop-color="#CCD4D3"/>
<stop offset="1" stop-color="#A0A8AA"/>
</linearGradient>
</defs>
</svg>
