<svg width="208" height="107" viewBox="0 0 208 107" fill="none" xmlns="http://www.w3.org/2000/svg">
<path d="M103.766 106.271C161.071 106.271 207.527 82.4758 207.527 53.1145C207.527 23.7884 161.071 0 103.766 0C46.4625 0 0 23.7889 0 53.1145C0 82.4753 46.463 106.271 103.766 106.271ZM123.285 80.1926C121.563 84.2093 118.589 92.7872 111.739 96.1873C109.678 97.2056 107.111 97.7115 104.828 97.779C104.285 97.7857 103.927 97.779 103.784 97.779C84.6295 97.779 66.8013 95.1256 51.8925 90.5835C51.7569 90.5407 51.4233 90.3983 51.3057 90.3617C49.93 89.8987 49.2262 89.2573 49.2262 88.4792C49.2262 87.795 49.5835 87.2824 50.0904 86.7946C50.2807 86.5848 50.6143 86.3203 51.0278 85.9562C54.4711 83.0868 64.8569 75.5638 84.4006 68.079C91.2507 65.4622 99.8168 62.1978 108.814 60.3085C114.078 59.1979 133.615 56.2057 123.285 80.1926ZM175.728 26.6331C176.08 25.9916 176.579 25.4543 177.473 25.3997C177.979 25.3569 178.622 25.4739 179.615 26.1092C191.815 33.6007 199.042 42.9619 199.042 53.1011C199.042 71.4347 175.48 87.1783 141.793 94.0711C139.627 94.4909 138.182 94.4847 137.701 93.9355C137.368 93.6019 137.27 93.0033 137.701 92.2876C137.923 91.9107 138.17 91.59 138.59 91.0413C156.955 69.4114 170.925 37.5313 174.881 28.3125C175.178 27.6762 175.48 27.0466 175.728 26.6331ZM84.5501 25.955C86.2775 21.9496 89.2645 13.3774 96.1017 9.96549C98.1812 8.94094 100.737 8.448 103.019 8.37994C103.538 8.36034 103.89 8.37994 104.057 8.37994C123.211 8.37994 141.027 11.0333 155.967 15.5806C156.078 15.6234 156.418 15.7539 156.529 15.7972C157.911 16.2664 158.621 16.8898 158.621 17.6849C158.621 18.364 158.245 18.8817 157.758 19.3576C157.56 19.5675 157.239 19.8387 156.807 20.1908C153.357 23.0789 142.99 30.5833 123.452 38.0681C116.591 40.6911 108.012 43.9493 99.0392 45.8504C93.7628 46.9667 74.2191 49.929 84.5501 25.955ZM65.7221 12.1626C67.8944 11.7428 69.3139 11.749 69.8445 12.2982C70.1405 12.6436 70.2147 13.2175 69.8249 13.9332C69.5903 14.3163 69.3567 14.6556 68.9241 15.1743C50.5591 36.8094 36.6006 68.7024 32.6318 77.9212C32.3359 78.5446 32.028 79.1809 31.7873 79.5872C31.4103 80.2416 30.9231 80.784 30.0403 80.8335C29.5659 80.865 28.9059 80.7474 27.8747 80.1359C15.7183 72.6196 8.47326 63.2584 8.47326 53.1135C8.47326 34.7975 32.0286 19.0441 65.7221 12.1626Z" fill="#1C3868"/>
</svg>
