<svg width="60" height="60" viewBox="0 0 60 60" fill="none" xmlns="http://www.w3.org/2000/svg">
<g clip-path="url(#clip0_552_1582)">
<path d="M28.6571 59.4305C20.2683 55.877 12.9834 50.0493 8.13765 43.0272C3.29187 36.0052 0.771577 27.9145 0.150635 17.5015C-0.0482281 14.1809 -0.0482281 10.0394 0.146577 4.83668L0.235863 2.46641L2.80891 2.07445C11.8511 0.698877 21.0029 0 30.0005 0C38.998 0 48.1458 0.698877 57.192 2.07445L59.761 2.46641L59.8544 4.83668C60.0492 10.0394 60.0492 14.1809 59.8503 17.5015C59.2294 27.9145 56.6928 36.0237 51.8633 43.0272C47.0338 50.0308 39.7326 55.877 31.3438 59.4305L30.0005 60L28.6571 59.4305Z" fill="black"/>
<path d="M30.0006 1.71191C39.0712 1.71191 48.4868 2.41449 58.0444 3.91209C58.1865 7.38799 58.3488 12.7682 58.0769 17.3276C57.4681 27.5002 55.0047 35.3949 50.3131 42.1766C45.6216 48.9583 38.4056 54.749 30.0006 58.2027C21.5956 54.749 14.3594 48.9361 9.68811 42.1766C5.01685 35.4171 2.53308 27.5002 1.92431 17.3276C1.6524 12.7682 1.81474 7.38799 1.95678 3.91209C11.5144 2.41449 20.93 1.71191 30.0006 1.71191ZM30.0006 2.69182C20.9551 2.69843 11.9255 3.38484 3.00386 4.74408C2.805 9.90247 2.805 14.0107 2.9998 17.2758C3.60045 27.2746 6.01522 35.0214 10.6013 41.6552C15.1873 48.289 22.0623 53.7691 30.0006 57.123C37.9389 53.7691 44.818 48.289 49.404 41.6552C53.9901 35.0214 56.4008 27.2746 57.0014 17.2758C57.1962 14.0107 57.1962 9.90247 57.0014 4.74408C48.0784 3.38501 39.0475 2.6986 30.0006 2.69182ZM29.9235 32.396C29.9235 32.396 30.098 33.3463 30.1548 33.6237C30.1832 33.779 30.1914 33.8233 30.1467 33.975C30.0047 34.4705 29.3513 37.07 28.8318 39.7361L28.7506 40.1576C28.5355 41.278 28.3529 42.3911 28.2433 43.3451C28.1824 43.885 28.2027 44.0144 28.361 44.4951C28.8074 45.8522 30.4552 49.3984 30.7717 50.0455C30.8064 50.1173 30.8297 50.1932 30.8407 50.271L30.9584 51.1067C30.4308 50.382 27.5574 45.5859 26.4292 42.9309C26.2993 42.6166 26.2709 42.4613 26.4211 41.8882C27.2043 38.8338 29.3269 33.6495 29.9235 32.396ZM25.7352 25.0227C25.7352 25.0227 25.9543 25.6735 26.1694 26.3797L26.2425 26.6275C26.3764 27.0897 26.4982 27.5408 26.5388 27.8293C26.5793 28.1177 26.5753 28.1805 26.4657 28.4431C26.206 29.0791 25.723 30.0997 25.2076 31.1388L24.9844 31.5862C24.3553 32.8508 23.7141 34.0748 23.4056 34.6036C23.2514 34.8624 23.1053 35.0325 22.8212 35.2988C22.1638 35.9052 20.9056 37.0552 20.1264 37.6986C19.8423 37.9316 19.7652 38.1312 19.7084 38.4345C19.6151 38.9189 19.5258 39.7472 19.4974 40.1761C19.469 40.6051 19.542 40.7271 19.7733 41.1006C21.1451 43.3266 25.7271 48.4443 27.0339 49.5167C27.1458 49.6117 27.2682 49.696 27.3992 49.7681C27.5899 49.8865 28.2149 50.2525 28.2149 50.2525C28.2393 50.2698 28.26 50.2912 28.2758 50.3154L28.503 50.6778L28.4462 50.6482L28.3448 50.6038L28.0444 50.467L27.7522 50.3376C27.3058 50.1342 26.7742 49.8901 26.4982 49.7533C26.3838 49.6954 26.2752 49.6286 26.1735 49.5537C24.6435 48.4 19.96 43.4191 18.5842 41.3372C18.2393 40.8195 18.2027 40.6494 18.2514 40.1576C18.3367 39.2443 18.4706 38.0943 18.5883 37.5914C18.6573 37.2845 18.7303 37.107 18.9901 36.837C19.8505 35.9348 20.9016 34.7441 21.9284 33.5238L22.2855 33.0912C23.8399 31.2164 25.2725 29.3416 25.8042 28.3876C25.9259 28.1695 25.9381 28.0918 25.9381 27.8884C25.9462 27.2931 25.7392 26.132 25.6824 25.8399C25.6736 25.7935 25.6708 25.7463 25.6743 25.6993L25.7352 25.0227ZM38.4787 23.9059L38.8724 24.0612C38.9903 24.1077 39.0967 24.1757 39.1849 24.2609C41.6159 26.5646 43.5558 28.9497 43.9454 29.5783C44.0202 29.6953 44.0685 29.8248 44.0875 29.9592C44.5258 33.3204 44.1524 36.8777 43.2595 39.9727C43.1784 40.2501 43.0891 40.3943 42.7928 40.5977C41.8431 41.2448 40.4227 42.2838 39.0104 43.3414L38.5639 43.6742C36.8472 44.9684 35.2157 46.2294 34.542 46.7988C34.3834 46.9338 34.2443 47.0866 34.128 47.2536C33.8074 47.7233 33.3042 48.5626 33.0607 48.9768L32.9917 49.0877L32.9146 49.2172C32.598 48.5848 31.9 47.0355 31.6605 46.4106C31.5793 46.2072 31.5672 46.0999 31.6483 45.8263C32.042 44.5284 33.8845 40.7567 34.2417 40.0726V40.3536L34.2214 40.4682C34.0631 40.9083 33.0647 43.8887 32.8659 45.1829C32.8172 45.4676 32.8212 45.5453 32.8659 45.8263C32.9511 46.429 33.3488 47.531 33.3488 47.531C33.4868 47.2746 33.6399 47.0253 33.8074 46.784C33.9036 46.6461 34.0196 46.5205 34.1524 46.4106C35.0412 45.6118 36.555 44.3805 38.1297 43.1417L38.6857 42.7054C39.8992 41.7588 41.1045 40.8417 42.0623 40.1391C42.3099 39.9579 42.4032 39.8359 42.456 39.4883C42.7319 37.78 42.8091 34.7145 42.6427 32.4811C42.6146 32.0627 42.4632 31.659 42.2043 31.3126C41.6078 30.5064 40.8894 29.7447 39.8058 28.7685C39.6484 28.6285 39.5422 28.4477 39.5014 28.2508C39.1849 26.7162 38.4787 23.9059 38.4787 23.9059ZM17.9876 27.4595C18.137 27.4145 18.2972 27.4081 18.4503 27.441C19.1443 27.5926 20.6094 27.9217 21.7173 28.1768C21.8922 28.2283 22.0435 28.331 22.1475 28.469L22.387 28.8351C22.4293 28.8974 22.4531 28.9687 22.456 29.042C22.4588 29.1153 22.4406 29.188 22.4032 29.2529C22.2043 29.6079 21.9162 30.0886 21.6118 30.5841L21.3845 30.9576C20.9584 31.638 20.5404 32.2962 20.3009 32.6401C20.1427 32.8693 20.0534 32.9692 19.7733 33.0616C18.6857 33.4092 17.3302 33.827 16.5266 34.0637C16.3643 34.1118 16.3074 34.2005 16.3399 34.3669C16.3967 34.6701 16.5834 35.6944 16.6524 35.9939C16.6808 36.1049 16.7782 36.1899 16.9568 36.1603C17.4316 36.079 18.6979 35.798 18.6979 35.798L18.1013 36.2935C18.0616 36.3296 18.0129 36.3563 17.9592 36.3711C17.6143 36.4746 16.7742 36.6891 16.5104 36.7409C16.3074 36.7816 16.1776 36.7076 16.1248 36.5005C16.1248 36.5005 15.7636 35.1102 15.6337 34.6369C15.6134 34.5666 15.5931 34.5037 15.5688 34.4335C15.4714 34.1598 15.2401 33.62 15.1061 33.3389C15.0889 33.3068 15.0819 33.271 15.0858 33.2354C15.0899 32.9137 15.1548 32.1963 15.1548 32.1963C15.1548 32.1963 15.93 32.8582 16.3034 33.0949C16.3886 33.1503 16.4373 33.1614 16.5428 33.1356C17.0582 33.0172 18.2393 32.6622 18.8927 32.4404C19.0395 32.3883 19.1694 32.303 19.2701 32.1926C19.9438 31.4568 20.788 30.3068 21.275 29.4415C21.3395 29.322 21.3525 29.1848 21.3115 29.0569L21.206 28.7426C21.1854 28.6921 21.1539 28.6458 21.1135 28.6065C21.0731 28.5671 21.0245 28.5354 20.9706 28.5133C19.822 28.1177 18.9211 27.8219 17.8578 27.4965L17.9876 27.4595ZM40.65 18.5183C40.9017 18.4353 41.1785 18.4419 41.4251 18.5368C43.3448 19.2689 46.5753 20.9921 48.3691 22.2086C48.5436 22.3233 48.6126 22.4046 48.6573 22.5932C49.0793 24.3386 49.2417 27.0305 48.9738 29.2973C48.9574 29.4501 48.9077 29.5984 48.8277 29.7336C47.6873 31.845 46.4089 33.8344 45.0615 35.369V35.3468C45.0777 35.1804 45.1751 34.2597 45.1792 33.7605C45.179 33.7332 45.1859 33.7062 45.1993 33.6818C45.2127 33.6574 45.2322 33.6362 45.2563 33.62C45.5079 33.4425 45.8529 33.191 46.0477 33.0394C46.1249 32.9822 46.1908 32.9135 46.2425 32.836C46.7904 32.0299 47.7725 30.3437 48.1703 29.3269C48.2653 29.079 48.3026 28.8158 48.2798 28.554C48.154 27.1415 47.9105 25.178 47.5453 23.8985C47.5153 23.7907 47.4604 23.6901 47.384 23.6033C47.3077 23.5165 47.2118 23.4457 47.1029 23.3956C46.7904 23.2477 46.1735 22.9926 44.7693 22.4823C44.5745 22.412 44.3936 22.3133 44.2336 22.1902C43.3123 21.4876 41.8756 20.4337 40.9787 19.8273C40.8495 19.7396 40.7009 19.6786 40.5432 19.6486C40.3855 19.6185 40.2225 19.6202 40.0655 19.6535C39.4121 19.7866 38.5842 19.9752 38.1175 20.0898C37.9927 20.1248 37.8606 20.1324 37.7319 20.112L37.4194 20.0861L37.2449 20.0713L36.7742 20.0381H36.7417C38.2636 19.3873 39.7287 18.8289 40.6459 18.522L40.65 18.5183ZM20.3415 29.9555C19.8626 30.6691 19.2944 31.4235 18.8642 31.8968C18.8082 31.9601 18.7336 32.0075 18.6492 32.0336C18.1784 32.1963 17.3951 32.4367 16.8188 32.5957L20.3415 29.9555ZM14.0509 29.0236L13.7668 30.7838L12.8131 29.7632C12.9876 29.423 13.4949 29.0976 14.0509 29.0236ZM19.193 19.0471L18.9332 19.3392L18.8886 19.3799C18.6613 19.5315 17.6954 20.2045 17.4316 20.393C17.366 20.4377 17.3223 20.5041 17.3099 20.5779C17.253 20.8775 17.1556 21.4432 17.1272 21.7575C17.1151 21.8463 17.0745 21.8943 16.969 21.9313C16.5225 22.0977 15.9909 22.2715 15.5607 22.4268C15.4987 22.4455 15.4409 22.4744 15.3902 22.5119C15.3456 22.5414 14.7733 23.0037 14.7733 23.0037C14.7733 23.0037 16.0152 22.7263 16.4698 22.6339C16.5121 22.6223 16.5566 22.6187 16.6005 22.6231C16.6444 22.6275 16.6869 22.64 16.7255 22.6598C16.8229 22.7005 16.9771 22.7559 17.0623 22.7818C17.1475 22.8077 17.253 22.8225 17.3951 22.7966C17.9065 22.6931 18.7709 22.5045 19.2295 22.3972C19.437 22.3535 19.632 22.2703 19.8018 22.1532C20.0209 22.0164 20.581 21.6355 20.581 21.6355C20.581 21.6355 20.5688 21.7021 20.5607 21.739C20.5581 21.7675 20.5436 21.794 20.5201 21.813C20.4065 21.9387 20.2076 22.1384 20.1102 22.2308C19.8829 22.4453 19.749 22.5193 19.4649 22.6265C18.1581 23.122 15.93 23.8911 14.2579 24.4162C14.1646 24.4405 14.0813 24.4894 14.0185 24.5567C13.9292 24.6381 13.8115 24.7564 13.8115 24.7564C13.8115 24.7564 15.1751 24.8452 15.5931 24.8895C15.7172 24.8992 15.8342 24.946 15.9259 25.0227C16.2709 25.2926 17.4032 26.3502 17.7441 26.7199C17.7441 26.7199 14.5217 27.208 13.0282 27.5445C12.9515 27.5589 12.8809 27.593 12.8248 27.6428C12.7687 27.6926 12.7294 27.7561 12.7117 27.8256C12.5858 28.2212 12.2936 29.4859 12.2936 29.4859C12.2079 29.4581 12.125 29.4235 12.0461 29.3823C11.949 29.3294 11.8626 29.2619 11.7904 29.1826C11.4373 28.8424 10.8569 28.1953 10.5769 27.8182C10.4957 27.7072 10.4592 27.5667 10.5607 27.4521C10.8651 27.1119 11.4738 26.4944 11.8066 26.1801C11.8578 26.1246 11.9014 26.0638 11.9365 25.9989C12.0501 25.7955 12.2003 25.2778 12.249 25.0929L12.2652 25.0337V25.0227L12.2571 25.03L12.1962 25.0633L11.9203 25.2223C11.835 25.2704 11.8107 25.2926 11.7742 25.3628C11.7376 25.4331 11.624 25.6291 11.5509 25.74C11.5182 25.7844 11.4785 25.8243 11.4332 25.8583C11.003 26.1579 10.5323 26.4759 10.1954 26.6903C10.1843 26.6972 10.1708 26.7002 10.1574 26.6989C10.144 26.6975 10.1316 26.6919 10.1224 26.6829C10.0777 26.6423 9.89915 26.4574 9.86668 26.413C9.83949 26.38 9.82521 26.3396 9.8261 26.2984C9.8261 26.2207 9.83422 26.0876 9.84233 25.9841C9.85045 25.8805 9.89104 25.8066 10.0534 25.655C10.2157 25.5034 10.4308 25.3111 10.6378 25.1262C11.141 24.7416 12.4194 23.8024 14.6922 22.3233C14.7356 22.2972 14.774 22.2647 14.8058 22.2271C15.0453 21.9313 15.723 21.1326 15.8935 20.9403C15.916 20.9142 15.9419 20.8906 15.9706 20.8701C16.1847 20.7128 16.4097 20.5683 16.6443 20.4374C17.2774 20.075 18.5071 19.4131 19.193 19.0471ZM33.0647 18.3926C33.1614 18.3788 33.2603 18.3917 33.3488 18.4295L34.0104 18.718C34.0428 18.7321 34.0713 18.7528 34.0938 18.7784C34.1163 18.804 34.1322 18.8339 34.1402 18.8659C34.2336 19.2098 34.3431 19.6683 34.4162 20.0565C34.4472 20.2182 34.4142 20.3847 34.3229 20.5262C34.0469 20.9625 33.4828 21.7427 33.1662 22.1643C33.0972 22.2567 33.0891 22.3714 33.1094 22.4823C33.2555 23.2033 33.8521 25.7178 33.8521 25.7178L33.4746 25.4072C33.4043 25.3486 33.3513 25.2749 33.3204 25.1927C33.0526 24.4791 32.5534 22.9926 32.322 22.2715C32.3037 22.2134 32.3011 22.152 32.3145 22.0927C32.328 22.0335 32.357 21.9781 32.3992 21.9313C32.7928 21.4987 33.361 20.8035 33.6979 20.3672C33.7912 20.2414 33.8196 20.1083 33.7668 20.0048C33.7141 19.9012 33.5599 19.6461 33.4341 19.4464C33.401 19.3913 33.3457 19.3502 33.2798 19.3318L32.8293 19.2024C32.7516 19.1778 32.6667 19.1791 32.5899 19.2061C31.6037 19.5278 30.2847 19.9974 29.473 20.3006C29.3553 20.345 29.3066 20.3487 29.1646 20.3302C28.9292 20.2969 28.2474 20.186 27.9146 20.1305C27.9008 20.1275 27.8879 20.1216 27.877 20.1134C27.8661 20.1052 27.8573 20.0948 27.8515 20.083C27.8456 20.0713 27.8428 20.0584 27.8431 20.0455C27.8435 20.0326 27.8471 20.0199 27.8537 20.0085L28.2514 19.3836C28.2778 19.3417 28.3134 19.3053 28.356 19.2766C28.3986 19.248 28.4473 19.2277 28.499 19.2172C29.7733 18.9546 31.4617 18.6514 33.0647 18.3926ZM18.9495 21.262C18.9791 21.2598 19.0087 21.2661 19.0342 21.28C19.0597 21.294 19.0797 21.3148 19.0915 21.3397C19.1264 21.4234 19.1426 21.5127 19.1391 21.6022C19.1356 21.6918 19.1125 21.7798 19.0712 21.8611C19.051 21.8965 19.0229 21.9276 18.9886 21.9524C18.9544 21.9773 18.9148 21.9953 18.8724 22.0053L18.2352 22.131C18.2264 22.1328 18.2173 22.1327 18.2086 22.1306C18.1999 22.1286 18.1919 22.1247 18.1852 22.1193C18.1784 22.1139 18.1732 22.1071 18.1699 22.0995C18.1666 22.0919 18.1653 22.0837 18.1662 22.0755L18.223 21.3988C18.2249 21.3759 18.2358 21.3543 18.2536 21.338C18.2715 21.3217 18.2952 21.3118 18.3204 21.3101L18.9495 21.262ZM26.1938 16.784C26.2105 16.7838 26.227 16.7876 26.2415 16.7951C26.2561 16.8027 26.2681 16.8136 26.2764 16.8269C26.2847 16.8401 26.2889 16.8551 26.2887 16.8703C26.2884 16.8856 26.2837 16.9005 26.275 16.9134L24.7246 19.3429C24.6356 19.4849 24.4904 19.5907 24.3188 19.6387L21.4089 20.467C21.0921 20.5558 20.7654 20.6116 20.4349 20.6334C19.7896 20.6778 17.8699 20.7332 17.8699 20.7332L17.9146 20.6482C17.9339 20.6096 17.9688 20.5791 18.012 20.5631L18.9211 20.2119C18.9876 20.1856 19.0461 20.145 19.0915 20.0935L20.4957 18.5257C20.5815 18.4359 20.683 18.3596 20.7961 18.3001C21.7255 17.8601 23.3529 17.2019 24.4974 16.8543C24.6172 16.8209 24.7414 16.8022 24.8667 16.7988L26.1938 16.784ZM24.6354 14.1068C27.8456 13.8517 32.1881 13.7814 36.3399 14.0662C36.5763 14.0811 36.8082 14.1323 37.0258 14.2178C38.3894 14.7355 40.8042 15.8744 43.4868 17.2721C43.5976 17.3263 43.7012 17.3921 43.7953 17.4681C44.4892 18.0191 46.3318 19.7311 46.3318 19.7311L45.7677 19.6276C45.6908 19.6137 45.6176 19.5861 45.5526 19.5463C44.4121 18.8511 42.7482 17.9451 41.3561 17.3091C41.1945 17.2363 41.02 17.19 40.8407 17.1723C40.163 17.1057 39.2457 17.0466 38.6492 17.0244C38.3751 17.0204 38.1063 16.9556 37.8659 16.8358C37.3139 16.5843 35.9787 16.0334 35.3131 15.8004C35.025 15.7043 34.8829 15.6784 34.6029 15.6821C33.4584 15.6969 30.8529 15.7745 29.5258 15.8485C29.4798 15.851 29.4336 15.8498 29.3878 15.8448L28.7547 15.7523C30.5526 15.4713 34.9966 15.1126 36.835 15.0239L36.0883 14.7946C35.9436 14.753 35.7934 14.7294 35.6418 14.7244C35.2401 14.717 34.3513 14.7022 33.1987 14.6985H32.805C31.0599 14.7022 28.8196 14.7429 26.7457 14.8834C26.5577 14.8954 26.3735 14.9379 26.2019 15.0091C25.3537 15.3493 23.3245 16.3477 21.2953 17.3757L20.8407 17.6049C20.3091 17.8712 19.7855 18.1411 19.2904 18.3926L19.5948 18.0376C19.6254 17.9991 19.664 17.9664 19.7084 17.9414L20.3578 17.5532L20.5647 17.4274L20.9746 17.1797L21.0964 17.0983C21.7092 16.6768 22.6792 15.9335 23.2595 15.4713C23.3909 15.3678 23.5045 15.2469 23.5964 15.1126C23.7831 14.8353 23.9901 14.5358 24.1159 14.3694C24.1753 14.2929 24.2529 14.2297 24.3428 14.1842C24.4327 14.1388 24.5327 14.1123 24.6354 14.1068ZM10.9341 7.35101C11.7336 7.27336 12.1841 7.55809 12.1841 8.29394V8.7007C12.1841 9.45874 11.7336 9.76566 10.9219 9.84331C9.80716 9.95178 8.69109 10.0664 7.57367 10.1872V11.2522L6.9162 11.3261V7.77256C8.25142 7.61725 9.59477 7.47674 10.9341 7.35101ZM47.7441 7.25117C49.5001 7.40648 51.256 7.58521 53.012 7.78735V8.3679C52.2449 8.27915 51.4738 8.1941 50.7068 8.11645V11.0377L50.0493 10.9674V8.0314C49.2823 7.95375 48.5112 7.88349 47.7441 7.81693V7.25117ZM18.7668 6.80374V7.36211C17.3423 7.43976 15.9138 7.5359 14.4893 7.64683V8.5306C15.8042 8.42706 17.1232 8.33832 18.4381 8.26066V8.85231C17.1232 8.92996 15.8042 9.01871 14.4893 9.12224V10.0615C15.9138 9.95054 17.3423 9.8544 18.7668 9.77305V10.3351C17.1191 10.4288 15.4727 10.541 13.8277 10.6716V7.14024C15.4755 7.01205 17.1218 6.89988 18.7668 6.80374ZM41.1573 7.79105C41.1573 7.01452 41.5834 6.85551 42.5371 6.91468C43.3732 6.96644 44.2133 7.02191 45.0493 7.08477C45.8854 7.14764 46.4251 7.35841 46.4251 8.14973V9.6954C46.4251 10.5163 45.9016 10.6272 44.9032 10.5348C44.2539 10.4719 43.6045 10.4165 42.9511 10.3943C41.766 10.3499 41.1573 10.2759 41.1573 9.33671V7.79105ZM34.5745 6.5412C36.2195 6.57571 37.8659 6.63118 39.5136 6.7076V7.28445L35.2279 7.08477V7.98703C36.5428 8.02401 37.5371 8.06838 38.8521 8.12754V8.71549C37.5371 8.66002 36.5428 8.61195 35.2279 8.57867V9.55119C36.766 9.59186 37.9755 9.64363 39.5136 9.71758V10.2316C37.8659 10.1576 36.2181 10.0985 34.5745 10.0652V6.5412ZM25.6824 6.58188V9.10006C25.6824 10.0393 25.0493 10.1243 23.7709 10.1132C23.2466 10.109 22.7224 10.1287 22.2003 10.1724C21.1045 10.2612 20.4146 10.1909 20.4146 9.28125V6.72979L21.072 6.70021V9.3552C21.072 9.51791 21.2263 9.65103 21.4332 9.63993C22.5168 9.59556 23.5964 9.55858 24.68 9.529C24.7251 9.52949 24.7699 9.52181 24.8117 9.50642C24.8535 9.49103 24.8916 9.46823 24.9237 9.43934C24.9558 9.41045 24.9812 9.37604 24.9986 9.33811C25.016 9.30018 25.025 9.25949 25.025 9.21839V6.59667L25.6824 6.58188ZM42.1638 7.45085C42.1189 7.44661 42.0735 7.45118 42.0307 7.46423C41.9878 7.47729 41.9486 7.49854 41.9155 7.52656C41.8825 7.55458 41.8564 7.58872 41.839 7.62668C41.8216 7.66464 41.8133 7.70556 41.8147 7.74667V9.45504C41.8183 9.54015 41.8556 9.62119 41.9198 9.68309C41.984 9.74499 42.0707 9.78353 42.1638 9.79154C43.2514 9.8581 44.3364 9.93329 45.4186 10.0171C45.5931 10.0282 45.7677 9.88398 45.7677 9.72498V8.01661C45.7677 7.83542 45.5931 7.68751 45.4186 7.67272C44.335 7.59137 43.2514 7.51371 42.1638 7.45085ZM28.6005 6.49313C29.8261 6.48573 31.049 6.48943 32.2693 6.50422V7.05889C30.9584 7.0404 29.6516 7.0404 28.3407 7.0478C28.1662 7.05149 27.9876 7.18831 27.9876 7.35101V9.14813C27.9876 9.23443 28.0253 9.3172 28.0922 9.37822C28.1592 9.43925 28.2501 9.47353 28.3448 9.47353C29.542 9.46244 30.7392 9.46614 31.9405 9.47723V8.5306L29.9641 8.51951V7.93526C30.8407 7.93526 31.7173 7.93896 32.598 7.95375V10.0504C31.3155 10.0319 30.029 10.0282 28.7466 10.0356C27.805 10.043 27.3302 9.89508 27.3302 9.06678V7.51372C27.3302 6.75197 27.7522 6.50053 28.6005 6.49313ZM11.1573 7.90198C9.96409 8.01291 8.76685 8.13494 7.57367 8.26806V9.61405C8.76685 9.48093 9.96409 9.3589 11.1573 9.24797C11.3399 9.22948 11.5266 9.07787 11.5266 8.91887V8.17562C11.5266 8.00922 11.3399 7.88349 11.1573 7.90198Z" fill="white"/>
</g>
<defs>
<clipPath id="clip0_552_1582">
<rect width="60" height="60" fill="white"/>
</clipPath>
</defs>
</svg>
