<svg width="360" height="297" viewBox="0 0 360 297" fill="none" xmlns="http://www.w3.org/2000/svg">
<g clip-path="url(#clip0_335_698)">
<path d="M179.573 264.924C179.518 247.21 193.792 232.919 211.62 232.888C229.011 232.916 243.296 247.207 243.647 264.924C243.3 282.441 229.015 296.731 211.62 296.979C193.792 296.731 179.519 282.441 179.573 264.924ZM211.621 285.17C221.245 285.022 229.213 275.976 229.312 264.924C229.213 253.66 221.245 244.615 211.621 244.678C201.58 244.612 193.593 253.658 193.911 264.924C193.593 275.975 201.58 285.021 211.621 285.17ZM279.896 246.366V295.292H266.416V246.366H247.02V235.42H298.45V246.366H279.896ZM314.458 281.781L309.411 295.293H293.404L318.69 235.42H335.542L360 295.293H343.992L338.933 281.781H314.458ZM327.124 271.673H335.542L327.124 249.739L318.69 271.673H327.124ZM32.0332 246.366V295.292H18.5445V246.366H0V235.42H50.5866V246.366H32.0332ZM53.9597 264.924C53.9863 247.21 68.2522 232.919 85.9814 232.888C103.482 232.916 117.769 247.207 118.027 264.924C117.769 282.441 103.482 296.731 85.9814 296.979C68.2522 296.731 53.9851 282.441 53.9597 264.924ZM85.9814 285.17C95.7198 285.022 103.681 275.976 103.69 264.924C103.68 253.66 95.7198 244.615 85.9814 244.678C76.0399 244.612 68.0643 253.658 68.2967 264.924C68.0643 275.975 76.0399 285.021 85.9814 285.17ZM148.379 295.292H155.116V272.516L178.729 235.42H163.559L148.379 260.707L134.042 235.42H118.029L141.642 272.516V295.292H148.379Z" fill="#AB002F"/>
<path d="M10.8545 103.627C10.8545 160.755 85.1189 207.236 176.399 207.236C267.677 207.236 341.943 160.755 341.943 103.627C341.942 46.4937 267.677 0.0195312 176.397 0.0195312C85.1176 0.0195312 10.8545 46.4937 10.8545 103.627ZM15.9345 103.627C15.9345 49.3061 87.9167 5.10965 176.399 5.10965C264.878 5.10965 336.863 49.3061 336.863 103.627C336.863 157.959 264.878 202.154 176.399 202.154C87.9167 202.153 15.9345 157.96 15.9345 103.627Z" fill="black"/>
<path d="M160.757 18.8544C122.011 21.2209 93.8696 31.4926 89.0728 45.0252C88.5843 46.3888 88.3326 47.8259 88.3286 49.2744C88.3286 51.5571 88.9737 53.8399 90.2539 56.0222C95.6311 65.1862 112.323 72.7433 136.075 76.7968L138.59 77.2084L139.012 74.6957C142.911 50.9067 151.469 32.2002 162.502 23.3678L168.752 18.3577L160.757 18.8544ZM94.6392 53.46C93.8112 52.0513 93.4035 50.6615 93.4035 49.2922C93.4035 48.4283 93.5521 47.5849 93.8594 46.7261C97.5208 36.3884 122.394 27.3591 154.168 24.4462C145.104 34.7014 138.134 51.2268 134.498 71.304C113.85 67.4829 99.0042 60.9028 94.6392 53.46ZM153.673 76.2163L153.176 78.9805L155.979 79.1939C162.626 79.6906 169.498 79.9586 176.393 79.9586C183.294 79.9586 190.17 79.6906 196.818 79.1939L199.616 78.9805L199.118 76.2163C195.297 54.7507 186.795 41.9282 176.397 41.9282C165.99 41.9282 157.493 54.7507 153.673 76.2163ZM176.398 47.0094C183.507 47.0094 190.071 57.6584 193.529 74.2816C187.907 74.6487 182.18 74.8774 176.393 74.8774C170.613 74.8774 164.884 74.6487 159.268 74.2816C162.716 57.6584 169.29 47.0094 176.398 47.0094ZM190.289 23.3703C201.318 32.2027 209.885 50.9118 213.784 74.6983L214.201 77.2109L216.711 76.7994C240.474 72.7458 257.175 65.1862 262.533 56.0235C264.617 52.5022 265.013 48.6989 263.724 45.029C258.929 31.4977 230.786 21.226 192.043 18.8569L184.057 18.3602L190.289 23.3703ZM198.638 24.4462C230.403 27.3591 255.275 36.4049 258.926 46.7261C259.244 47.5849 259.392 48.4283 259.392 49.2922C259.392 50.6615 258.976 52.0513 258.167 53.46C253.786 60.9015 238.935 67.4829 218.298 71.304C214.662 51.2281 207.702 34.7027 198.638 24.4462ZM64.5568 54.9984C47.1438 69.5878 37.9414 86.9199 37.9414 105.13C37.9414 147.967 90.1637 184.176 159.408 189.336L167.142 189.916L161.253 184.885C146.083 171.903 136.662 141.104 136.662 104.5L136.821 95.8514L134.697 95.4195C98.2752 88.8901 72.3634 73.5715 68.6741 56.4173L67.7914 52.299L64.5568 54.9984ZM43.0265 105.13C43.0265 89.5151 50.6414 74.5293 64.939 61.5138C71.6002 78.8471 96.4896 93.2867 131.671 100.005C131.627 101.99 131.587 104.5 131.587 104.5C131.587 138.44 139.639 167.751 152.919 183.565C89.8259 176.831 43.0265 143.868 43.0265 105.13ZM151.604 100.552L151.588 101.474C151.588 135.498 162.254 161.167 176.398 161.167C190.537 161.167 201.203 135.498 201.203 101.474L201.169 97.8026L198.441 98.0364C191.248 98.6664 183.841 98.9789 176.4 98.9789C168.959 98.9789 161.543 98.6664 154.368 98.0364L151.63 97.7886L151.604 100.552ZM196.093 103.279C195.711 134.936 185.74 156.089 176.398 156.089C167.047 156.089 157.075 134.936 156.703 103.279C163.162 103.755 169.76 104.053 176.398 104.053C183.046 104.053 189.625 103.755 196.093 103.279ZM284.113 56.4173C280.427 73.5715 254.51 88.8889 218.1 95.4195L215.966 95.8159L216.135 104.498C216.135 141.102 206.709 171.903 191.544 184.883L185.655 189.915L193.379 189.335C262.629 184.175 314.853 147.966 314.853 105.128C314.853 86.9186 305.64 69.5866 288.228 54.9971L285.003 52.2977L284.113 56.4173ZM287.848 61.5138C302.156 74.5293 309.776 89.5151 309.776 105.13C309.776 143.868 262.979 176.831 199.879 183.565C213.159 167.751 221.211 138.44 221.211 104.5C221.211 104.5 221.161 101.988 221.127 100.005C256.297 93.2867 281.185 78.8458 287.848 61.5138Z" fill="black"/>
<path d="M285.913 43.3385C286.147 43.9838 286.36 44.6418 286.528 45.3036C287.486 49.1095 287.288 52.8467 286.047 56.4887C302.567 70.1152 312.305 86.9214 312.305 105.131C312.305 150.583 251.455 187.437 176.398 187.437C101.336 187.437 40.4901 150.583 40.4901 105.131C40.4901 86.9366 50.2386 70.1165 66.7384 56.4887C65.5078 52.8467 65.3096 49.1095 66.2672 45.3036C66.4654 44.5815 66.7294 43.879 67.0559 43.2051C44.5134 59.2694 30.8457 80.3221 30.8457 103.379C30.8457 153.724 96.0068 194.533 176.396 194.533C256.776 194.533 321.947 153.724 321.947 103.379C321.95 80.3704 308.336 59.3659 285.913 43.3385Z" fill="url(#paint0_linear_335_698)"/>
<path d="M196.618 76.6635C190.204 77.1449 183.442 77.4079 176.392 77.4079C169.348 77.4079 162.591 77.1449 156.176 76.6635H156.156L151.964 79.7097C159.698 80.3842 167.866 80.7666 176.396 80.7666C184.928 80.7666 193.094 80.3842 200.833 79.7097L196.618 76.6635ZM270.965 44.7267C265.856 27.8354 223.738 15.4309 176.397 15.4309C129.065 15.4309 86.9476 27.838 81.8384 44.7267C77.4036 59.3797 101.612 72.9415 139.806 78.3199L136.488 74.2791C105.591 69.02 87.227 57.8058 91.4637 45.8827C96.5983 31.4063 133.893 20.9237 176.394 20.9237C218.893 20.9237 256.196 31.4088 261.326 45.8827C265.558 57.807 247.202 69.0213 216.298 74.2791L212.991 78.3199C251.171 72.9415 275.396 59.3797 270.965 44.7267Z" fill="url(#paint1_linear_335_698)"/>
<path d="M156.228 76.6635C159.775 56.9483 167.47 44.6277 176.394 44.6277C185.329 44.6277 193.017 56.9483 196.569 76.6635H196.64L200.79 79.6754C197.287 53.6392 187.693 37.0007 176.4 37.0007C165.1 37.0007 155.51 53.6392 152.013 79.6754L156.161 76.6635H156.228Z" fill="url(#paint2_linear_335_698)"/>
<path d="M202.046 94.4275L198.653 100.566C198.653 101.013 198.673 101.473 198.673 101.939C198.673 134.619 188.682 159.397 176.395 159.397C164.096 159.397 154.125 134.616 154.125 101.939C154.125 101.423 154.136 100.911 154.146 100.417L150.747 94.4275C150.647 96.9186 150.598 99.4114 150.599 101.905C150.599 138.956 162.148 167.022 176.4 167.022C190.652 167.022 202.211 138.956 202.211 101.905C202.206 99.4113 202.151 96.9185 202.046 94.4275Z" fill="url(#paint3_linear_335_698)"/>
<path d="M139.861 78.3353C144.743 42.1468 159.254 15.4285 176.399 15.4285C158.018 15.4285 142.351 39.0993 136.537 74.3503L139.811 78.3353H139.861Z" fill="url(#paint4_linear_335_698)"/>
<path d="M212.94 78.3353H212.975L216.249 74.3503C210.445 39.0993 194.768 15.4285 176.397 15.4285C193.542 15.431 208.064 42.1468 212.94 78.3353Z" fill="url(#paint5_linear_335_698)"/>
<path d="M218.531 97.9006L214.364 92.9236H214.329C214.563 96.878 214.696 100.897 214.696 104.98C214.696 154.438 197.546 194.53 176.398 194.53C200.111 194.53 218.665 157.346 218.665 104.98C218.665 102.584 218.616 100.234 218.531 97.9006Z" fill="url(#paint6_linear_335_698)"/>
<path d="M138.109 104.981C138.109 100.899 138.243 96.8793 138.471 92.9248H138.443L134.266 97.8866C134.178 100.25 134.132 102.616 134.128 104.981C134.128 157.347 152.697 194.531 176.4 194.531C155.259 194.531 138.109 154.438 138.109 104.981Z" fill="url(#paint7_linear_335_698)"/>
<path d="M286.047 56.4872C292.362 61.698 297.69 67.3839 301.857 73.4229C300.414 63.8184 296.594 54.727 290.744 46.9752C289.166 45.7204 287.554 44.5081 285.911 43.3395C286.146 43.9849 286.359 44.6429 286.524 45.3047C287.485 49.1093 287.287 52.8452 286.047 56.4872ZM66.7395 56.4872C65.5089 52.8452 65.3108 49.108 66.2683 45.3022C66.4665 44.58 66.7305 43.8775 67.057 43.2036C65.3629 44.4263 63.6942 45.6838 62.0519 46.9752C56.2106 54.7319 52.3916 63.8211 50.9395 73.4229C55.1063 67.3839 60.4238 61.6967 66.7395 56.4872Z" fill="#2D2F34"/>
<path d="M13.3945 103.627C13.3945 47.8174 86.3686 2.56396 176.399 2.56396C266.416 2.56396 339.392 47.8174 339.392 103.627C339.392 159.448 266.416 204.685 176.399 204.685C86.3686 204.684 13.3945 159.449 13.3945 103.627ZM176.398 194.531C256.778 194.531 321.948 153.723 321.948 103.378C321.948 53.0281 256.778 12.2056 176.398 12.2056C96.0066 12.2056 30.8418 53.0307 30.8418 103.378C30.8418 153.723 96.0079 194.531 176.398 194.531Z" fill="url(#paint8_linear_335_698)"/>
<path d="M138.109 104.981C138.109 56.0426 155.259 15.4309 176.397 15.4309C197.545 15.4309 214.697 56.0426 214.697 104.981C214.697 154.439 197.545 194.531 176.397 194.531C155.249 194.531 138.109 154.438 138.109 104.981ZM176.397 167.022C190.65 167.022 202.21 138.955 202.21 101.92C202.21 63.4841 190.649 37.002 176.397 37.002C162.145 37.002 150.596 63.4841 150.596 101.92C150.596 138.955 162.145 167.022 176.397 167.022Z" fill="url(#paint9_linear_335_698)"/>
<path d="M66.2685 45.3022C70.4697 28.665 121.277 4.45044 176.398 4.45044C231.513 4.45044 280.576 21.752 286.528 45.3022C293.191 71.6992 244.226 95.5886 176.398 95.5886C108.558 95.5886 59.596 71.7004 66.2685 45.3022ZM176.398 15.431C129.065 15.431 86.9479 27.838 81.8387 44.7268C76.1136 63.648 118.152 80.7666 176.398 80.7666C234.655 80.7666 276.686 63.6454 270.966 44.7268C265.856 27.8355 223.741 15.431 176.398 15.431Z" fill="url(#paint10_linear_335_698)"/>
<path d="M150.695 94.378L150.724 94.3983L154.222 100.566C161.34 101.174 168.743 101.522 176.397 101.522C184.087 101.522 191.508 101.175 198.673 100.55L202.077 94.3958L202.097 94.3755C193.912 95.1542 185.329 95.5861 176.4 95.5861C167.817 95.591 159.239 95.1879 150.695 94.378ZM287.103 51.0098C286.229 69.884 257.224 86.6063 214.349 92.9083L214.364 92.9235L218.546 97.9222C260.498 90.3791 288.096 71.8504 287.103 51.0098ZM65.6929 51.0098C64.701 71.8707 92.2968 90.3778 134.241 97.9222L138.433 92.9235L138.443 92.9083C95.5607 86.6076 66.5755 69.8852 65.6929 51.0098Z" fill="url(#paint11_linear_335_698)"/>
</g>
<defs>
<linearGradient id="paint0_linear_335_698" x1="176.396" y1="183.273" x2="176.396" y2="68.1132" gradientUnits="userSpaceOnUse">
<stop stop-color="#F0F3F5"/>
<stop offset="0.056" stop-color="#E2E5E8"/>
<stop offset="0.138" stop-color="#D4D8DD"/>
<stop offset="0.242" stop-color="#CCD0D6"/>
<stop offset="0.44" stop-color="#CACED4"/>
<stop offset="0.568" stop-color="#B3B7BD"/>
<stop offset="0.835" stop-color="#797C83"/>
<stop offset="1" stop-color="#52545C"/>
</linearGradient>
<linearGradient id="paint1_linear_335_698" x1="176.401" y1="95.5275" x2="176.401" y2="33.125" gradientUnits="userSpaceOnUse">
<stop stop-color="#F0F3F5"/>
<stop offset="0.056" stop-color="#E2E5E8"/>
<stop offset="0.138" stop-color="#D4D8DD"/>
<stop offset="0.242" stop-color="#CCD0D6"/>
<stop offset="0.44" stop-color="#CACED4"/>
<stop offset="0.568" stop-color="#B3B7BD"/>
<stop offset="0.835" stop-color="#797C83"/>
<stop offset="1" stop-color="#52545C"/>
</linearGradient>
<linearGradient id="paint2_linear_335_698" x1="197.112" y1="84.058" x2="158.149" y2="51.3721" gradientUnits="userSpaceOnUse">
<stop stop-color="#F0F3F5"/>
<stop offset="0.056" stop-color="#E2E5E8"/>
<stop offset="0.138" stop-color="#D4D8DD"/>
<stop offset="0.242" stop-color="#CCD0D6"/>
<stop offset="0.44" stop-color="#CACED4"/>
<stop offset="0.568" stop-color="#B3B7BD"/>
<stop offset="0.835" stop-color="#797C83"/>
<stop offset="1" stop-color="#52545C"/>
</linearGradient>
<linearGradient id="paint3_linear_335_698" x1="201.073" y1="138.449" x2="144.263" y2="105.657" gradientUnits="userSpaceOnUse">
<stop stop-color="#F0F3F5"/>
<stop offset="0.056" stop-color="#E2E5E8"/>
<stop offset="0.138" stop-color="#D4D8DD"/>
<stop offset="0.242" stop-color="#CCD0D6"/>
<stop offset="0.44" stop-color="#CACED4"/>
<stop offset="0.568" stop-color="#B3B7BD"/>
<stop offset="0.835" stop-color="#797C83"/>
<stop offset="1" stop-color="#52545C"/>
</linearGradient>
<linearGradient id="paint4_linear_335_698" x1="156.468" y1="2.55518" x2="156.468" y2="101.532" gradientUnits="userSpaceOnUse">
<stop stop-color="#F0F3F5"/>
<stop offset="0.056" stop-color="#E2E5E8"/>
<stop offset="0.138" stop-color="#D4D8DD"/>
<stop offset="0.242" stop-color="#CCD0D6"/>
<stop offset="0.44" stop-color="#CACED4"/>
<stop offset="0.568" stop-color="#B3B7BD"/>
<stop offset="0.835" stop-color="#797C83"/>
<stop offset="1" stop-color="#52545C"/>
</linearGradient>
<linearGradient id="paint5_linear_335_698" x1="196.324" y1="2.55518" x2="196.324" y2="101.532" gradientUnits="userSpaceOnUse">
<stop stop-color="#F0F3F5"/>
<stop offset="0.056" stop-color="#E2E5E8"/>
<stop offset="0.138" stop-color="#D4D8DD"/>
<stop offset="0.242" stop-color="#CCD0D6"/>
<stop offset="0.44" stop-color="#CACED4"/>
<stop offset="0.568" stop-color="#B3B7BD"/>
<stop offset="0.835" stop-color="#797C83"/>
<stop offset="1" stop-color="#52545C"/>
</linearGradient>
<linearGradient id="paint6_linear_335_698" x1="197.531" y1="1.72324" x2="197.531" y2="166.906" gradientUnits="userSpaceOnUse">
<stop stop-color="#F0F3F5"/>
<stop offset="0.056" stop-color="#E2E5E8"/>
<stop offset="0.138" stop-color="#D4D8DD"/>
<stop offset="0.242" stop-color="#CCD0D6"/>
<stop offset="0.44" stop-color="#CACED4"/>
<stop offset="0.568" stop-color="#B3B7BD"/>
<stop offset="0.835" stop-color="#797C83"/>
<stop offset="1" stop-color="#52545C"/>
</linearGradient>
<linearGradient id="paint7_linear_335_698" x1="155.263" y1="1.72319" x2="155.263" y2="166.906" gradientUnits="userSpaceOnUse">
<stop stop-color="#F0F3F5"/>
<stop offset="0.056" stop-color="#E2E5E8"/>
<stop offset="0.138" stop-color="#D4D8DD"/>
<stop offset="0.242" stop-color="#CCD0D6"/>
<stop offset="0.44" stop-color="#CACED4"/>
<stop offset="0.568" stop-color="#B3B7BD"/>
<stop offset="0.835" stop-color="#797C83"/>
<stop offset="1" stop-color="#52545C"/>
</linearGradient>
<linearGradient id="paint8_linear_335_698" x1="176.392" y1="2.56396" x2="176.392" y2="204.685" gradientUnits="userSpaceOnUse">
<stop stop-color="#F0F3F5"/>
<stop offset="0.253" stop-color="#EDF0F3"/>
<stop offset="0.406" stop-color="#E5E8EA"/>
<stop offset="0.531" stop-color="#D7DADC"/>
<stop offset="0.642" stop-color="#C3C5C9"/>
<stop offset="0.744" stop-color="#A9ABAF"/>
<stop offset="0.839" stop-color="#888B90"/>
<stop offset="0.926" stop-color="#63656B"/>
<stop offset="1" stop-color="#3D3F46"/>
</linearGradient>
<linearGradient id="paint9_linear_335_698" x1="176.402" y1="2.55382" x2="176.402" y2="204.687" gradientUnits="userSpaceOnUse">
<stop stop-color="#F0F3F5"/>
<stop offset="0.253" stop-color="#EDF0F3"/>
<stop offset="0.406" stop-color="#E5E8EA"/>
<stop offset="0.531" stop-color="#D7DADC"/>
<stop offset="0.642" stop-color="#C3C5C9"/>
<stop offset="0.744" stop-color="#A9ABAF"/>
<stop offset="0.839" stop-color="#888B90"/>
<stop offset="0.926" stop-color="#63656B"/>
<stop offset="1" stop-color="#3D3F46"/>
</linearGradient>
<linearGradient id="paint10_linear_335_698" x1="176.398" y1="2.57547" x2="176.398" y2="204.704" gradientUnits="userSpaceOnUse">
<stop stop-color="#F0F3F5"/>
<stop offset="0.253" stop-color="#EDF0F3"/>
<stop offset="0.406" stop-color="#E5E8EA"/>
<stop offset="0.531" stop-color="#D7DADC"/>
<stop offset="0.642" stop-color="#C3C5C9"/>
<stop offset="0.744" stop-color="#A9ABAF"/>
<stop offset="0.839" stop-color="#888B90"/>
<stop offset="0.926" stop-color="#63656B"/>
<stop offset="1" stop-color="#3D3F46"/>
</linearGradient>
<linearGradient id="paint11_linear_335_698" x1="176.399" y1="44.4842" x2="176.399" y2="102.09" gradientUnits="userSpaceOnUse">
<stop stop-color="#CACED4"/>
<stop offset="1" stop-color="#52545C"/>
</linearGradient>
<clipPath id="clip0_335_698">
<rect width="360" height="297" fill="white"/>
</clipPath>
</defs>
</svg>
