<svg width="87" height="63" viewBox="0 0 87 63" fill="none" xmlns="http://www.w3.org/2000/svg">
<g clip-path="url(#clip0_552_1591)">
<path d="M43.3967 56.1959C43.3835 52.4383 46.833 49.4069 51.1414 49.4004C55.3444 49.4063 58.7966 52.4377 58.8813 56.1959C58.7975 59.9114 55.3453 62.9429 51.1414 62.9954C46.833 62.9429 43.3838 59.9114 43.3967 56.1959ZM51.1418 60.4905C53.4676 60.459 55.3932 58.5402 55.4171 56.1959C55.3932 53.8066 53.4676 51.8878 51.1418 51.9012C48.7153 51.8872 46.7851 53.806 46.8618 56.1959C46.7851 58.5399 48.7153 60.4587 51.1418 60.4905ZM67.6416 52.2593V62.6376H64.384V52.2593H59.6964V49.9374H72.1253V52.2593H67.6416ZM75.994 59.7716L74.7743 62.6378H70.9059L77.0166 49.9374H81.0894L87 62.6378H83.1313L81.9089 59.7716H75.994ZM79.0549 57.6275H81.0894L79.0549 52.9748L77.0166 57.6275H79.0549ZM7.74135 52.2593V62.6376H4.48159V52.2593H0V49.9374H12.2251V52.2593H7.74135ZM13.0403 56.1959C13.0467 52.4383 16.4943 49.4069 20.7788 49.4004C25.0081 49.4063 28.461 52.4377 28.5233 56.1959C28.461 59.9114 25.0081 62.9429 20.7788 62.9954C16.4943 62.9429 13.0464 59.9114 13.0403 56.1959ZM20.7788 60.4905C23.1323 60.459 25.0563 58.5402 25.0585 56.1959C25.056 53.8066 23.1323 51.8878 20.7788 51.9012C18.3763 51.8872 16.4489 53.806 16.505 56.1959C16.4489 58.5399 18.3763 60.4587 20.7788 60.4905ZM35.8582 62.6376H37.4864V57.8062L43.1929 49.9374H39.5268L35.8582 55.3013L32.3935 49.9374H28.5236L34.2301 57.8062V62.6376H35.8582Z" fill="#AB002F"/>
<path d="M2.62305 21.9817C2.62305 34.0998 20.5703 43.9593 42.6296 43.9593C64.6886 43.9593 82.6361 34.0998 82.6361 21.9817C82.6358 9.86255 64.6886 0.00439453 42.6293 0.00439453C20.57 0.00439453 2.62305 9.86255 2.62305 21.9817ZM3.85071 21.9817C3.85071 10.4591 21.2464 1.08412 42.6296 1.08412C64.0121 1.08412 81.4084 10.4591 81.4084 21.9817C81.4084 33.5068 64.0121 42.8815 42.6296 42.8815C21.2464 42.8812 3.85071 33.507 3.85071 21.9817Z" fill="black"/>
<path d="M38.8493 3.9994C29.4859 4.5014 22.6849 6.68025 21.5257 9.55079C21.4076 9.84004 21.3468 10.1449 21.3458 10.4521C21.3458 10.9363 21.5018 11.4206 21.8111 11.8835C23.1106 13.8274 27.1444 15.4304 32.8847 16.2902L33.4924 16.3775L33.5943 15.8445C34.5365 10.7984 36.6048 6.83034 39.271 4.95679L40.7816 3.89404L38.8493 3.9994ZM22.8709 11.34C22.6708 11.0412 22.5723 10.7464 22.5723 10.4559C22.5723 10.2727 22.6082 10.0938 22.6825 9.9116C23.5673 7.71874 29.5783 5.80343 37.257 5.18556C35.0665 7.3609 33.3822 10.8663 32.5035 15.1251C27.5136 14.3146 23.9258 12.9188 22.8709 11.34ZM37.1373 16.1671L37.0173 16.7534L37.6947 16.7987C39.3011 16.9041 40.9618 16.9609 42.628 16.9609C44.2958 16.9609 45.9575 16.9041 47.5642 16.7987L48.2403 16.7534L48.12 16.1671C47.1965 11.6138 45.142 8.89385 42.629 8.89385C40.1141 8.89385 38.0605 11.6138 37.1373 16.1671ZM42.6293 9.97169C44.3474 9.97169 45.9335 12.2306 46.7692 15.7567C45.4105 15.8346 44.0266 15.8831 42.628 15.8831C41.2313 15.8831 39.8468 15.8346 38.4896 15.7567C39.3228 12.2306 40.9114 9.97169 42.6293 9.97169ZM45.9863 4.95733C48.6516 6.83088 50.722 10.7995 51.6643 15.8451L51.7649 16.3781L52.3717 16.2908C58.1144 15.4309 62.1504 13.8274 63.4452 11.8838C63.9489 11.1368 64.0446 10.3301 63.7331 9.5516C62.5742 6.68132 55.7729 4.50248 46.4102 3.99994L44.4803 3.89458L45.9863 4.95733ZM48.004 5.18556C55.6806 5.80343 61.6912 7.72225 62.5736 9.9116C62.6503 10.0938 62.6862 10.2727 62.6862 10.4559C62.6862 10.7464 62.5856 11.0412 62.3901 11.34C61.3315 12.9185 57.7424 14.3146 52.755 15.1251C51.8763 10.8666 50.1944 7.36117 48.004 5.18556ZM15.601 11.6663C11.3929 14.761 9.16895 18.4375 9.16895 22.3002C9.16895 31.3869 21.7893 39.0676 38.5233 40.1621L40.3925 40.2853L38.9693 39.2179C35.3032 36.4643 33.0265 29.931 33.0265 22.1666L33.0648 20.3321L32.5517 20.2405C23.7496 18.8555 17.4876 15.6061 16.596 11.9673L16.3827 11.0937L15.601 11.6663ZM10.3978 22.3002C10.3978 18.9881 12.2381 15.8092 15.6934 13.0484C17.3031 16.7251 23.3181 19.7881 31.8203 21.2132C31.8095 21.6341 31.8 22.1666 31.8 22.1666C31.8 29.366 33.7459 35.5835 36.9553 38.938C21.7077 37.5096 10.3978 30.5174 10.3978 22.3002ZM36.6373 21.3291L36.6336 21.5247C36.6336 28.7419 39.2111 34.1869 42.6293 34.1869C46.0462 34.1869 48.6239 28.7419 48.6239 21.5247L48.6157 20.746L47.9564 20.7956C46.218 20.9292 44.4281 20.9955 42.6299 20.9955C40.8316 20.9955 39.0393 20.9292 37.3055 20.7956L36.6438 20.743L36.6373 21.3291ZM47.3889 21.9076C47.2965 28.6228 44.8869 33.1099 42.6293 33.1099C40.3694 33.1099 37.9595 28.6228 37.8696 21.9076C39.4306 22.0087 41.025 22.0717 42.6293 22.0717C44.236 22.0717 45.8258 22.0087 47.3889 21.9076ZM68.6604 11.9673C67.7697 15.6061 61.5064 18.8552 52.7072 20.2405L52.1915 20.3246L52.2324 22.1663C52.2324 29.9308 49.9544 36.4643 46.2895 39.2177L44.8664 40.285L46.733 40.1619C63.4686 39.0673 76.0893 31.3867 76.0893 22.3C76.0893 18.4373 73.8629 14.7608 69.6548 11.666L68.8755 11.0934L68.6604 11.9673ZM69.563 13.0484C73.0207 15.8092 74.8622 18.9881 74.8622 22.3002C74.8622 30.5174 63.553 37.5096 48.3038 38.938C51.5133 35.5835 53.4591 29.366 53.4591 22.1666C53.4591 22.1666 53.4471 21.6339 53.4388 21.2132C61.9383 19.7881 67.9529 16.7249 69.563 13.0484Z" fill="black"/>
<path d="M69.0955 9.19284C69.1519 9.32973 69.2035 9.46931 69.244 9.6097C69.4754 10.417 69.4275 11.2097 69.1277 11.9823C73.12 14.8728 75.4735 18.4377 75.4735 22.3004C75.4735 31.9416 60.7679 39.7592 42.6291 39.7592C24.4892 39.7592 9.78482 31.9416 9.78482 22.3004C9.78482 18.4409 12.1407 14.873 16.1282 11.9823C15.8308 11.2097 15.7829 10.417 16.0143 9.6097C16.0622 9.45651 16.126 9.3075 16.2049 9.16455C10.7571 12.5721 7.4541 17.0379 7.4541 21.9288C7.4541 32.608 23.2014 41.2644 42.6288 41.2644C62.0539 41.2644 77.8036 32.608 77.8036 21.9288C77.8042 17.0481 74.5144 12.5926 69.0955 9.19284Z" fill="url(#paint0_linear_552_1591)"/>
<path d="M47.516 16.2622C45.9658 16.3643 44.3317 16.4201 42.628 16.4201C40.9256 16.4201 39.2928 16.3643 37.7425 16.2622H37.7376L36.7245 16.9083C38.5936 17.0514 40.5674 17.1325 42.629 17.1325C44.6908 17.1325 46.6643 17.0514 48.5346 16.9083L47.516 16.2622ZM65.4832 9.4877C64.2484 5.9047 54.0699 3.27344 42.6293 3.27344C31.1905 3.27344 21.0122 5.90524 19.7775 9.4877C18.7058 12.5959 24.5562 15.4726 33.7864 16.6135L32.9844 15.7564C25.5178 14.6408 21.0798 12.262 22.1036 9.73291C23.3445 6.66215 32.3574 4.43858 42.6283 4.43858C52.899 4.43858 61.914 6.66269 63.1537 9.73291C64.1763 12.2623 59.7405 14.6411 52.272 15.7564L51.4728 16.6135C60.6996 15.4726 66.554 12.5959 65.4832 9.4877Z" fill="url(#paint1_linear_552_1591)"/>
<path d="M37.755 16.2619C38.6122 12.0799 40.4718 9.46646 42.6285 9.46646C44.7877 9.46646 46.6457 12.0799 47.5042 16.2619H47.5214L48.5241 16.9008C47.6776 11.378 45.3591 7.84863 42.63 7.84863C39.8991 7.84863 37.5816 11.378 36.7363 16.9008L37.7387 16.2619H37.755Z" fill="url(#paint2_linear_552_1591)"/>
<path d="M48.8277 20.0303L48.0076 21.3323C48.0076 21.4271 48.0125 21.5247 48.0125 21.6236C48.0125 28.5557 45.598 33.8117 42.6286 33.8117C39.6564 33.8117 37.2468 28.5551 37.2468 21.6236C37.2468 21.5142 37.2493 21.4056 37.2518 21.3008L36.4304 20.0303C36.4063 20.5587 36.3943 21.0875 36.3945 21.6163C36.3945 29.4756 39.1856 35.429 42.6298 35.429C46.0741 35.429 48.8676 29.4756 48.8676 21.6163C48.8664 21.0874 48.8531 20.5587 48.8277 20.0303Z" fill="url(#paint3_linear_552_1591)"/>
<path d="M33.7993 16.6163C34.9791 8.93999 38.4859 3.27246 42.6293 3.27246C38.1873 3.27246 34.4012 8.29356 32.9961 15.771L33.7873 16.6163H33.7993Z" fill="url(#paint4_linear_552_1591)"/>
<path d="M51.4611 16.6163H51.4694L52.2606 15.771C50.858 8.29356 47.0694 3.27246 42.6299 3.27246C46.7733 3.273 50.2825 8.93999 51.4611 16.6163Z" fill="url(#paint5_linear_552_1591)"/>
<path d="M52.8118 20.7667L51.8048 19.7109H51.7966C51.853 20.5498 51.8852 21.4023 51.8852 22.2684C51.8852 32.7595 47.7407 41.2639 42.6299 41.2639C48.3603 41.2639 52.8444 33.3763 52.8444 22.2684C52.8444 21.7602 52.8324 21.2617 52.8118 20.7667Z" fill="url(#paint6_linear_552_1591)"/>
<path d="M33.3762 22.2689C33.3762 21.4028 33.4085 20.5503 33.4637 19.7114H33.457L32.4475 20.7639C32.4261 21.2654 32.415 21.7671 32.4141 22.2689C32.4141 33.3768 36.9015 41.2644 42.6298 41.2644C37.5208 41.2644 33.3762 32.7597 33.3762 22.2689Z" fill="url(#paint7_linear_552_1591)"/>
<path d="M69.1281 11.9823C70.6544 13.0876 71.9419 14.2937 72.9489 15.5747C72.6003 13.5374 71.6771 11.6089 70.2634 9.96457C69.8819 9.69842 69.4924 9.44127 69.0953 9.19338C69.152 9.33027 69.2036 9.46985 69.2435 9.61024C69.4758 10.4173 69.428 11.2097 69.1281 11.9823ZM16.1289 11.9823C15.8315 11.2097 15.7836 10.417 16.015 9.6097C16.0629 9.45651 16.1267 9.3075 16.2056 9.16455C15.7962 9.42391 15.393 9.69064 14.9961 9.96457C13.5844 11.6099 12.6615 13.538 12.3105 15.5747C13.3175 14.2937 14.6026 13.0873 16.1289 11.9823Z" fill="#2D2F34"/>
<path d="M3.2373 21.9816C3.2373 10.1431 20.8727 0.543945 42.63 0.543945C64.3842 0.543945 82.0199 10.1431 82.0199 21.9816C82.0199 33.8224 64.3842 43.4181 42.63 43.4181C20.8727 43.4178 3.2373 33.8227 3.2373 21.9816ZM42.6297 41.2643C62.055 41.2643 77.8044 32.6079 77.8044 21.9287C77.8044 11.2485 62.055 2.58914 42.6297 2.58914C23.2019 2.58914 7.45372 11.249 7.45372 21.9287C7.45372 32.6079 23.2022 41.2643 42.6297 41.2643Z" fill="url(#paint8_linear_552_1591)"/>
<path d="M33.377 22.2689C33.377 11.888 37.5215 3.27344 42.6299 3.27344C47.7406 3.27344 51.8855 11.888 51.8855 22.2689C51.8855 32.76 47.7406 41.2644 42.6299 41.2644C37.5191 41.2644 33.377 32.7598 33.377 22.2689ZM42.6299 35.429C46.0744 35.429 48.8679 29.4756 48.8679 21.6195C48.8679 13.4665 46.0741 7.84912 42.6299 7.84912C39.1856 7.84912 36.3946 13.4665 36.3946 21.6195C36.3946 29.4756 39.1856 35.429 42.6299 35.429Z" fill="url(#paint9_linear_552_1591)"/>
<path d="M16.0152 9.60938C17.0305 6.08027 29.309 0.943848 42.6297 0.943848C55.9493 0.943848 67.8061 4.61388 69.2446 9.60938C70.8547 15.2087 59.0215 20.2762 42.6297 20.2762C26.2352 20.2762 14.4027 15.209 16.0152 9.60938ZM42.6297 3.27305C31.191 3.27305 21.0127 5.90486 19.778 9.48731C18.3944 13.5009 28.5536 17.1321 42.6297 17.1321C56.7086 17.1321 66.866 13.5004 65.4836 9.48731C64.2489 5.90432 54.071 3.27305 42.6297 3.27305Z" fill="url(#paint10_linear_552_1591)"/>
<path d="M36.4176 20.0196L36.4247 20.0239L37.2699 21.3322C38.9902 21.4612 40.7792 21.5351 42.629 21.5351C44.4873 21.5351 46.2807 21.4615 48.0123 21.3289L48.8348 20.0234L48.8397 20.0191C46.8617 20.1843 44.7875 20.2759 42.6296 20.2759C40.5555 20.2769 38.4825 20.1914 36.4176 20.0196ZM69.3829 10.8203C69.1717 14.8239 62.162 18.3711 51.8006 19.7079L51.8042 19.7111L52.8149 20.7714C62.9533 19.1714 69.6229 15.2411 69.3829 10.8203ZM15.8754 10.8203C15.6357 15.2454 22.3047 19.1711 32.4412 20.7714L33.4543 19.7111L33.4568 19.7079C23.0935 18.3714 16.0887 14.8242 15.8754 10.8203Z" fill="url(#paint11_linear_552_1591)"/>
</g>
<defs>
<linearGradient id="paint0_linear_552_1591" x1="42.6288" y1="38.8759" x2="42.6288" y2="14.4481" gradientUnits="userSpaceOnUse">
<stop stop-color="#F0F3F5"/>
<stop offset="0.056" stop-color="#E2E5E8"/>
<stop offset="0.138" stop-color="#D4D8DD"/>
<stop offset="0.242" stop-color="#CCD0D6"/>
<stop offset="0.44" stop-color="#CACED4"/>
<stop offset="0.568" stop-color="#B3B7BD"/>
<stop offset="0.835" stop-color="#797C83"/>
<stop offset="1" stop-color="#52545C"/>
</linearGradient>
<linearGradient id="paint1_linear_552_1591" x1="42.6302" y1="20.2636" x2="42.6302" y2="7.02673" gradientUnits="userSpaceOnUse">
<stop stop-color="#F0F3F5"/>
<stop offset="0.056" stop-color="#E2E5E8"/>
<stop offset="0.138" stop-color="#D4D8DD"/>
<stop offset="0.242" stop-color="#CCD0D6"/>
<stop offset="0.44" stop-color="#CACED4"/>
<stop offset="0.568" stop-color="#B3B7BD"/>
<stop offset="0.835" stop-color="#797C83"/>
<stop offset="1" stop-color="#52545C"/>
</linearGradient>
<linearGradient id="paint2_linear_552_1591" x1="47.6352" y1="17.8305" x2="39.2512" y2="9.81742" gradientUnits="userSpaceOnUse">
<stop stop-color="#F0F3F5"/>
<stop offset="0.056" stop-color="#E2E5E8"/>
<stop offset="0.138" stop-color="#D4D8DD"/>
<stop offset="0.242" stop-color="#CCD0D6"/>
<stop offset="0.44" stop-color="#CACED4"/>
<stop offset="0.568" stop-color="#B3B7BD"/>
<stop offset="0.835" stop-color="#797C83"/>
<stop offset="1" stop-color="#52545C"/>
</linearGradient>
<linearGradient id="paint3_linear_552_1591" x1="48.5926" y1="29.3681" x2="35.815" y2="20.9655" gradientUnits="userSpaceOnUse">
<stop stop-color="#F0F3F5"/>
<stop offset="0.056" stop-color="#E2E5E8"/>
<stop offset="0.138" stop-color="#D4D8DD"/>
<stop offset="0.242" stop-color="#CCD0D6"/>
<stop offset="0.44" stop-color="#CACED4"/>
<stop offset="0.568" stop-color="#B3B7BD"/>
<stop offset="0.835" stop-color="#797C83"/>
<stop offset="1" stop-color="#52545C"/>
</linearGradient>
<linearGradient id="paint4_linear_552_1591" x1="37.8128" y1="0.541765" x2="37.8128" y2="21.5369" gradientUnits="userSpaceOnUse">
<stop stop-color="#F0F3F5"/>
<stop offset="0.056" stop-color="#E2E5E8"/>
<stop offset="0.138" stop-color="#D4D8DD"/>
<stop offset="0.242" stop-color="#CCD0D6"/>
<stop offset="0.44" stop-color="#CACED4"/>
<stop offset="0.568" stop-color="#B3B7BD"/>
<stop offset="0.835" stop-color="#797C83"/>
<stop offset="1" stop-color="#52545C"/>
</linearGradient>
<linearGradient id="paint5_linear_552_1591" x1="47.4454" y1="0.541765" x2="47.4454" y2="21.5369" gradientUnits="userSpaceOnUse">
<stop stop-color="#F0F3F5"/>
<stop offset="0.056" stop-color="#E2E5E8"/>
<stop offset="0.138" stop-color="#D4D8DD"/>
<stop offset="0.242" stop-color="#CCD0D6"/>
<stop offset="0.44" stop-color="#CACED4"/>
<stop offset="0.568" stop-color="#B3B7BD"/>
<stop offset="0.835" stop-color="#797C83"/>
<stop offset="1" stop-color="#52545C"/>
</linearGradient>
<linearGradient id="paint6_linear_552_1591" x1="47.737" y1="0.365409" x2="47.737" y2="35.4042" gradientUnits="userSpaceOnUse">
<stop stop-color="#F0F3F5"/>
<stop offset="0.056" stop-color="#E2E5E8"/>
<stop offset="0.138" stop-color="#D4D8DD"/>
<stop offset="0.242" stop-color="#CCD0D6"/>
<stop offset="0.44" stop-color="#CACED4"/>
<stop offset="0.568" stop-color="#B3B7BD"/>
<stop offset="0.835" stop-color="#797C83"/>
<stop offset="1" stop-color="#52545C"/>
</linearGradient>
<linearGradient id="paint7_linear_552_1591" x1="37.5218" y1="0.365628" x2="37.5218" y2="35.4044" gradientUnits="userSpaceOnUse">
<stop stop-color="#F0F3F5"/>
<stop offset="0.056" stop-color="#E2E5E8"/>
<stop offset="0.138" stop-color="#D4D8DD"/>
<stop offset="0.242" stop-color="#CCD0D6"/>
<stop offset="0.44" stop-color="#CACED4"/>
<stop offset="0.568" stop-color="#B3B7BD"/>
<stop offset="0.835" stop-color="#797C83"/>
<stop offset="1" stop-color="#52545C"/>
</linearGradient>
<linearGradient id="paint8_linear_552_1591" x1="42.6285" y1="0.543945" x2="42.6285" y2="43.4181" gradientUnits="userSpaceOnUse">
<stop stop-color="#F0F3F5"/>
<stop offset="0.253" stop-color="#EDF0F3"/>
<stop offset="0.406" stop-color="#E5E8EA"/>
<stop offset="0.531" stop-color="#D7DADC"/>
<stop offset="0.642" stop-color="#C3C5C9"/>
<stop offset="0.744" stop-color="#A9ABAF"/>
<stop offset="0.839" stop-color="#888B90"/>
<stop offset="0.926" stop-color="#63656B"/>
<stop offset="1" stop-color="#3D3F46"/>
</linearGradient>
<linearGradient id="paint9_linear_552_1591" x1="42.6311" y1="0.541933" x2="42.6311" y2="43.4188" gradientUnits="userSpaceOnUse">
<stop stop-color="#F0F3F5"/>
<stop offset="0.253" stop-color="#EDF0F3"/>
<stop offset="0.406" stop-color="#E5E8EA"/>
<stop offset="0.531" stop-color="#D7DADC"/>
<stop offset="0.642" stop-color="#C3C5C9"/>
<stop offset="0.744" stop-color="#A9ABAF"/>
<stop offset="0.839" stop-color="#888B90"/>
<stop offset="0.926" stop-color="#63656B"/>
<stop offset="1" stop-color="#3D3F46"/>
</linearGradient>
<linearGradient id="paint10_linear_552_1591" x1="42.6297" y1="0.546126" x2="42.6297" y2="43.4219" gradientUnits="userSpaceOnUse">
<stop stop-color="#F0F3F5"/>
<stop offset="0.253" stop-color="#EDF0F3"/>
<stop offset="0.406" stop-color="#E5E8EA"/>
<stop offset="0.531" stop-color="#D7DADC"/>
<stop offset="0.642" stop-color="#C3C5C9"/>
<stop offset="0.744" stop-color="#A9ABAF"/>
<stop offset="0.839" stop-color="#888B90"/>
<stop offset="0.926" stop-color="#63656B"/>
<stop offset="1" stop-color="#3D3F46"/>
</linearGradient>
<linearGradient id="paint11_linear_552_1591" x1="42.6293" y1="9.4361" x2="42.6293" y2="21.6555" gradientUnits="userSpaceOnUse">
<stop stop-color="#CACED4"/>
<stop offset="1" stop-color="#52545C"/>
</linearGradient>
<clipPath id="clip0_552_1591">
<rect width="87" height="63" fill="white"/>
</clipPath>
</defs>
</svg>
