<svg width="333" height="333" viewBox="0 0 333 333" fill="none" xmlns="http://www.w3.org/2000/svg">
<g clip-path="url(#clip0_335_693)">
<path fill-rule="evenodd" clip-rule="evenodd" d="M0 0H333V333H0V0Z" fill="white"/>
<path fill-rule="evenodd" clip-rule="evenodd" d="M166.557 28.0869C242.769 28.0869 304.913 90.2346 304.913 166.557C304.913 242.653 242.767 304.915 166.557 304.915C90.3469 304.915 28.0869 242.653 28.0869 166.557C28.0852 90.2329 90.3469 28.0869 166.557 28.0869Z" fill="#295CA7"/>
<path fill-rule="evenodd" clip-rule="evenodd" d="M166.557 45.665C233.014 45.665 287.339 99.9868 287.339 166.559C287.339 233.017 233.015 287.225 166.557 287.225C100.099 287.225 45.7793 233.015 45.7793 166.557C45.7793 99.9868 100.099 45.665 166.557 45.665ZM85.6966 101.574L129.019 213.962L144.895 172.908H186.516L202.391 213.962L246.167 100.213C238.443 90.8936 229.156 82.989 218.721 76.8529L188.33 160.547H145.46L114.956 76.5108C103.729 82.9754 93.8628 91.482 85.6966 101.574ZM263.635 129.813L214.301 258.531C247.418 241.18 270.21 206.478 270.21 166.559C270.21 153.63 267.943 141.267 263.635 129.813ZM192.753 266.922L192.416 264.314L165.649 194.908L138.885 264.314L138.773 266.47C147.618 268.962 156.918 270.211 166.557 270.211C175.629 270.211 184.362 269.078 192.753 266.922ZM116.77 257.396L68.6869 132.082C64.831 142.855 62.789 154.423 62.789 166.557C62.789 205.569 84.5633 239.817 116.77 257.396ZM166.557 62.7887C175.629 62.7887 184.588 63.9238 193.095 66.1903L166.898 138.659L140.587 66.078C149.069 63.8833 157.796 62.778 166.557 62.7887Z" fill="white"/>
</g>
<defs>
<clipPath id="clip0_335_693">
<rect width="333" height="333" fill="white"/>
</clipPath>
</defs>
</svg>
