<svg width="88" height="112" viewBox="0 0 88 112" fill="none" xmlns="http://www.w3.org/2000/svg">
<path fill-rule="evenodd" clip-rule="evenodd" d="M44.0181 15.7192C68.245 15.7192 88 35.1286 88 58.9648C88 82.7304 68.2445 102.175 44.0181 102.175C19.7918 102.175 1.14282e-08 82.7304 1.14282e-08 58.9648C-0.000549165 35.128 19.7918 15.7192 44.0181 15.7192Z" fill="#295CA7"/>
<path fill-rule="evenodd" clip-rule="evenodd" d="M43.9995 21.6143C64.9081 21.6143 82 38.4053 82 58.9828C82 79.5252 64.9086 96.2809 43.9995 96.2809C23.0903 96.2809 6 79.5246 6 58.9823C6 38.4053 23.0903 21.6143 43.9995 21.6143ZM18.5589 38.896L32.189 73.6352L37.1841 60.9453H50.2789L55.2734 73.6352L69.0465 38.4752C66.6162 35.5945 63.6943 33.1512 60.4114 31.2545L50.8496 57.1245H37.3618L27.7647 31.1488C24.2323 33.147 21.1281 35.7764 18.5589 38.896ZM74.5422 47.6247L59.0205 87.4118C69.4401 82.0483 76.6109 71.3219 76.6109 58.9828C76.6109 54.9864 75.8978 51.1651 74.5422 47.6247ZM52.241 90.0054L52.1351 89.1991L43.7136 67.7457L35.2932 89.1991L35.2578 89.8655C38.0407 90.636 40.9665 91.0221 43.9995 91.0221C46.8536 91.0221 49.6011 90.6718 52.241 90.0054ZM28.3354 87.0609L13.2072 48.3259C11.9941 51.6559 11.3516 55.2315 11.3516 58.9823C11.3516 71.041 18.2023 81.627 28.3354 87.0609ZM43.9995 26.9072C46.8536 26.9072 49.6723 27.2581 52.3487 27.9587L44.1065 50.3588L35.8285 27.924C38.4972 27.2456 41.2429 26.9039 43.9995 26.9072Z" fill="white"/>
</svg>
