<svg width="77" height="38" viewBox="0 0 77 38" fill="none" xmlns="http://www.w3.org/2000/svg">
<path d="M38.3716 2.41223C18.2233 2.41223 1.93262 9.94615 1.93262 19.2974C1.93262 28.6157 18.2233 36.1496 38.3716 36.1496C58.4943 36.1496 74.7926 28.6157 74.7926 19.2974C74.7926 9.94615 58.4943 2.41223 38.3716 2.41223ZM38.5513 3.53571C57.9296 3.53571 73.6376 10.5079 73.6376 19.0992C73.6376 27.7235 57.9296 34.6957 38.5513 34.6957C19.1729 34.6957 3.45465 27.7235 3.45465 19.0992C3.45465 10.5079 19.1729 3.53571 38.5513 3.53571ZM38.5513 4.89049C19.8403 4.89049 4.68922 11.2679 4.68922 19.0992C4.68922 26.9635 19.8403 33.3409 38.5513 33.3409C57.2366 33.3409 72.4056 26.9635 72.4056 19.0992C72.4056 11.2679 57.2366 4.89049 38.5513 4.89049ZM29.3883 7.42162C32.8789 7.38858 36.2413 8.53519 39.7319 9.05397C42.8119 9.54962 45.7379 9.54962 48.8179 8.65745C49.2029 8.55832 49.4596 8.85571 49.4339 9.31832C49.3826 9.97919 48.9719 10.6401 47.9709 11.334C46.8159 12.1601 45.6096 12.3914 44.3519 12.4244C41.2976 12.4574 38.4486 10.9374 35.5226 10.1114C35.5226 10.2766 35.5483 10.4748 35.4456 10.574C33.8029 12.127 32.3399 13.6801 31.3646 15.8609C31.3133 15.894 31.3389 15.9601 31.3903 15.927C32.2629 15.894 33.0329 15.8609 33.8286 15.7618C33.9569 15.7618 33.9569 15.7288 33.9569 15.5966C33.8799 14.8366 34.0596 13.9774 34.5729 13.3827C35.1119 12.7879 35.7793 12.7218 36.2156 13.1514C36.7289 13.647 36.6776 14.5392 36.3953 15.2001C36.1129 15.894 35.6509 16.2574 35.2146 16.4227C35.2146 16.4227 35.1119 16.4557 35.1376 16.5548C35.1633 16.7531 35.7536 17.1827 35.8049 17.2818C35.8563 17.3809 35.8306 17.5461 35.7279 17.6783C35.6766 17.7774 35.5739 17.8766 35.4456 17.8766C35.3429 17.8766 35.2916 17.8105 35.1376 17.7114C34.8809 17.5461 34.5473 17.2157 34.3163 16.8522C34.2393 16.7531 34.1879 16.7531 34.0083 16.7531C33.1356 16.8192 31.8009 16.9844 30.8769 17.1166C30.6459 17.1496 30.6203 17.2157 30.5689 17.3148C29.1316 20.3879 27.5659 23.6922 25.8719 25.9061C24.0239 28.2522 22.5096 28.8801 20.8926 28.9131C18.8649 28.9131 17.0683 27.327 16.8629 24.5514C16.7603 23.0314 17.0939 21.6435 17.7613 20.5201C18.3773 19.5288 19.4039 18.6696 20.2766 18.4714C20.5589 18.4053 20.9183 18.4714 21.0723 18.7027C21.3289 19.0661 21.2519 19.4627 21.0209 19.6279C20.3536 20.0574 19.5579 20.7844 19.1729 21.7757C18.8393 22.6018 18.7879 23.5931 19.2756 24.5514C20.0713 26.1044 22.3556 26.1374 24.4603 23.6592C24.9993 23.0314 25.4613 22.4366 25.9489 21.7427C26.8729 20.3879 27.1809 19.8922 28.4129 17.7114C28.4386 17.6783 28.4386 17.6453 28.4386 17.6453C28.4129 17.6122 28.3873 17.6122 28.3616 17.6122C27.5403 17.6122 26.8216 17.9427 26.1286 18.6035C25.9233 18.8018 25.6153 18.7688 25.4869 18.5374C25.3586 18.2401 25.4613 17.8766 25.6923 17.6783C26.8216 16.687 28.0536 16.4888 29.3113 16.2244C29.3113 16.2244 29.3883 16.2244 29.4653 16.1253C29.9786 15.2661 30.3636 14.5061 30.9283 13.647C31.4673 12.7879 32.1859 11.9948 32.7249 11.4001C33.4949 10.5409 33.9826 10.2766 34.4959 9.94614C34.6243 9.84701 34.4703 9.74788 34.4189 9.74788C31.6469 9.08701 28.7723 8.22788 26.0003 9.51658C24.1009 10.4088 23.2539 12.3583 23.6646 13.647C23.9469 14.5722 24.8966 14.7044 25.7693 14.1427C26.5136 13.7131 27.1809 12.9531 27.6686 11.9948C27.9509 11.4661 28.5156 11.8627 28.2076 12.7879C27.3863 15.2001 25.8463 17.1166 23.9726 17.1827C22.3813 17.2488 21.3546 15.7618 21.3546 13.9114C21.3546 10.2766 24.5373 7.86441 27.8996 7.50093C28.4129 7.44806 28.9006 7.42162 29.3883 7.42162ZM35.5483 13.7528C35.4199 13.7528 35.2916 13.8188 35.1889 13.9444C34.8296 14.3079 34.7269 14.8696 34.7783 15.2992C34.8039 15.4644 34.8296 15.4974 34.9066 15.4644C35.1633 15.3983 35.4713 15.1009 35.6509 14.7705C35.8306 14.4731 35.9076 14.0105 35.7279 13.8453C35.6766 13.7825 35.6253 13.7528 35.5483 13.7528ZM58.4173 13.8453H60.2909C60.3936 13.8453 60.4449 13.9114 60.3936 14.0105C60.1113 14.6383 54.6699 25.2122 54.3106 26.3027C54.2079 26.6661 54.2079 26.9305 54.3106 27.0957C54.5929 27.5914 55.2346 27.327 55.6196 26.9635C56.8003 25.9392 57.6216 24.6835 58.5199 23.5601C58.5713 23.527 58.6739 23.494 58.7253 23.5601C58.8536 23.7253 59.0589 23.9235 59.1873 24.1218C59.2643 24.1879 59.2386 24.287 59.2129 24.3531C58.3146 25.7079 57.3393 27.0296 56.3896 27.9218C54.9523 29.3757 53.4893 29.7392 52.7706 28.814C52.4883 28.4835 52.3599 27.9879 52.3343 27.5583C52.3343 27.3601 52.2316 27.327 52.1546 27.4261C51.2819 28.5166 49.7933 29.7392 48.4329 28.8801C47.3036 28.1531 47.0469 26.4348 47.2523 24.9809C47.2523 24.9479 47.2266 24.7496 47.0983 24.8488C46.8673 25.0801 46.5593 25.3114 46.1743 25.5096C45.6866 25.7079 45.4813 25.807 45.0449 25.807C44.4803 25.807 43.9926 25.5096 43.6333 24.7827C43.4279 24.4192 43.3509 23.8574 43.3509 23.4279C43.3509 23.3948 43.2996 23.2957 43.2483 23.3948C42.2986 25.2122 41.4516 26.9635 40.5276 28.7809C40.4763 28.8801 40.4249 28.9461 40.3479 28.9461H38.5256C38.4229 28.9461 38.3716 28.847 38.4229 28.6818C38.7309 27.8888 40.5019 24.6174 41.7083 21.8418C42.0419 21.0818 41.9649 20.6853 41.7596 20.5201C41.5029 20.2888 40.9896 20.6192 40.5533 21.0157C39.3983 22.1722 38.3973 23.9235 37.9096 24.7166C37.6016 25.1792 37.3193 25.8731 36.5493 26.9305C35.3429 28.6157 33.7516 29.574 32.1859 28.9131C31.3389 28.5496 30.7486 27.6905 30.4919 26.6331C30.4663 26.4018 30.3636 26.3688 30.2866 26.5009C30.0299 26.8974 29.5166 27.4922 29.0803 27.8557C29.0546 27.8888 28.9263 27.9879 28.8236 27.9218C28.7466 27.8557 28.4129 27.294 28.3616 27.1288C28.3103 26.9966 28.3616 26.8644 28.4129 26.7983C29.0289 26.1374 29.3626 25.7409 29.6193 25.3114C29.8246 24.9809 29.9786 24.6505 30.1583 24.0557C30.5176 22.8661 31.3646 20.6522 33.0586 19.4957C33.7003 19.0661 34.3419 18.7357 35.0863 18.6366C35.3943 18.5705 35.6509 18.6366 35.7279 18.934C35.7793 19.0661 35.8563 19.3635 35.9076 19.5618C35.9333 19.694 35.9076 19.7931 35.8049 19.8592C34.8039 20.3218 33.8029 21.0818 33.1099 22.2383C32.3399 23.5931 32.1346 25.2122 32.6479 26.1374C33.0329 26.7983 33.6489 26.9305 34.2393 26.6661C35.1376 26.3027 35.9076 25.2453 36.2926 24.0557C36.7289 22.767 36.8059 21.214 36.4979 19.8592C36.4209 19.6279 36.4723 19.4627 36.6006 19.3305C36.8316 19.0992 37.1653 18.9009 37.2679 18.8348C37.4733 18.6696 37.7043 18.8018 37.8326 19.0001C38.1663 19.6279 38.3459 20.487 38.3459 21.4122C38.3716 21.6105 38.4486 21.6105 38.4999 21.5114C39.0903 20.7183 39.6549 19.8592 40.2709 19.1983C40.8356 18.6366 41.5799 18.174 42.2729 18.174C43.1456 18.207 43.5819 18.967 43.5563 20.3218C43.5563 20.5201 43.6589 20.487 43.7103 20.3879C43.9926 19.8922 44.1723 19.6609 44.4546 19.3305C45.0706 18.7027 45.7123 18.4053 46.3539 18.4714C47.1753 18.5374 47.8169 19.4627 47.6629 20.5531C47.5859 21.214 47.3036 21.8418 46.7903 22.1392C46.3796 22.4035 45.8919 22.3705 45.5583 21.974C45.2759 21.6435 45.1733 21.1809 45.2503 20.6853C45.2759 20.5861 45.1733 20.5201 45.0706 20.6192C44.3006 21.6766 44.2493 22.9983 44.7626 23.6261C45.3273 24.287 46.1743 23.8574 46.7903 23.3288C47.9196 22.3705 48.7923 21.1148 49.8189 20.1235C50.5119 19.4627 51.2819 18.8679 52.1289 18.7357C52.6166 18.6366 53.0786 18.7027 53.5406 18.934C54.1566 19.2644 54.5416 19.9253 54.5929 20.487C54.6186 20.6522 54.7213 20.6853 54.7983 20.5531C55.2859 19.5618 57.9039 14.5392 58.1349 14.0105C58.1863 13.8453 58.2633 13.8453 58.4173 13.8453ZM52.6679 20.4474C52.0519 20.4474 51.2306 21.1446 50.5119 22.2714C49.7933 23.4279 49.3826 24.5844 49.3826 25.7409C49.3826 26.1374 49.4853 26.6331 49.7676 26.8314C50.4093 27.2609 51.1536 26.6331 51.7183 26.0383C52.0776 25.6418 52.3856 25.2453 52.6423 24.7496C52.9246 24.1879 53.1556 23.8244 53.3866 23.1966C53.4123 23.1305 53.3866 23.0974 53.3609 23.0644C53.2839 23.0314 53.2069 22.9653 53.2069 22.8992C53.1813 22.8331 53.1813 22.8001 53.2069 22.734C53.5149 21.9409 53.7203 20.9496 53.0529 20.5531C52.9246 20.4771 52.7963 20.4441 52.6679 20.4474Z" fill="black"/>
</svg>
