<svg width="60" height="60" viewBox="0 0 60 60" fill="none" xmlns="http://www.w3.org/2000/svg">
<g clip-path="url(#clip0_104_44)">
<path d="M59.755 17.175C58.93 9.12997 53.58 7.43747 48.87 6.66497C46.505 6.26497 42.295 5.91497 39.58 5.81497C37.215 5.66497 31.66 5.58997 29.9925 5.58997C28.35 5.58997 22.7675 5.66497 20.405 5.81497C17.715 5.91497 13.48 6.26497 11.115 6.66497C6.40746 7.46247 1.04996 9.14997 0.229964 17.175C0.0299636 19.3675 -0.0200365 22.2325 0.00496354 25.295C0.0799635 30.3725 0.504964 33.81 0.754964 36.2025C0.929964 37.845 1.59996 42.7525 2.47246 45.2925C3.66746 48.78 4.76246 49.8 6.03246 50.8475C8.37496 52.74 12.21 53.3375 13.0075 53.4875C17.34 54.2625 26.1075 54.4075 29.9675 54.4075C33.8275 54.4075 42.5925 54.2825 46.9275 53.4875C47.75 53.3375 51.585 52.7625 53.9025 50.8475C55.1725 49.8 56.2675 48.78 57.4625 45.2925C58.3375 42.7525 59.0325 37.845 59.2075 36.2025C59.4575 33.81 59.905 30.3725 59.955 25.295C60.055 22.2325 59.98 19.3675 59.755 17.175ZM56.815 30.675C56.34 37.1 55.77 40.935 54.9475 43.725C54.2225 46.165 53.355 47.7825 52.035 48.955C49.8675 50.9225 46.8775 51.345 45.135 51.595C41.35 52.17 34.9975 52.345 29.9925 52.345C24.9875 52.345 18.635 52.145 14.85 51.595C13.1075 51.345 10.1175 50.9225 7.94996 48.955C6.65496 47.7825 5.75996 46.14 5.06246 43.7225C4.23996 40.96 3.66746 37.0975 3.19496 30.6725C2.91996 26.815 2.96996 20.5375 3.39496 17.1725C4.03996 12.145 6.53246 9.62747 11.8625 8.68247C14.3525 8.23247 17.7125 7.90747 20.8775 7.75747C23.4175 7.58247 27.6275 7.50747 29.9675 7.53247C32.3075 7.50747 36.5175 7.60747 39.0575 7.75747C42.245 7.90747 45.5825 8.23247 48.0725 8.68247C53.4275 9.62747 55.92 12.17 56.5425 17.175C57.04 20.5375 57.1125 26.815 56.815 30.675ZM43.8125 9.69997C42.4425 15.855 41.895 18.67 40.7725 23.125C39.7025 27.4125 38.855 31.37 37.435 33.2875C35.9675 35.23 34.0225 35.655 32.7025 35.8025C32.005 35.8775 31.5075 35.9025 30.0375 35.9275C28.5475 35.9275 28.0475 35.8775 27.35 35.8025C26.03 35.6525 24.0625 35.23 22.62 33.2875C21.175 31.37 20.3525 27.4125 19.2825 23.1275C18.1075 18.695 17.5875 15.8525 16.1925 9.70247C16.1925 9.70247 14.8225 9.75247 14.2 9.80247C13.3775 9.85247 12.73 9.92747 12.0325 10.0275C12.89 23.4575 13.7625 37.725 14.8475 50.3525C16.83 50.6018 18.8246 50.7429 20.8225 50.775C21.6475 47.61 22.6925 43.225 23.84 41.3575C24.785 39.8375 26.255 39.665 27.0775 39.565C28.3725 39.39 29.4675 39.365 29.99 39.365C30.49 39.34 31.5825 39.365 32.9025 39.565C33.7275 39.69 35.195 39.84 36.14 41.3575C37.315 43.225 38.3325 47.6075 39.155 50.7725C39.155 50.7725 40.05 50.7475 42.0675 50.6475C43.0925 50.6025 44.1175 50.5025 45.1325 50.3475C46.2775 36.8725 47.095 23.5275 47.9475 10.0275C47.2475 9.92747 46.6025 9.85247 45.78 9.80247C45.205 9.75247 43.8125 9.69997 43.8125 9.69997Z" fill="black"/>
</g>
<defs>
<clipPath id="clip0_104_44">
<rect width="60" height="60" fill="white"/>
</clipPath>
</defs>
</svg>
