<svg width="60" height="60" viewBox="0 0 60 60" fill="none" xmlns="http://www.w3.org/2000/svg">
<path d="M29.9975 45.3625C46.565 45.3625 60 38.485 60 30.0025C60 21.515 46.565 14.6375 29.9975 14.6375C13.435 14.6375 0 21.515 0 30.0025C0 38.485 13.435 45.3625 29.9975 45.3625ZM35.6475 37.825C35.1475 38.985 34.285 41.46 32.3075 42.45C31.7075 42.7475 30.965 42.885 30.3075 42.9125H30C24.465 42.9125 19.31 42.1375 14.995 40.8275L14.83 40.765C14.43 40.6325 14.23 40.4475 14.23 40.22C14.23 40.0225 14.3375 39.87 14.4775 39.7325L14.75 39.49C15.75 38.66 18.745 36.49 24.395 34.3225C26.3775 33.57 28.86 32.625 31.4575 32.0725C32.9775 31.7575 38.63 30.89 35.6475 37.825ZM50.8 22.34C50.9075 22.155 51.05 21.9975 51.3075 21.985C51.4475 21.97 51.6375 22.0025 51.9275 22.185C55.45 24.3525 57.54 27.065 57.54 29.9975C57.54 35.2925 50.73 39.8475 40.99 41.835C40.37 41.96 39.95 41.955 39.8125 41.7975C39.7125 41.7025 39.6875 41.5325 39.8125 41.3225C39.8856 41.1925 39.9728 41.0709 40.0725 40.96C45.3725 34.71 49.4125 25.4875 50.56 22.8275C50.6475 22.6425 50.73 22.46 50.8 22.34ZM24.4425 22.1425C24.9425 20.985 25.805 18.5075 27.78 17.5275C28.38 17.2275 29.1225 17.0825 29.78 17.065C29.9325 17.06 30.04 17.065 30.08 17.065C35.6225 17.065 40.77 17.83 45.09 19.1475C45.1225 19.1625 45.2225 19.1975 45.255 19.21C45.655 19.345 45.855 19.5275 45.855 19.755C45.855 19.9525 45.75 20.0975 45.61 20.2375C45.5215 20.321 45.4297 20.401 45.335 20.4775C44.3425 21.315 41.34 23.48 35.69 25.6475C33.7025 26.4075 31.225 27.345 28.635 27.895C27.11 28.22 21.46 29.0775 24.4425 22.1425ZM19 18.16C19.625 18.04 20.0375 18.04 20.19 18.1975C20.2775 18.2975 20.3025 18.4625 20.185 18.6725C20.1103 18.7991 20.0232 18.918 19.925 19.0275C14.625 25.285 10.5825 34.4999 9.43 37.1674C9.35768 37.3336 9.2776 37.4963 9.19 37.655C9.09 37.8375 8.9425 37.995 8.69 38.01C8.55 38.0225 8.3525 37.9825 8.0625 37.8075C4.5425 35.64 2.45 32.93 2.45 29.9975C2.45 24.7025 9.26 20.1475 19 18.16Z" fill="black"/>
</svg>
