<svg width="60" height="39" viewBox="0 0 60 39" fill="none" xmlns="http://www.w3.org/2000/svg">
<g clip-path="url(#clip0_105_4)">
<path d="M30 0.269531C13.5859 0.269531 0.277344 8.87891 0.277344 19.4961C0.277344 30.1172 13.5859 38.7305 30 38.7305C46.4141 38.7305 59.7227 30.1211 59.7227 19.4961C59.7227 8.87109 46.4141 0.269531 30 0.269531ZM30 30.4766C27.5586 30.4766 25.5664 25.668 25.4414 19.6172C26.9102 19.7461 28.4375 19.8164 30 19.8164C31.5625 19.8164 33.0898 19.7461 34.5586 19.6172C34.4336 25.6641 32.4414 30.4766 30 30.4766ZM25.7422 14.8125C26.4062 10.5352 28.0625 7.5 30 7.5C31.9375 7.5 33.5938 10.5352 34.2578 14.8125C32.8945 14.9336 31.4727 15 30 15C28.5273 15 27.1055 14.9336 25.7422 14.8125ZM30 3.05078C26.8125 3.05078 24.0937 7.82422 23.0898 14.4883C17.0469 13.5469 12.8281 11.3984 12.8281 8.90234C12.8281 5.53516 20.5156 2.80469 30 2.80469C39.4844 2.80469 47.1719 5.53516 47.1719 8.90234C47.1719 11.3984 42.9531 13.5469 36.9102 14.4883C35.9063 7.82422 33.1875 3.05078 30 3.05078ZM4.53906 18.7773C4.53906 15.5195 5.79297 12.4609 7.97656 9.83594C7.95312 10.0195 7.9375 10.207 7.9375 10.3945C7.9375 14.5 14.0938 18 22.6836 19.2891C22.6758 19.5859 22.6758 19.8867 22.6758 20.1875C22.6758 27.8398 24.8203 34.3203 27.7852 36.5195C14.7578 35.7344 4.53906 28.0898 4.53906 18.7773ZM32.2148 36.5195C35.1797 34.3203 37.3242 27.8398 37.3242 20.1875C37.3242 19.8828 37.3203 19.5859 37.3164 19.2891C45.9023 18 52.0625 14.5039 52.0625 10.3945C52.0625 10.207 52.0469 10.0195 52.0234 9.83594C54.207 12.4688 55.4609 15.5195 55.4609 18.7773C55.4609 28.0898 45.2422 35.7344 32.2148 36.5195Z" fill="black"/>
</g>
<defs>
<clipPath id="clip0_105_4">
<rect width="60" height="39" fill="white"/>
</clipPath>
</defs>
</svg>
