<svg width="79" height="45" viewBox="0 0 79 45" fill="none" xmlns="http://www.w3.org/2000/svg">
<g clip-path="url(#clip0_104_26)">
<path d="M0 0.000366211L1.57404 45.0003H9.22605L9.05821 26.3394H15.4746V20.5224H9.05821L9.08213 5.88006H17.4592L17.414 0.000366211H0Z" fill="black"/>
<path d="M20.4385 0.000244141L21.4065 45.0002H29.308L29.4684 0.000244141H20.4385Z" fill="black"/>
<path d="M57.48 0.000244141V5.67618H63.7214L63.5418 45.0002H71.1863L72.8099 5.66967H78.9999L78.9525 0.000244141H57.48Z" fill="black"/>
<path d="M41.384 20.8271L41.4706 5.542H45.8821C47.8822 8.9463 49.1674 13.4482 50.1749 20.8271H41.384ZM34.3349 44.9989H35.1099H40.8127H41.6496L41.7311 26.391H50.4958C51.1848 29.6754 51.3536 39.8137 51.3948 44.9989H52.1194H57.8441H58.4906C59.1601 22.0254 57.0803 9.0399 51.3341 -0.00012207H33.6655L34.3349 44.9989Z" fill="black"/>
</g>
<defs>
<clipPath id="clip0_104_26">
<rect width="79" height="45" fill="white"/>
</clipPath>
</defs>
</svg>
