<svg width="60" height="60" viewBox="0 0 60 60" fill="none" xmlns="http://www.w3.org/2000/svg">
<g clip-path="url(#clip0_104_51)">
<path fill-rule="evenodd" clip-rule="evenodd" d="M30 0.000108346C13.4315 0.000108346 0 13.432 0 30C0 46.5685 13.4315 60 30 60C46.568 60 59.9999 46.5685 59.9999 30C59.9999 13.432 46.568 0.000108346 30 0.000108346ZM30 57.3099C14.9169 57.3099 2.69006 45.083 2.69006 30C2.69006 14.9175 14.9169 2.68988 30 2.68988C45.0825 2.68988 57.3101 14.9175 57.3101 30C57.3101 45.083 45.0825 57.3099 30 57.3099Z" fill="black"/>
<path fill-rule="evenodd" clip-rule="evenodd" d="M24.0205 9.59571C25.9173 9.04089 27.9236 8.74391 29.9998 8.74391C32.0729 8.74391 34.0776 9.04057 35.9724 9.59411L29.9998 22.8329L24.0205 9.59571Z" fill="black"/>
<path fill-rule="evenodd" clip-rule="evenodd" d="M41.4096 12.0622C43.65 13.4907 45.6044 15.3264 47.1688 17.4652L37.3658 39.1578L33.5834 30.7471H26.4162L22.6337 39.1578L12.8452 17.445C14.407 15.3145 16.356 13.4862 18.5889 12.0629L26.4162 29.4278H33.6077L41.4096 12.0622Z" fill="black"/>
<path fill-rule="evenodd" clip-rule="evenodd" d="M9.46187 24.4983C8.99322 26.2535 8.74316 28.0979 8.74316 30C8.74316 38.3301 13.5343 45.5408 20.5113 49.0271L9.46187 24.4983Z" fill="black"/>
<path fill-rule="evenodd" clip-rule="evenodd" d="M24.1196 50.4328C25.9868 50.9695 27.9601 51.2567 30.0002 51.2567C32.0377 51.2567 34.0084 50.9701 35.874 50.4349L30.0002 37.3909L24.1196 50.4328Z" fill="black"/>
<path fill-rule="evenodd" clip-rule="evenodd" d="M39.4883 49.0271C46.4653 45.5408 51.2563 38.3301 51.2563 30C51.2563 28.1143 51.0113 26.2859 50.5504 24.5451L39.4883 49.0271Z" fill="black"/>
</g>
<defs>
<clipPath id="clip0_104_51">
<rect width="60" height="60" fill="white"/>
</clipPath>
</defs>
</svg>
